<svg xmlns="http://www.w3.org/2000/svg" xmlns:xlink="http://www.w3.org/1999/xlink" width="568" height="400" viewBox="0 0 568 400">
  <defs>
    <linearGradient id="linear-gradient" x1="31.936" y1="1" x2="31.936" gradientUnits="objectBoundingBox">
      <stop offset="0" stop-color="gray" stop-opacity="0.251"/>
      <stop offset="0.54" stop-color="gray" stop-opacity="0.122"/>
      <stop offset="1" stop-color="gray" stop-opacity="0.102"/>
    </linearGradient>
  </defs>
  <g id="Group_2678" data-name="Group 2678" transform="translate(-0.006 0.002)">
    <path id="Path_1060" data-name="Path 1060" d="M410.878,119.88c-24.372,17.1-55.985,16-83.687,7.1s-53.15-24.747-80.141-36.008a259.938,259.938,0,0,0-70.413-18.4c-34.4-3.946-72.816.861-96.782,28.523-26.691,30.789-24.641,86.336,4.216,114.622,14.687,14.378,33.915,21.435,50.684,32.659s32.3,29.855,30.875,51.511c-1.323,20.072-16.694,35.454-32.6,45.115-12.294,7.464-27.434,15.614-28.915,31.075-1.433,14.959,11.3,26.68,23.455,33.346a132.95,132.95,0,0,0,128.053-.528c14.091-7.9,27.033-18.376,41.815-24.493,38.811-16.121,81.579.111,122.678,6.043a244.681,244.681,0,0,0,104.339-7.612c20.351-6.027,40.782-15.239,55.078-32.4,10.313-12.376,16.736-28.032,22.765-43.5q9.644-24.736,18.544-49.826c3.557-10.036,7.061-20.273,7.984-31.017,1.665-19.465-5.354-38.707-14.913-55.135-22.7-39.035-60.922-66.46-102.321-73.427s-85.194,6.64-117.3,36.415" transform="translate(-61.06 -71.37)" fill="#9bc93a" opacity="0.1"/>
    <g id="Group_2668" data-name="Group 2668" transform="translate(282.899 53.968)" opacity="0.1">
      <path id="Path_1061" data-name="Path 1061" d="M599.908,174.191,597.9,290.926s72.679,0,134.519,20.125l1.2-117.929S634.44,169.358,599.908,174.191Z" transform="translate(-597.9 -173.542)"/>
    </g>
    <path id="Path_1062" data-name="Path 1062" d="M596.908,170.191,594.9,286.926s72.679,0,134.518,20.125l1.2-117.929S631.44,165.358,596.908,170.191Z" transform="translate(-313.582 -117.687)" fill="#f7f7fd"/>
    <g id="Group_2669" data-name="Group 2669" transform="translate(114.707 57.317)" opacity="0.1">
      <path id="Path_1063" data-name="Path 1063" d="M412.442,180.526l2.008,116.735s-72.679,0-134.513,20.125L278.73,199.457S377.91,175.719,412.442,180.526Z" transform="translate(-278.73 -179.883)"/>
    </g>
    <path id="Path_1064" data-name="Path 1064" d="M415.442,175.526l2.008,116.735s-72.679,0-134.513,20.125L281.73,194.457S380.91,170.719,415.442,175.526Z" transform="translate(-165.442 -120.207)" fill="#f7f7fd"/>
    <g id="Group_2670" data-name="Group 2670" transform="translate(145.645 68.591)" opacity="0.2">
      <path id="Path_1065" data-name="Path 1065" d="M409.149,201.572l1.08,62.6s-39,0-72.142,10.791l-.648-63.243S390.632,198.994,409.149,201.572Z" transform="translate(-337.44 -201.227)" fill="#9bc93a"/>
    </g>
    <g id="Group_2671" data-name="Group 2671" transform="translate(461.456 97.555)" opacity="0.1">
      <path id="Path_1066" data-name="Path 1066" d="M936.74,256.06V371.575s23.713-2.821,73.485,58.763l4.416-115.515S962.841,258.875,936.74,256.06Z" transform="translate(-936.74 -256.06)"/>
    </g>
    <path id="Path_1067" data-name="Path 1067" d="M934.74,253.06V368.575s23.713-2.821,73.485,58.764l4.416-115.515S960.84,255.875,934.74,253.06Z" transform="translate(-474.338 -157.09)" fill="#f7f7fd"/>
    <g id="Group_2672" data-name="Group 2672" transform="translate(0.271 98.083)" opacity="0.1">
      <path id="Path_1068" data-name="Path 1068" d="M139.466,257.06V372.575s-23.692-2.821-73.454,58.764L61.57,315.824S113.365,259.875,139.466,257.06Z" transform="translate(-61.57 -257.06)"/>
    </g>
    <path id="Path_1069" data-name="Path 1069" d="M142.466,253.06V368.575s-23.692-2.821-73.454,58.764L64.57,311.823S116.365,255.875,142.466,253.06Z" transform="translate(-62.718 -157.09)" fill="#f7f7fd"/>
    <g id="Group_2673" data-name="Group 2673" transform="translate(302.744 76.785)" opacity="0.2">
      <path id="Path_1070" data-name="Path 1070" d="M574.5,145.37l49.234,8.826v7.189L574.5,151.909Z" transform="translate(-574.5 -145.37)" fill="#9bc93a"/>
    </g>
    <path id="Path_1071" data-name="Path 1071" d="M350.309,276.87,301.08,285.7v7.189l49.229-9.476Z" transform="translate(-142.419 -130.625)" fill="#fff"/>
    <path id="Path_1072" data-name="Path 1072" d="M575.74,170.74l89.985,18.63v7.189l-89.985-19.28Z" transform="translate(-272.342 -80.554)" fill="#fff"/>
    <path id="Path_1073" data-name="Path 1073" d="M575.74,196.11l89.985,18.625v7.194L575.74,202.644Z" transform="translate(-272.342 -92.523)" fill="#fff"/>
    <g id="Group_2674" data-name="Group 2674" transform="translate(481.386 133.272)" opacity="0.2">
      <path id="Path_1074" data-name="Path 1074" d="M913.5,252.31v6.344l19.3,15.72.906-5.441Z" transform="translate(-913.5 -252.31)" fill="#9bc93a"/>
    </g>
    <path id="Path_1075" data-name="Path 1075" d="M913.5,368.31v6.344l19.3,15.72.906-5.441Z" transform="translate(-432.114 -173.765)" fill="#fff"/>
    <path id="Path_1076" data-name="Path 1076" d="M913.806,272.91l-.306,6.349,36.492,34.455-.6-7.252Z" transform="translate(-432.114 -128.757)" fill="#fff"/>
    <path id="Path_1077" data-name="Path 1077" d="M913.5,295.23v6.043l36.492,35.068v-7.86Z" transform="translate(-432.114 -139.287)" fill="#fff"/>
    <g id="Group_2675" data-name="Group 2675" transform="translate(22.272 134.646)" opacity="0.2">
      <path id="Path_1078" data-name="Path 1078" d="M78.447,254.91l.3,6.349L42.26,295.714l.6-7.252Z" transform="translate(-42.26 -254.91)" fill="#9bc93a"/>
    </g>
    <g id="Group_2676" data-name="Group 2676" transform="translate(22.272 146.435)" opacity="0.2">
      <path id="Path_1079" data-name="Path 1079" d="M78.747,277.23v6.043L42.26,318.341v-7.86Z" transform="translate(-42.26 -277.23)" fill="#9bc93a"/>
    </g>
    <ellipse id="Ellipse_60" data-name="Ellipse 60" cx="30.037" cy="5.419" rx="30.037" ry="5.419" transform="translate(77.788 323.064)" fill="#9bc93a" opacity="0.1"/>
    <path id="Path_1080" data-name="Path 1080" d="M123.331,636.84s2.893,3.793-1.339,9.508-7.72,10.564-6.324,14.135c0,0,6.382-10.638,11.593-10.786S129.049,643.263,123.331,636.84Z" transform="translate(-86.741 -338.153)" fill="#9bc93a"/>
    <path id="Path_1081" data-name="Path 1081" d="M123.489,636.84a4.562,4.562,0,0,1,.59,1.188c5.069,5.969,7.773,11.542,2.9,11.684-4.537.127-10.012,8.267-11.288,10.321.042.153.095.312.153.465,0,0,6.382-10.638,11.593-10.786S129.207,643.263,123.489,636.84Z" transform="translate(-86.899 -338.153)" opacity="0.1"/>
    <path id="Path_1082" data-name="Path 1082" d="M140.1,645.234c0,1.336-.148,2.419-.332,2.419s-.337-1.083-.337-2.419.19-.708.374-.708S140.1,643.893,140.1,645.234Z" transform="translate(-98.129 -341.709)" fill="#ffd037"/>
    <path id="Path_1083" data-name="Path 1083" d="M142.156,648.184c-1.17.639-2.192,1.025-2.282.866s.79-.814,1.96-1.453.706-.174.8,0S143.326,647.551,142.156,648.184Z" transform="translate(-98.336 -343.074)" fill="#ffd037"/>
    <path id="Path_1084" data-name="Path 1084" d="M95.631,636.84s-2.883,3.782,1.333,9.523,7.72,10.564,6.324,14.135c0,0-6.382-10.638-11.593-10.786S89.919,643.263,95.631,636.84Z" transform="translate(-74.334 -338.153)" fill="#9bc93a"/>
    <path id="Path_1085" data-name="Path 1085" d="M95.624,636.84a4.759,4.759,0,0,0-.59,1.188c-5.069,5.969-7.773,11.542-2.9,11.684,4.542.127,10.012,8.267,11.288,10.321a3.991,3.991,0,0,1-.153.465s-6.382-10.638-11.593-10.786S89.912,643.263,95.624,636.84Z" transform="translate(-74.327 -338.153)" opacity="0.1"/>
    <path id="Path_1086" data-name="Path 1086" d="M91.26,645.234c0,1.336.148,2.419.332,2.419s.337-1.083.337-2.419-.19-.708-.374-.708S91.26,643.893,91.26,645.234Z" transform="translate(-75.343 -341.709)" fill="#ffd037"/>
    <path id="Path_1087" data-name="Path 1087" d="M87.12,648.184c1.17.639,2.187,1.025,2.276.866s-.79-.814-1.96-1.453-.706-.174-.8,0S85.95,647.551,87.12,648.184Z" transform="translate(-73.047 -343.074)" fill="#ffd037"/>
    <path id="Path_1088" data-name="Path 1088" d="M93,676.775s8.094-.248,10.539-1.991,12.447-3.819,13.053-1.025,12.162,13.887,3.025,13.961-21.231-1.426-23.666-2.916S93,676.775,93,676.775Z" transform="translate(-76.166 -354.926)" fill="#a8a8a8"/>
    <path id="Path_1089" data-name="Path 1089" d="M119.785,690.653c-9.138.074-21.231-1.426-23.666-2.916-1.855-1.13-2.593-5.192-2.84-7.068H93.01s.527,6.545,2.946,8.029,14.528,2.99,23.666,2.916c2.635,0,3.552-.961,3.5-2.356C122.757,690.109,121.751,690.637,119.785,690.653Z" transform="translate(-76.171 -358.831)" opacity="0.2"/>
    <ellipse id="Ellipse_61" data-name="Ellipse 61" cx="49.535" cy="8.504" rx="49.535" ry="8.504" transform="translate(266.911 240.13)" fill="#9bc93a" opacity="0.1"/>
    <path id="Path_1090" data-name="Path 1090" d="M632.71,323.417a6.932,6.932,0,0,0-.527,1.622q-.047.211-.095.444c-.316,1.616-.527,3.65-.638,4.833-.053.592-.079.972-.079.972s-11.43-.766-9.448-2.689a4.226,4.226,0,0,0,1.054-1.9c.058-.206.105-.412.148-.623a10.71,10.71,0,0,0,.184-1.453v-.37a15.009,15.009,0,0,0-.111-2.372s3.715,0,6.519.3C631.6,322.4,633.073,322.773,632.71,323.417Z" transform="translate(-326.256 -189.558)" fill="#d38884"/>
    <path id="Path_1091" data-name="Path 1091" d="M602.269,395.937c-3.894-.127-1.022-8.256-.574-9.349s-.664-3.771-.664-3.771-1.317-7.744-1.317-8.251a20.736,20.736,0,0,0-.443-3.138,5.293,5.293,0,0,1,.527-3.074c.448-.7.38-3.518.38-3.518v-3.645l.869-1.151,2.219,2.113.617.581,1.085,4.078-.385,5.842-.206,5.689,1.344,7.87S606.189,396.069,602.269,395.937Z" transform="translate(-315.629 -207.562)" fill="#d38884"/>
    <path id="Path_1092" data-name="Path 1092" d="M543.3,291.754l-3.32-1.384v-.539l.864-1.151,2.224,2.1Z" transform="translate(-255.427 -136.197)" opacity="0.1"/>
    <path id="Path_1093" data-name="Path 1093" d="M602.832,350.11a15.376,15.376,0,0,0-.922,3.264,14.5,14.5,0,0,1-.869,3.132l3.689,1.537Z" transform="translate(-316.487 -202.877)" fill="#4c4981"/>
    <path id="Path_1094" data-name="Path 1094" d="M602.832,350.11a15.376,15.376,0,0,0-.922,3.264,14.5,14.5,0,0,1-.869,3.132l3.689,1.537Z" transform="translate(-316.487 -202.877)" opacity="0.05"/>
    <path id="Path_1095" data-name="Path 1095" d="M648.838,479.463l-.306.655s-.332,2.171-.332,2.224-.959,1.5-.959,1.5l-2.408.528-1.022-.127a14.422,14.422,0,0,0-.274-1.775c-.037-.164-.074-.333-.121-.5a13.578,13.578,0,0,0-1.681-3.824s-1.786-4.416-2.424-4.992-3.067-6.4-2.809-7.807a41.067,41.067,0,0,0-.1-5.515c-.105-1.759-.221-3.238-.221-3.238L642.245,453l.706,1.115.422.66a3.045,3.045,0,0,1-.026.338v.079a11.3,11.3,0,0,1-.527,2.641s-.453,3.264,0,3.84,1.9,8.272,2.219,11.832v.322a7.149,7.149,0,0,0,2.155,4.162h0c.063.074.132.143.2.211A13.9,13.9,0,0,0,648.838,479.463Z" transform="translate(-333.109 -251.419)" fill="#d38884"/>
    <path id="Path_1096" data-name="Path 1096" d="M650.315,506.42l1.022.127,2.408-.528s.959-1.453.959-1.5.332-2.224.332-2.224l.306-.655.037-.079a12.8,12.8,0,0,1-1.655-1.368h0c-.058-.053-.116-.106-.169-.164a3.148,3.148,0,0,1-1.491,3.058c-.891.46-1.623.813-2.134,1.056Z" transform="translate(-339.613 -273.606)" opacity="0.1"/>
    <path id="Path_1097" data-name="Path 1097" d="M655.863,502.316l-.343.734s-.332,2.171-.332,2.224-.959,1.5-.959,1.5l-2.408.528-1.386-.164a9.2,9.2,0,0,0-.116-1.157c-.042-.291-.1-.613-.179-.961.527-.238,1.344-.629,2.392-1.173a3,3,0,0,0,1.491-3.058,14.53,14.53,0,0,0,1.26,1.12C655.536,502.089,655.742,502.232,655.863,502.316Z" transform="translate(-339.713 -273.966)" fill="#ceddf9"/>
    <path id="Path_1098" data-name="Path 1098" d="M656.024,503.317l-.343.734s-.332,2.171-.332,2.224-.959,1.5-.959,1.5l-2.408.528-1.386-.164a9.207,9.207,0,0,0-.116-1.157,4.79,4.79,0,0,1,.875.122s3.288.7,3.446-1.907c.095-1.479.4-2.06.643-2.287C655.7,503.09,655.9,503.232,656.024,503.317Z" transform="translate(-339.873 -274.966)" opacity="0.1"/>
    <path id="Path_1099" data-name="Path 1099" d="M655.1,501.711s-.817-.18-.98,2.424-3.446,1.907-3.446,1.907-1.613-.4-1.628.269a6.283,6.283,0,0,0,.432,1.806,5.635,5.635,0,0,0,.4,1.923c.306.37.111,1.743.111,1.743s.126,1.025,2.666,0a7.4,7.4,0,0,0,4.147-3.3c.063-.1-.221-.386,1.423-.977s6.324-4.384,5.986-6.238a1.584,1.584,0,0,0-1.117-1.331,1.919,1.919,0,0,0-1.47.2,11.622,11.622,0,0,1-1.375.634,6.74,6.74,0,0,1-1.96.47,7.529,7.529,0,0,0-1.523.29A3.154,3.154,0,0,1,655.1,501.711Z" transform="translate(-339.197 -273.535)" fill="#cc8294"/>
    <path id="Path_1100" data-name="Path 1100" d="M609.922,467.117a4.483,4.483,0,0,0-.927,1.056c-.927,1.421-1.486,3.407-2.108,4.263a8.446,8.446,0,0,0-1.054,3.264,70.417,70.417,0,0,1-4.021,10.321,33.741,33.741,0,0,0-1.939,4.992,3.947,3.947,0,0,0-.58,2.768.557.557,0,0,0,.032.248.1.1,0,0,1,0,.1v.037l-1.107,1.886-3.52-.491-1.818-1.236a6.208,6.208,0,0,0,.4-.755,33.447,33.447,0,0,0,1.665-6.064,41.65,41.65,0,0,0,.906-5.472,41.55,41.55,0,0,1,.29-4.226s2.772-8.478,3.657-9.851a3.958,3.958,0,0,0,.664-1.822,1.537,1.537,0,0,0,0-.4l1.191-1.188S611.45,465.9,609.922,467.117Z" transform="translate(-312.627 -256.868)" fill="#d38884"/>
    <path id="Path_1101" data-name="Path 1101" d="M599.395,519.641v.417l-1.107,1.886-3.52-.491-1.818-1.236a6.209,6.209,0,0,0,.4-.755,7.16,7.16,0,0,1,2.909.465s2.187.417,3.109-.253A.056.056,0,0,1,599.395,519.641Z" transform="translate(-312.66 -282.749)" opacity="0.1"/>
    <path id="Path_1102" data-name="Path 1102" d="M597.4,525.023l-3.573.856-3.278-2.43.169-1.368a2.363,2.363,0,0,0,.6-.528,2.167,2.167,0,0,0,.474-.983c.19-1.009,3.3.1,3.3.1s2.276.433,3.162-.29a5.58,5.58,0,0,0,.169,1.975,1.474,1.474,0,0,0,.527.787C599.867,523.766,597.4,525.023,597.4,525.023Z" transform="translate(-311.524 -283.098)" fill="#ceddf9"/>
    <path id="Path_1103" data-name="Path 1103" d="M597.4,526.28l-3.573.856-3.278-2.43.169-1.368a2.358,2.358,0,0,0,.6-.528h.717c.527.053,1.844,2.4,1.844,2.4,3.235.217,4.216-.845,4.548-1.627a1.474,1.474,0,0,0,.527.787C599.867,525.023,597.4,526.28,597.4,526.28Z" transform="translate(-311.524 -284.355)" opacity="0.1"/>
    <path id="Path_1104" data-name="Path 1104" d="M591.042,525.935s-1.3-2.351-1.844-2.4a12.359,12.359,0,0,0-1.391,0s-1.433,3.407-1.96,3.7-1.3,1.923-1.3,1.923,3.794,3.7,7.462,2.974a7.591,7.591,0,0,1,3.362.84c1.7.887,8.785.217,9.649-1.342.643-1.173.9-2.023.332-2.641a1.537,1.537,0,0,0-1.333-.454,5.012,5.012,0,0,1-4.648-2.06,42.188,42.188,0,0,0-3.5-2.974C595.611,523.495,596.091,526.273,591.042,525.935Z" transform="translate(-308.686 -284.68)" fill="#cc8294"/>
    <path id="Path_1105" data-name="Path 1105" d="M643.378,455.16l-.026.032a12.083,12.083,0,0,1-2.255,2.081,22.463,22.463,0,0,0-2.3,1.019s-.959,1.284-1.723,1.347a3,3,0,0,0-.675.18c-.105-1.759-.221-3.238-.221-3.238L642.245,453l.706,1.115c.158.449.337.866.4,1Z" transform="translate(-333.109 -251.419)" opacity="0.1"/>
    <path id="Path_1106" data-name="Path 1106" d="M607.058,409.215a6.569,6.569,0,0,0,0,7.178,23.9,23.9,0,0,0,4.853,6.143l8.042,16.7a13.123,13.123,0,0,1,2.877-1.215c.769-.063,1.723-1.342,1.723-1.342a22.314,22.314,0,0,1,2.3-1.025c.527-.127,2.282-2.113,2.282-2.113s-.88-1.917-.685-2.43-.574-1.8-.574-1.8a10.57,10.57,0,0,1-.527-1.981,5.2,5.2,0,0,0-.833-1.727,5.475,5.475,0,0,1-.828-1.986,18.942,18.942,0,0,0-1.238-3.476L624.126,408Z" transform="translate(-318.837 -230.189)" fill="#ceddf9"/>
    <path id="Path_1107" data-name="Path 1107" d="M629.078,433.544a12.763,12.763,0,0,1-2.282,2.113,22.3,22.3,0,0,0-2.3,1.025s-.959,1.278-1.723,1.342a6.1,6.1,0,0,0-1.581.565c-.685.312-1.3.65-1.3.65l-8.047-16.7a17.441,17.441,0,0,1-1.955-2.007,27.715,27.715,0,0,1-2.9-4.136,6.939,6.939,0,0,1-.917-4.981,5.736,5.736,0,0,1,.917-2.192l5.723-.407,11.4-.813.095,3.6.211,8.552s.184.428.416.993a10.88,10.88,0,0,1,.8,2.461,5.432,5.432,0,0,0,.827,1.986,5.374,5.374,0,0,1,.833,1.727,10.716,10.716,0,0,0,.527,1.986s.769,1.278.58,1.785S629.078,433.544,629.078,433.544Z" transform="translate(-318.809 -230.189)" opacity="0.05"/>
    <path id="Path_1108" data-name="Path 1108" d="M616.705,467.089a4.475,4.475,0,0,0-.927,1.056c-3.473.254-7.509-1.585-8.558-2.071a1.527,1.527,0,0,0,0-.4l1.191-1.188S618.234,465.869,616.705,467.089Z" transform="translate(-319.41 -256.84)" opacity="0.1"/>
    <path id="Path_1109" data-name="Path 1109" d="M626.722,411.931s-.527,1.791-.7,2.557-.575,4.548-.575,4.548l-.221,1.056-3.647,17.431-.8,3.787c-1.4.771-4.911-1.283-4.911-1.283-4.089.454-9.132-2.171-9.132-2.171a13.273,13.273,0,0,0,.638-4.03,3.093,3.093,0,0,1,1.149-2.435c-.316-1.215.827-6.529.827-6.529s.258-1.981,1.217-2.493-.126-1.278-.385-1.733a1.963,1.963,0,0,1,.09-1.173,8.733,8.733,0,0,1,.3-.872c-2.435-2.44-2.809-6.254-2.814-8.372a13.536,13.536,0,0,1,.068-1.548l5.27-.924,11.514-2.018,1.175,3.623h0l.3.909Z" transform="translate(-319.183 -229.118)" fill="#ceddf9"/>
    <path id="Path_1110" data-name="Path 1110" d="M634.062,323.412a6.931,6.931,0,0,0-.527,1.622q-.047.211-.095.444a4.831,4.831,0,0,1-3.22.729c-.49,0-.764-.94-1.228-1.056,0,0-.7-2.514-.891-.4-1.339-.275-2.493.771-3.441-.143h0v-.37a15.024,15.024,0,0,0-.111-2.372s3.715,0,6.519.3C632.955,322.393,634.425,322.768,634.062,323.412Z" transform="translate(-327.607 -189.554)" opacity="0.1"/>
    <path id="Path_1111" data-name="Path 1111" d="M634.835,310.264a7.129,7.129,0,0,1-8.542,6.988h0a7.127,7.127,0,1,1,7.63-10.49A7.019,7.019,0,0,1,634.835,310.264Z" transform="translate(-325.746 -180.715)" fill="#d38884"/>
    <path id="Path_1112" data-name="Path 1112" d="M631.45,334.618c-.053.592-.079.972-.079.972s-11.43-.766-9.448-2.689a4.228,4.228,0,0,0,1.054-1.9l4.959.813s1.4,1.088,2.487,2.113A4.507,4.507,0,0,0,631.45,334.618Z" transform="translate(-326.256 -193.861)" opacity="0.1"/>
    <path id="Path_1113" data-name="Path 1113" d="M625.834,410.6a3.679,3.679,0,0,1-1.5-.111,3.042,3.042,0,0,1-.606-.269c-.959-.576-4.147.132-4.147.132s-8.684.576-9.069,0c-.216-.333-1.749-.285-3-.185-.527.042-.975.1-1.3.127a5.736,5.736,0,0,1,.917-2.192l5.723-.407,11.514-2.018,1.175,3.624h0A13.1,13.1,0,0,0,625.834,410.6Z" transform="translate(-318.932 -229.094)" opacity="0.1"/>
    <path id="Path_1114" data-name="Path 1114" d="M618.929,332.355,612.7,331.33a1.856,1.856,0,0,1-1.175,1.025,15.288,15.288,0,0,0-6.192,4.416l-1.66,2.308s-1.344,1.664-.9,3.005a50.861,50.861,0,0,1,.959,5.89l.638,5.055s1.212,3.65.833,5.25.19,8.319.19,8.319l-1.275,8.319s4.337-.576,4.743,0,9.069,0,9.069,0,3.162-.708,4.147-.132a3.461,3.461,0,0,0,2.108.386s-.764-2.641-.322-4.094a16.455,16.455,0,0,0,.322-4.162s.638-3.9.316-4.606.706-3.264.706-3.264l3.383-17.854s-.411-3.2-2.219-4.289-3.847-1.41-4.932-2.43S618.929,332.355,618.929,332.355Z" transform="translate(-317.265 -194.017)" fill="#4c4981"/>
    <path id="Path_1115" data-name="Path 1115" d="M639,365.3v2.113l1.966,5.314.711,4.928a24.367,24.367,0,0,1,1.281,4.754c0,1.236,3.125,7.1,3.125,7.1s.854,1.986.427,2.366-4.126,8.832.527,8.578,3.193-9.085,3.193-9.085l-.638-3.84s-.9-9.6-.9-10.305c0,0-1.149-4.094-1.275-4.992s-.959-5.441-.959-5.441l-.7-2.942Z" transform="translate(-334.443 -209.359)" fill="#d38884"/>
    <path id="Path_1116" data-name="Path 1116" d="M565.525,307.82l-6.94,3.983-2.155,3.264,2.872-2.926Z" transform="translate(-263.208 -145.227)" opacity="0.1"/>
    <path id="Path_1117" data-name="Path 1117" d="M622.16,393.63S619,395.7,617.512,395.7s-4.932,3.55-4.932,3.55,4.885-3.169,5.27-3.069S622.16,393.63,622.16,393.63Z" transform="translate(-321.945 -223.409)" opacity="0.1"/>
    <path id="Path_1118" data-name="Path 1118" d="M613.31,395.72s-2.967,2.689-2.2,2.979,4.743-2.979,4.743-2.979Z" transform="translate(-321.189 -224.395)" opacity="0.1"/>
    <path id="Path_1119" data-name="Path 1119" d="M638.7,377.55s-2.3,3.122-1.676,3.074,2.392-1.828,2.392-1.828Z" transform="translate(-333.458 -215.823)" opacity="0.1"/>
    <path id="Path_1120" data-name="Path 1120" d="M638.78,383.37s-2.487,2.831-2.392,3.55S638.78,383.37,638.78,383.37Z" transform="translate(-333.206 -218.569)" opacity="0.1"/>
    <path id="Path_1121" data-name="Path 1121" d="M641.1,386.05s-1.676,3-.959,3.624S641.1,386.05,641.1,386.05Z" transform="translate(-334.898 -219.833)" opacity="0.1"/>
    <path id="Path_1122" data-name="Path 1122" d="M637.4,371.46s-1.249,2.113-.337,2.255,1,0,1,0Z" transform="translate(-333.368 -212.95)" opacity="0.1"/>
    <path id="Path_1123" data-name="Path 1123" d="M637.07,356.83A22.089,22.089,0,0,1,635.8,360.6a17.5,17.5,0,0,1-.5-1.886,12.854,12.854,0,0,1,1.771-1.88Z" transform="translate(-332.693 -206.047)" opacity="0.1"/>
    <path id="Path_1124" data-name="Path 1124" d="M633.927,306.77a3.107,3.107,0,0,1-.479.745,5.518,5.518,0,0,0-.864.993,5.337,5.337,0,0,0-.311,1.7c-.095.57-.453,1.2-1.054,1.22a2.134,2.134,0,0,1-.843-.254.857.857,0,0,0-.838.026.94.94,0,0,0-.269.634,8.4,8.4,0,0,0-.084,1.5,3.777,3.777,0,0,0,.032.6,3.361,3.361,0,0,1-.111,1.9,2.3,2.3,0,0,1-1.18.951,7.281,7.281,0,0,1-1.655.465h0a18.154,18.154,0,0,1-3.262.106.8.8,0,0,1-.3-.048.415.415,0,0,1-.127-.079,10.02,10.02,0,0,0,.2-1.822,7.122,7.122,0,1,1,11.145-8.631Z" transform="translate(-325.75 -180.724)" opacity="0.1"/>
    <path id="Path_1125" data-name="Path 1125" d="M628.2,298.562a6.173,6.173,0,0,0-1.913.423c-1.323.291-2.677-.312-4.036-.306a7.479,7.479,0,0,0-3.32.993,8.015,8.015,0,0,0-2.213,1.553,3.622,3.622,0,0,0-1.054,2.44,4.007,4.007,0,0,1-.047,1.585,4.457,4.457,0,0,1-.485.739,2.2,2.2,0,0,0-.227,1.833A6.081,6.081,0,0,0,616,309.459c.875,1.125,1.423,2.472,2.208,3.666a11.39,11.39,0,0,0,1.149,1.463.812.812,0,0,0,.248.2.759.759,0,0,0,.29.042,11.61,11.61,0,0,0,4.922-.571,2.251,2.251,0,0,0,1.18-.951,3.363,3.363,0,0,0,.116-1.9,8.729,8.729,0,0,1,.047-2.113.932.932,0,0,1,.269-.629.842.842,0,0,1,.843-.026,2.3,2.3,0,0,0,.838.254c.574,0,.938-.655,1.054-1.225a2.877,2.877,0,0,1,1.175-2.689,4.075,4.075,0,0,0,.722-3.608C630.678,300.178,629.519,298.694,628.2,298.562Z" transform="translate(-322.996 -178.553)" fill="#1e1637"/>
    <path id="Path_1126" data-name="Path 1126" d="M644.183,349.617a8.334,8.334,0,0,0,0,2.641c-.063.708,0,4.611,0,4.611-2.108-.644-7.467.639-7.467.639l-.638-1.918a4.757,4.757,0,0,1-.8-1.585,17.651,17.651,0,0,1-.5-1.891,39.335,39.335,0,0,1-.627-4.02c-.269-2.034,2.751-4.226,5.038-5.441s4.289,3.967,4.289,3.967S644.436,348.613,644.183,349.617Z" transform="translate(-332.143 -199.273)" opacity="0.1"/>
    <path id="Path_1127" data-name="Path 1127" d="M644.183,348.921a8.355,8.355,0,0,0,0,2.641c-.063.7,0,4.606,0,4.606-2.108-.639-7.467.639-7.467.639l-.638-1.917a4.7,4.7,0,0,1-.8-1.585,17.493,17.493,0,0,1-.5-1.886,39.5,39.5,0,0,1-.627-4.02c-.269-2.039,2.751-4.226,5.038-5.446s4.289,3.967,4.289,3.967S644.436,347.9,644.183,348.921Z" transform="translate(-332.143 -198.941)" fill="#4c4981"/>
    <path id="Path_1128" data-name="Path 1128" d="M631,302.96a4.23,4.23,0,0,0-.469-1.03c.032.09.063.174.089.264a4.075,4.075,0,0,1-.722,3.608,2.876,2.876,0,0,0-1.175,2.689c-.09.57-.453,1.2-1.054,1.22a2.136,2.136,0,0,1-.843-.254.857.857,0,0,0-.838.026.941.941,0,0,0-.269.634,8.68,8.68,0,0,0-.047,2.113,3.427,3.427,0,0,1-.116,1.907,2.346,2.346,0,0,1-1.18.951,11.609,11.609,0,0,1-4.922.57.763.763,0,0,1-.29-.048.68.68,0,0,1-.248-.2,10.242,10.242,0,0,1-1.149-1.463c-.785-1.194-1.333-2.535-2.208-3.666a10.748,10.748,0,0,1-.722-.93v.063a5.852,5.852,0,0,0,1.091,1.637c.87,1.125,1.423,2.472,2.2,3.666a11,11,0,0,0,1.154,1.463.791.791,0,0,0,.242.2.773.773,0,0,0,.29.042,11.6,11.6,0,0,0,4.922-.57,2.252,2.252,0,0,0,1.181-.951,3.362,3.362,0,0,0,.116-1.9,9.31,9.31,0,0,1,.047-2.113.979.979,0,0,1,.269-.629.842.842,0,0,1,.843-.026,2.293,2.293,0,0,0,.838.254c.58,0,.938-.655,1.054-1.226a5.2,5.2,0,0,1,.311-1.7,5.307,5.307,0,0,1,.864-.993A4.085,4.085,0,0,0,631,302.96Z" transform="translate(-323.014 -180.146)" opacity="0.2"/>
    <path id="Path_1129" data-name="Path 1129" d="M728.213,301.757l-4.553,9.7a8.317,8.317,0,0,1-1.1,2.16c-.432.338-2.345,6.1-2.345,6.1l-4.885,7.543h0l-.332.528-1.913-.528-1.344-5.029.079-1.458v-.185s3.014-3.169,3.689-3.407c0,0,.527.063,1.528-2.393s1.918-2.984,1.918-2.984l.527-1.775L725.135,301s4.743-6.809,6.034-3.787S728.213,301.757,728.213,301.757Z" transform="translate(-368.851 -177.554)" fill="#ffd2c6"/>
    <path id="Path_1130" data-name="Path 1130" d="M695.479,434.43a1.1,1.1,0,0,1-.153.465c-.527.771-3.494,16.464-3.494,16.464a8.924,8.924,0,0,1-.864,4.131,60.674,60.674,0,0,0-1.391,5.948s-.237,10.754-.854,12.434.2,5.282.2,5.282a8.092,8.092,0,0,0,1.523,4.294l.116.169c.19.275.316.433.316.433a2.554,2.554,0,0,0,.669.829l.137.106a7.726,7.726,0,0,0,2.682,1.136h.095c.379.084.632.121.632.121l.237,1.3-2.535.528-4.837.333s-5.7.438-4.405-2.113a4.076,4.076,0,0,0,.232-.528h0q.075-.187.132-.38a13.179,13.179,0,0,0,.253-5.42l-1.1-8.684c-1.818-8.066,1.428-17.04,1.428-17.04a4.212,4.212,0,0,1,.343-2.541c.622-1.822,0-5.81,0-5.81s-.332-5.134-.764-7.675a15.607,15.607,0,0,1-.174-3.238,16.167,16.167,0,0,1,.174-1.891l10.913-1.453A8.245,8.245,0,0,1,695.479,434.43Z" transform="translate(-355.025 -241.337)" fill="#ffd2c6"/>
    <path id="Path_1131" data-name="Path 1131" d="M696.085,533.645l-2.535.528-4.838.333s-5.7.439-4.405-2.113a4.03,4.03,0,0,0,.232-.528h0a4,4,0,0,0,.132-.38,8.935,8.935,0,0,1,2.888.581c1.623.628,2.846-1.009,2.846-1.009l.791-1.511.116-.217c.19.275.316.433.316.433a2.639,2.639,0,0,0,.806.935l-.137.28-.764,1.616s.98.1,2.319.317a1.054,1.054,0,0,0,1.265-.692h.095c.379.085.632.122.632.122Z" transform="translate(-355.784 -287.431)" opacity="0.1"/>
    <path id="Path_1132" data-name="Path 1132" d="M698.058,535.174c-.19.866-5.528,1.13-5.528,1.13s-2.972-.285-3.8.407-3.283.528-3.378.528-1.386-.048-1.892-2.372.659-2.641.712-2.678h0a8.721,8.721,0,0,1,3.02.586c1.623.629,2.846-1.009,2.846-1.009l.906-1.727c.19.275.316.433.316.433a2.642,2.642,0,0,0,.806.935l-.9,1.9s.98.1,2.319.312a1.113,1.113,0,0,0,1.36-1.056,1.3,1.3,0,0,0,0-.143s.833.243,1.865.528A1.928,1.928,0,0,1,698.058,535.174Z" transform="translate(-355.412 -287.766)" fill="#626696"/>
    <path id="Path_1133" data-name="Path 1133" d="M719.641,444.735c-.127.766-.258,2.752-.258,2.752.448,1.664-.7,5.615-.7,5.615l-.574,2.255c.253,2.879-1.581,9.92-1.581,9.92s-1.228,6.529-1.865,9.344a7.744,7.744,0,0,0,.332,4.706l.047.116a.874.874,0,0,0,.037.158,1.66,1.66,0,0,0,.074.227,3.377,3.377,0,0,0,.627,1.056,3.111,3.111,0,0,0,.343.354h0a6.957,6.957,0,0,0,2.034,1.257h0l.321.127a9.9,9.9,0,0,0,1.017.317h.116l-.258,1.511-3.383-.872-4.532-1.474-2.2-1.236a1.408,1.408,0,0,1,.069-.354.115.115,0,0,0,0-.042,2.3,2.3,0,0,1,.069-.354,48.462,48.462,0,0,0,.78-11.621c-.527-5.055,1.581-12.033,2.071-13.691a8.3,8.3,0,0,0,.385-2.947c-.833-1.215-1.022-6.08-1.022-6.08s-1.533-3.138-2.8-6.465a16.548,16.548,0,0,1-.912-3.365,11.435,11.435,0,0,1-.184-2.456s10.281-9.407,11.409-.3c.037.312.074.6.111.893C720.215,442.458,719.762,443.99,719.641,444.735Z" transform="translate(-366.935 -240.201)" fill="#ffd2c6"/>
    <path id="Path_1134" data-name="Path 1134" d="M721.032,527.83l-.258,1.511-3.383-.871-4.532-1.474-2.229-1.278a1.411,1.411,0,0,1,.069-.354.114.114,0,0,0,0-.042,2.3,2.3,0,0,1,.069-.354h.316a4.155,4.155,0,0,1,1.9.259,4.548,4.548,0,0,0,1.9.46,2.4,2.4,0,0,1,1.085-.19l.469-1.056.074-.159a3.318,3.318,0,0,0,.627,1.056,4.049,4.049,0,0,0,.364.375v.364l-.026.528a6.592,6.592,0,0,0,1.628.75.934.934,0,0,0,.453,0h0l.322.127a9.847,9.847,0,0,0,1.017.317h0Z" transform="translate(-368.326 -285.048)" opacity="0.1"/>
    <path id="Path_1135" data-name="Path 1135" d="M719.007,531.44c-.943-.269-3.22-.708-3.589-.37s-3.525,0-3.525,0a1.918,1.918,0,0,1-1.628-.956c-.659-1.025-.126-4.336-.126-4.336h.232l.39-.042h0a4.208,4.208,0,0,1,1.9.254,4.5,4.5,0,0,0,1.9.465,2.353,2.353,0,0,1,1.086-.2l.527-1.188a3.376,3.376,0,0,0,.627,1.056,3.455,3.455,0,0,0,.364.37l-.047.882a6.738,6.738,0,0,0,1.628.755.658.658,0,0,0,.78-.248.623.623,0,0,0,.058-.132h0a5.821,5.821,0,0,0,1.339.444h0a2.446,2.446,0,0,1,2.635,1.88C724.055,531.551,719.95,531.71,719.007,531.44Z" transform="translate(-367.997 -285.421)" fill="#626696"/>
    <path id="Path_1136" data-name="Path 1136" d="M696.727,434.43l-.585.18a8.158,8.158,0,0,1-1.407.3,58.492,58.492,0,0,1-9.586.069,16.194,16.194,0,0,1,.174-1.891l10.913-1.453A8.287,8.287,0,0,1,696.727,434.43Z" transform="translate(-356.273 -241.337)" opacity="0.1"/>
    <path id="Path_1137" data-name="Path 1137" d="M705.393,418.445s-4,.623-7.267,1.336c-1.086.238-2.108.491-2.84.729a8.643,8.643,0,0,1-1.407.3,61.1,61.1,0,0,1-10.081.037c-1.771-5.758,2.15-13.01,2.15-13.01a7.38,7.38,0,0,1,.817-2.345v-.058l.558-2.055H702.21l.184.882.38,1.8,2.34,11.129Z" transform="translate(-355.417 -228.009)" fill="#626696"/>
    <path id="Path_1138" data-name="Path 1138" d="M719.238,434.171l-.089.037-1.744.776c-1.886.872-7.53,1.056-9.485,1.056a11.418,11.418,0,0,1-.184-2.456s10.281-9.408,11.409-.3C719.164,433.59,719.2,433.9,719.238,434.171Z" transform="translate(-366.954 -240.244)" opacity="0.1"/>
    <path id="Path_1139" data-name="Path 1139" d="M711.165,421.043l-.364.164-1.744.777c-1.918.887-7.746,1.056-9.612,1.056h-.49a2.22,2.22,0,0,1-1.723-1.056c0-.116-.089-.687-.163-1.173-.069-.391-.121-.729-.121-.729a46.039,46.039,0,0,1-5.8-3.006c-1.46-1-1.091-8.092-.812-11.658.1-1.231.19-2.039.19-2.039l15.071.882,2.108.121,1.207.269.322.069s.87,6.338,1.3,6.867.148,2.3.095,3.317a6.047,6.047,0,0,1-.142,1.294,8.008,8.008,0,0,1,.48,2.768A5.542,5.542,0,0,0,711.165,421.043Z" transform="translate(-358.606 -228.009)" fill="#626696"/>
    <ellipse id="Ellipse_62" data-name="Ellipse 62" cx="6.176" cy="6.191" rx="6.176" ry="6.191" transform="translate(330.247 128.048)" fill="#ffd2c6"/>
    <path id="Path_1140" data-name="Path 1140" d="M689.19,330.375s.427,5.863-.769,7.21a54.484,54.484,0,0,1-4.311,3.888l.959,3.983,5.412.623,6.324-6.766-1.439-1.748s-1.1-3.745-.195-5.615S689.19,330.375,689.19,330.375Z" transform="translate(-355.781 -193.558)" fill="#ffd2c6"/>
    <path id="Path_1141" data-name="Path 1141" d="M715.329,348.477h0l-.332.528-1.913-.528-1.344-5.029.079-1.458.4-.57s2.108.047,2.018,1.97A16.863,16.863,0,0,0,715.329,348.477Z" transform="translate(-368.852 -198.777)" opacity="0.1"/>
    <path id="Path_1142" data-name="Path 1142" d="M709.137,405.479s-1.523.338-3.267.565-3.757.349-4.585-.137c-1.386-.824-8.9-.586-11.066-.5h-.369l.559-2.055H705.3l.184.882,2.108.121,1.207.269C709.016,405.141,709.137,405.479,709.137,405.479Z" transform="translate(-358.497 -227.995)" opacity="0.1"/>
    <path id="Path_1143" data-name="Path 1143" d="M694.743,342.13s2.108.048,2.013,1.97a17.738,17.738,0,0,0,1.149,5.229l-.48,1.1s-.669,2.689-.142,3.359,2.44.671,1.338,6.191c0,0-.237,4.131.337,5.472s.574,4.559,1.433,5.905a31.92,31.92,0,0,1,2.013,4.463s-6.224,1.389-7.852.433-11.635-.481-11.635-.481.047-1.68,0-1.875a1.556,1.556,0,0,1,.237-1.22c.337-.46.864-1.225.574-1.9s.717-1.664.19-2.7-1.165-1.246-1.054-1.817a2.449,2.449,0,0,0-.59-1.817c-.379-.481-2.967-5.551-2.967-5.551l-.432-2.366s-3.331-2.446-3.267-3.6a6.819,6.819,0,0,1,1.259-2.752l3.2-3.169s1.776,1.917,3.5,1.247S689,344.37,689,344.37s1.323-.718,1.417-1.247.912-.047.912-.047,1.2-.66,1.433-.428a4.211,4.211,0,0,0,1.3.428Z" transform="translate(-351.76 -199.112)" fill="#ffcde5"/>
    <path id="Path_1144" data-name="Path 1144" d="M663.756,361.06l-1.017.8a13.524,13.524,0,0,0-1.281,5.229,69.13,69.13,0,0,1-1.291,8.1l-2.013,3.608s-3.3,6.957-3.736,8.805a23.114,23.114,0,0,1-2.392,4.97s-6.656,6-2.013,7.078,4.79-4.754,4.79-4.754a6.863,6.863,0,0,0,1.259-2.018c.206-.819,6.065-11.256,6.065-11.256s2.06-2.81,1.628-4.3c0,0,2.682-6.339,2.682-7.923a27.917,27.917,0,0,0-.432-3.951l.432-3.312Z" transform="translate(-338.874 -208.043)" fill="#ffd2c6"/>
    <path id="Path_1145" data-name="Path 1145" d="M698.61,386.11a47.773,47.773,0,0,1-5.6,2.594c-.912.132,3.973-.528,3.973-.528Z" transform="translate(-359.937 -219.861)" opacity="0.1"/>
    <path id="Path_1146" data-name="Path 1146" d="M702.958,389.74s-6.223,2.113-8.958,1.733C694,391.462,700.808,392.767,702.958,389.74Z" transform="translate(-360.46 -221.574)" opacity="0.1"/>
    <path id="Path_1147" data-name="Path 1147" d="M703.746,391.05s-5.607,3.534-8.906,2.958c0,0,7.709,1.537,8.906.718l-3.446-.956S704.125,391.737,703.746,391.05Z" transform="translate(-360.857 -222.192)" opacity="0.1"/>
    <path id="Path_1148" data-name="Path 1148" d="M683.883,304.729a5.817,5.817,0,0,0-4.743.893c-.959.755-1.581,1.912-2.677,2.477a14.317,14.317,0,0,1-1.749.618,5.068,5.068,0,0,0-3.083,5.451c.169.951.611,1.828.833,2.768a10.905,10.905,0,0,1-.379,5.1,53.806,53.806,0,0,1-5.322,13.232,1.407,1.407,0,0,0-.263.887,1.306,1.306,0,0,0,.327.565c2.213,2.562,5.8,3.444,9.2,3.56a7.089,7.089,0,0,0,3.647-.607,5.528,5.528,0,0,0,1.776-1.632,8.687,8.687,0,0,0,1.655-5.578c-.09-1.611-.627-3.238-.221-4.8a1.227,1.227,0,0,1,.285-.586c.364-.375.97-.275,1.486-.338,1.407-.164,2.313-1.648,2.482-3.058a33.243,33.243,0,0,0-.195-4.226,8.92,8.92,0,0,1,1.67-5.224,5.767,5.767,0,0,0,1.223-2.086,3.448,3.448,0,0,0-.891-2.557c-.785-1.247-1.17-2.7-2.366-3.65a6.376,6.376,0,0,0-2.687-1.21Z" transform="translate(-347.45 -181.387)" opacity="0.1"/>
    <path id="Path_1149" data-name="Path 1149" d="M683.181,304a5.786,5.786,0,0,0-4.711.893c-.959.761-1.581,1.917-2.682,2.483a15.292,15.292,0,0,1-1.75.613,5.068,5.068,0,0,0-3.083,5.441c.169.951.611,1.828.833,2.768a10.839,10.839,0,0,1-.379,5.1,53.71,53.71,0,0,1-5.317,13.205,1.355,1.355,0,0,0-.264.887,1.221,1.221,0,0,0,.321.565c2.213,2.567,5.8,3.444,9.2,3.56a7.126,7.126,0,0,0,3.646-.6,5.6,5.6,0,0,0,1.776-1.637,8.694,8.694,0,0,0,1.649-5.578c-.095-1.585-.632-3.238-.227-4.8a1.328,1.328,0,0,1,.285-.586c.369-.375.97-.275,1.491-.333,1.4-.164,2.308-1.653,2.477-3.058a34.284,34.284,0,0,0-.19-4.226,8.866,8.866,0,0,1,1.671-5.219,5.817,5.817,0,0,0,1.222-2.113,3.481,3.481,0,0,0-.9-2.557c-.785-1.241-1.17-2.7-2.366-3.65A6.373,6.373,0,0,0,683.181,304Z" transform="translate(-347.132 -181.045)" fill="#985c7e"/>
    <path id="Path_1150" data-name="Path 1150" d="M694.84,417.76s1.228,5.763,3.273,7.326Z" transform="translate(-360.857 -234.793)" opacity="0.1"/>
    <g id="Group_2677" data-name="Group 2677" transform="translate(318.685 128.687)" opacity="0.1">
      <path id="Path_1151" data-name="Path 1151" d="M676.056,323.861c-.063-.222-.137-.449-.216-.671C675.924,323.417,675.977,323.618,676.056,323.861Z" transform="translate(-670.554 -318.864)"/>
      <path id="Path_1152" data-name="Path 1152" d="M688.78,315a2.124,2.124,0,0,1,0,.528,5.62,5.62,0,0,1-1.223,2.086,8.935,8.935,0,0,0-1.671,5.224,35.72,35.72,0,0,1,.19,4.226c-.169,1.389-1.054,2.895-2.477,3.053-.527.063-1.122-.037-1.486.338a1.338,1.338,0,0,0-.29.586c-.406,1.558.137,3.169.227,4.8a8.693,8.693,0,0,1-1.676,5.573,5.468,5.468,0,0,1-1.776,1.632,7.061,7.061,0,0,1-3.641.607c-3.325-.111-6.85-.972-9.085-3.439a.879.879,0,0,0-.053.465,1.22,1.22,0,0,0,.321.565c2.213,2.567,5.8,3.444,9.2,3.56a7.126,7.126,0,0,0,3.647-.6,5.6,5.6,0,0,0,1.776-1.637,8.692,8.692,0,0,0,1.649-5.578c-.095-1.585-.632-3.238-.226-4.8a1.327,1.327,0,0,1,.285-.586c.369-.375.97-.275,1.491-.333,1.4-.164,2.308-1.653,2.477-3.058a34.331,34.331,0,0,0-.19-4.226,8.867,8.867,0,0,1,1.67-5.219,5.816,5.816,0,0,0,1.223-2.113A2.376,2.376,0,0,0,688.78,315Z" transform="translate(-665.81 -315)"/>
    </g>
    <ellipse id="Ellipse_63" data-name="Ellipse 63" cx="11.151" cy="1.13" rx="11.151" ry="1.13" transform="translate(56.925 263.028)" fill="#9bc93a" opacity="0.1"/>
    <path id="Path_1153" data-name="Path 1153" d="M189.395,536.09s-14.544,7.532-7.03,16.375a2.793,2.793,0,0,0,2.751,1.791s-.411-.745,1.154-1.342a7.6,7.6,0,0,0,1.581-.835,3.7,3.7,0,0,0,1.407-1.886h0s2.977-3.988.669-11.367c0,0,.3-2.113.037-2.424l-1.765,2.424a4.966,4.966,0,0,1,2.039,3.037s-1.9-3.032-2.319-2.683c-.084.069-.875,1.326-.875,1.326s3.162,2.155,3.4,4.949c0,0-1.781-3.914-3.689-4.474l-1.086,1.97s3.457,2.113,3.847,5.282c0,0-2.008-4.025-4.058-4.833l-.806,2.081s3.33,2.113,3.636,4.754c0,0-2.788-4.416-3.789-4.273a10.107,10.107,0,0,0-.527,2.556s2.361,1.585,2.4,3.132c0,0-2.176-2.757-2.514-2.572a11.822,11.822,0,0,0,.527,4.226,8.415,8.415,0,0,1-.964-4.226,4.592,4.592,0,0,0-1.391,2.25s-.627-1.527,1.433-2.921a10.708,10.708,0,0,1,.432-2.419,9.891,9.891,0,0,0-3.162,2.43s.348-2,3.373-2.99l.769-2.113s-3.025,1.284-3.963,2.414c0,0,.674-1.981,4.216-2.932l1.054-1.944a17.121,17.121,0,0,0-4,1.944s1.017-1.706,4.321-2.488l.854-1.22s-1.955.7-2.5.951-.653.127-.653.127a6.991,6.991,0,0,1,3.5-1.585A16.526,16.526,0,0,0,189.395,536.09Z" transform="translate(-117.419 -290.62)" fill="#9bc93a"/>
    <path id="Path_1154" data-name="Path 1154" d="M224.049,491.7c1.523.9,3.9,1.49,6.9-.449l-.032,4.284c.216,2.942,3.836,13.644,3.836,13.644l2.556,8.811a69.045,69.045,0,0,1,2.814,19.158,18.348,18.348,0,0,0,.817,6.032c1.36,3.7-.527,8.451-1.36,10.21a42.47,42.47,0,0,1-4.216,1.188,2.889,2.889,0,0,0-.379.116v-.026s-3.836,1.527-5.544,1.315a1.49,1.49,0,0,0-1.054,2.6,7.714,7.714,0,0,1-2.556.338c-1.707-.211-2.556,2.731.638,3.571s21.321,0,21.321,0a2.58,2.58,0,0,0,1.365-2.847c1.391-.053,2.261-.1,2.261-.1s3.2-1.468,0-5.456l-.169.132-.685-2.018v-2.731s4.052-19.544,2.772-21.826-1.918-14.061-1.918-14.061l.427-12.8c1.154-2.393,1.75-6.138,2.05-9.069a19.363,19.363,0,0,0,.817-4.305c.047-.687.09-1.41.116-2.16a14.53,14.53,0,0,0-.775-4.833,47.755,47.755,0,0,1,4.827-6.08,6.236,6.236,0,0,0,1.918-5.456l-1.054-7.136L257.185,449.6c.321-3.381-.379-5.324-1.159-6.423.184-1.088.358-2.181.49-3.275a42.01,42.01,0,0,0-.748-14.262,9.686,9.686,0,0,0-2.013-4.543c-1.3-1.4-3.394-2.255-3.873-4.088a13.328,13.328,0,0,0-.3-1.379c-.469-1.2-1.95-1.637-3.246-1.8-2.308-.28-5.644-.5-7.862.412a9.545,9.545,0,0,0-4.527,4.257,3.657,3.657,0,0,0-.527,2.641,3.47,3.47,0,0,0,.369.893,8.056,8.056,0,0,0-.527,2.815,8.192,8.192,0,0,0,5.217,7.6c.047.159.095.317.137.475a7.935,7.935,0,0,1,.206,1.141c-.037.745-.084,1.49-.121,2.229a2.519,2.519,0,0,1-.079.3,54.662,54.662,0,0,0-5.359,2.741c1.281,1.886-.211,9.862-.211,9.862-3.2,1.891-6.4,6.719-2.988,11.753a12.467,12.467,0,0,1,1.491,10.432l-.527,8.208h0l-.105,1.637h.042l-.042.623h.09v.671a9.823,9.823,0,0,0-4.99,3.7,13.247,13.247,0,0,1-2.234,2.747,1.65,1.65,0,0,0,.258,2.736Zm25.742-21.8a7.807,7.807,0,0,1,.759-4.125h1.507c.053.354.111.692.184,1C252.674,468.64,250.946,469.522,249.792,469.9Z" transform="translate(-137.746 -232.826)" fill="url(#linear-gradient)"/>
    <path id="Path_1155" data-name="Path 1155" d="M259.206,672.728l.822,2.467-2.656,2.673-8.821,2.055-6.36-.618.411-2.261h0a2.717,2.717,0,0,1,2.018-1.991c2.635-.618,7.6-2.018,8.647-3.972Z" transform="translate(-146.738 -354.307)" fill="#db8b8b"/>
    <path id="Path_1156" data-name="Path 1156" d="M259.206,672.728l.822,2.467-2.656,2.673-8.821,2.055-6.36-.618.411-2.261h0a2.717,2.717,0,0,1,2.018-1.991c2.635-.618,7.6-2.018,8.647-3.972Z" transform="translate(-146.738 -354.307)" opacity="0.1"/>
    <path id="Path_1157" data-name="Path 1157" d="M239.959,681.815l1.233-1.648-1.233-1.9s-3.689,1.49-5.333,1.284-2.461,2.678.617,3.5,20.515,0,20.515,0,3.077-1.437,0-5.346l-2.656,2.055s-4.516,2.472-6.772,2.06Z" transform="translate(-142.468 -357.43)" fill="#2e3037"/>
    <path id="Path_1158" data-name="Path 1158" d="M235.55,684.76l6.36.613,8.821-2.055,2.666-2.673-.216-.655-.306-.919-.3-.893-5.949-1.648a3.691,3.691,0,0,1-1.207,1.215c-1.934,1.321-5.407,2.276-7.441,2.757l-.258.074a2.707,2.707,0,0,0-1.786,1.917Z" transform="translate(-143.597 -356.878)" fill="#db8b8b"/>
    <path id="Path_1159" data-name="Path 1159" d="M235.55,687.85l6.36.613,8.821-2.055,2.666-2.673-.216-.655-2.45,1.886s-4.511,2.472-6.772,2.06h-6.355l1.228-1.648-1.107-1.711a2.707,2.707,0,0,0-1.786,1.917Z" transform="translate(-143.597 -359.968)" opacity="0.1"/>
    <path id="Path_1160" data-name="Path 1160" d="M233.343,687.265l1.228-1.648-1.228-1.9S229.654,685.2,228,685s-2.461,2.678.617,3.5,20.515,0,20.515,0,3.077-1.437,0-5.346l-2.666,2.033s-4.511,2.472-6.772,2.06Z" transform="translate(-139.335 -360.001)" fill="#2e3037"/>
    <path id="Path_1161" data-name="Path 1161" d="M249.18,455.4s9.849,1.025,8.431-3.085a7.492,7.492,0,0,1-.306-3.634,10.107,10.107,0,0,1,1.744-4.184l-9.232,1.442a11.69,11.69,0,0,1,1.249,2.969A6.1,6.1,0,0,1,249.18,455.4Z" transform="translate(-150.045 -247.409)" fill="#db8b8b"/>
    <path id="Path_1162" data-name="Path 1162" d="M270.381,553.9s-.205,8.842-2.255,13.163l-.432,12.54s.617,11.515,1.844,13.781-2.666,21.387-2.666,21.387v3.285s-6.561,2.472-8.431-.407l1.876-24.472-.806-33.943Z" transform="translate(-154.425 -299.023)" fill="#474463"/>
    <path id="Path_1163" data-name="Path 1163" d="M270.381,553.9s-.205,8.842-2.255,13.163l-.432,12.54s.617,11.515,1.844,13.781-2.666,21.387-2.666,21.387v3.285s-6.561,2.472-8.431-.407l1.876-24.472-.806-33.943Z" transform="translate(-154.425 -299.023)" opacity="0.1"/>
    <path id="Path_1164" data-name="Path 1164" d="M280.6,500.17l1.228,3.291,1.028,6.994a6.189,6.189,0,0,1-1.844,5.346,58.788,58.788,0,0,0-5.744,7.612l-3.9-11.711s3.9-.618,3.283-3.291a38.27,38.27,0,0,1-.411-7.611Z" transform="translate(-160.541 -273.673)" fill="#fc6681"/>
    <path id="Path_1165" data-name="Path 1165" d="M280.6,500.17l1.228,3.291,1.028,6.994a6.189,6.189,0,0,1-1.844,5.346,58.788,58.788,0,0,0-5.744,7.612l-3.9-11.711s3.9-.618,3.283-3.291a38.27,38.27,0,0,1-.411-7.611Z" transform="translate(-160.541 -273.673)" opacity="0.05"/>
    <path id="Path_1166" data-name="Path 1166" d="M254.29,677.745c2.635,4.152,6.724,1.8,7.451,1.326l-.3-.893L255.5,676.53A3.692,3.692,0,0,1,254.29,677.745Z" transform="translate(-152.462 -356.878)" opacity="0.1"/>
    <path id="Path_1167" data-name="Path 1167" d="M238.67,548.689c.206,2.879,3.689,13.369,3.689,13.369l2.461,8.631a68.591,68.591,0,0,1,2.7,18.773,18.529,18.529,0,0,0,.806,5.911c1.644,4.521-1.639,10.691-1.639,10.691,2.872,5.14,7.794,1.648,7.794,1.648v-3.291s3.9-17.891,2.872-21.387-1.433-12.957-1.433-12.957V553.01a19.416,19.416,0,0,0,5.607-12.286c.053-.671.09-1.379.116-2.113.169-4.643-3-10.078-4.216-12.022-.3-.465-.48-.729-.48-.729l-18.138,7.2h-.042v2.261Z" transform="translate(-145.073 -285.794)" fill="#474463"/>
    <path id="Path_1168" data-name="Path 1168" d="M250.35,445.942a11.69,11.69,0,0,1,1.249,2.969,7.966,7.966,0,0,0,6.239-.227,10.107,10.107,0,0,1,1.744-4.184Z" transform="translate(-150.598 -247.409)" opacity="0.1"/>
    <ellipse id="Ellipse_64" data-name="Ellipse 64" cx="7.999" cy="8.018" rx="7.999" ry="8.018" transform="translate(95.852 185.581)" fill="#db8b8b"/>
    <path id="Path_1169" data-name="Path 1169" d="M238.67,535.316h.084c8.605,1.77,19.4-7.215,19.4-7.215a11.021,11.021,0,0,1-.748-1.532c-.3-.465-.48-.729-.48-.729l-18.117,7.215-.047.719Z" transform="translate(-145.073 -285.784)" opacity="0.1"/>
    <path id="Path_1170" data-name="Path 1170" d="M238.939,460.454s11.488-6.994,15.182-4.115l5.127,6.581s3.283,1.025,2.666,7.606l2.461,11.927L257,484.308s-4.358,4.11-.854,10.084c0,0-10.871,9.048-19.5,7.2l.611-9.666a12.532,12.532,0,0,0-1.433-10.279c-3.283-4.934-.206-9.666,2.872-11.52C238.707,470.094,240.146,462.3,238.939,460.454Z" transform="translate(-143.061 -252.667)" fill="#fc6681"/>
    <path id="Path_1171" data-name="Path 1171" d="M233.667,544.17s-4.305.819-6.36,4.109a12.705,12.705,0,0,1-2.145,2.689,1.634,1.634,0,0,0,.253,2.6c1.628.977,4.284,1.585,7.636-1.178C238.794,547.661,233.667,544.17,233.667,544.17Z" transform="translate(-138.431 -294.432)" fill="#db8b8b"/>
    <path id="Path_1172" data-name="Path 1172" d="M247.587,472s4.105-.412,5.127,10.284,2.666,13.163,2.666,13.163,1.028,5.552-1.433,8.842-7.183,10.279-7.183,10.279-5.127,1.442-6.155-3.7l6.36-11.927s1.028-4.11-1.433-6.988S241.227,469.948,247.587,472Z" transform="translate(-145.991 -260.312)" opacity="0.1"/>
    <path id="Path_1173" data-name="Path 1173" d="M246.807,470.86s4.105-.412,5.127,10.279,2.672,13.163,2.672,13.163,1.022,5.552-1.439,8.842-7.183,10.279-7.183,10.279-5.127,1.442-6.155-3.7L246.19,497.8s1.028-4.115-1.433-6.993S240.447,468.79,246.807,470.86Z" transform="translate(-145.622 -259.772)" fill="#fc6681"/>
    <path id="Path_1174" data-name="Path 1174" d="M246.615,485.57s-.411,6.376,1.433,9.872,1.85,8.018,0,10.49" transform="translate(-148.813 -266.785)" opacity="0.1"/>
    <path id="Path_1175" data-name="Path 1175" d="M244.7,467.657s1.644-1.643,6.36-1.849,6.772-1.648,6.772-1.648" transform="translate(-147.925 -256.684)" opacity="0.1"/>
    <path id="Path_1176" data-name="Path 1176" d="M255.4,418.055c1.244.153,2.672.581,3.12,1.759a13.1,13.1,0,0,1,.285,1.352c.464,1.8,2.482,2.641,3.726,4.009a9.551,9.551,0,0,1,1.939,4.448,41.924,41.924,0,0,1,.722,13.971c-.4,3.412-1.217,6.772-1.449,10.195s.19,7.03,2.06,9.909a24.293,24.293,0,0,1,2.429,3.7,7.09,7.09,0,0,1-4.311,1.146q-2.635.084-5.27,0a5.628,5.628,0,0,1-2.693-.56,4.122,4.122,0,0,1-1.412-1.521,10.913,10.913,0,0,1-1.223-5.773c.042-2,.358-3.972.4-5.963a5.373,5.373,0,0,0-.685-3.127,10.116,10.116,0,0,0-1.723-1.585c-2.192-1.949-2.946-5.081-3.02-8.018s.406-5.884.158-8.816c-.095-1.146-.527-2.525-1.649-2.747a7.137,7.137,0,0,1-1.054-.137c-.906-.349-.817-1.627-1.054-2.562-.29-1.056-1.18-1.859-1.433-2.921-.59-2.488,2.566-5.456,4.637-6.339S253.173,417.78,255.4,418.055Z" transform="translate(-147.208 -234.824)" opacity="0.1"/>
    <path id="Path_1177" data-name="Path 1177" d="M255.763,417.283c1.244.159,2.666.586,3.12,1.759a12.929,12.929,0,0,1,.285,1.358c.464,1.8,2.482,2.641,3.726,4a9.551,9.551,0,0,1,1.939,4.448,41.925,41.925,0,0,1,.722,13.971c-.4,3.412-1.217,6.772-1.449,10.195s.19,7.03,2.06,9.909a24.291,24.291,0,0,1,2.429,3.7,7.09,7.09,0,0,1-4.311,1.146q-2.635.084-5.3,0a5.626,5.626,0,0,1-2.693-.56,4.148,4.148,0,0,1-1.412-1.516,10.892,10.892,0,0,1-1.223-5.779c.042-2,.358-3.972.4-5.963a5.382,5.382,0,0,0-.685-3.127,10.334,10.334,0,0,0-1.723-1.585c-2.192-1.949-2.951-5.076-3.025-8.018s.411-5.884.163-8.816c-.095-1.146-.527-2.525-1.649-2.747a7.141,7.141,0,0,1-1.054-.137c-.906-.349-.817-1.627-1.054-2.562-.29-1.056-1.18-1.859-1.433-2.921-.59-2.483,2.566-5.456,4.637-6.339S253.539,417.029,255.763,417.283Z" transform="translate(-147.369 -234.464)" fill="#472727"/>
    <ellipse id="Ellipse_65" data-name="Ellipse 65" cx="12.647" cy="1.743" rx="12.647" ry="1.743" transform="translate(493.843 364.133)" fill="#9bc93a" opacity="0.1"/>
    <ellipse id="Ellipse_66" data-name="Ellipse 66" cx="12.647" cy="1.743" rx="12.647" ry="1.743" transform="translate(445.394 369.061)" fill="#9bc93a" opacity="0.1"/>
    <ellipse id="Ellipse_67" data-name="Ellipse 67" cx="12.647" cy="1.743" rx="12.647" ry="1.743" transform="translate(388.329 362.395)" fill="#9bc93a" opacity="0.1"/>
    <ellipse id="Ellipse_68" data-name="Ellipse 68" cx="8.99" cy="1.236" rx="8.99" ry="1.236" transform="translate(468.443 383.587)" fill="#9bc93a" opacity="0.1"/>
    <ellipse id="Ellipse_69" data-name="Ellipse 69" cx="8.99" cy="1.236" rx="8.99" ry="1.236" transform="translate(418.16 382.345)" fill="#9bc93a" opacity="0.1"/>
    <path id="Path_1178" data-name="Path 1178" d="M881.4,686.645s17.738-58.283-2.777-81.63c-15.345-17.463-32.761-15.376-40.576-13.206a14.432,14.432,0,0,0-9.306,7.754c-2.724,5.9-2.234,15.471,17.021,26.643,32.234,18.7,34.253,44.37,34.253,44.37Z" transform="translate(-423.63 -316.237)" fill="#9bc93a"/>
    <path id="Path_1179" data-name="Path 1179" d="M852.77,608.71s52.291,16.375,40.576,86.579" transform="translate(-435.563 -324.881)" fill="none" stroke="#565987" stroke-miterlimit="10" stroke-width="1"/>
    <path id="Path_1180" data-name="Path 1180" d="M905.917,619.84s-7.2,4.859-4.911,12.149" transform="translate(-458.168 -330.132)" fill="none" stroke="#565987" stroke-miterlimit="10" stroke-width="1"/>
    <path id="Path_1181" data-name="Path 1181" d="M862.72,625.537s4.405-4.49,9.759-2.013" transform="translate(-440.27 -331.519)" fill="none" stroke="#565987" stroke-miterlimit="10" stroke-width="1"/>
    <path id="Path_1182" data-name="Path 1182" d="M902,669.433s7.725-3.93,9.722.993" transform="translate(-458.851 -352.829)" fill="none" stroke="#565987" stroke-miterlimit="10" stroke-width="1"/>
    <path id="Path_1183" data-name="Path 1183" d="M932.937,686.254s-5.8-.465-5.907,2.319" transform="translate(-470.691 -361.452)" fill="none" stroke="#565987" stroke-miterlimit="10" stroke-width="1"/>
    <path id="Path_1184" data-name="Path 1184" d="M902.974,736.479s-20.773-42.363-26.48-41.433c-2.709.438-3.958,3.111-4.527,5.81a17.083,17.083,0,0,0,1.133,10.311C876.041,717.934,883.945,730.807,902.974,736.479Z" transform="translate(-444.485 -365.607)" fill="#9bc93a"/>
    <path id="Path_1185" data-name="Path 1185" d="M881.15,710.28s21.806,31.693,26.021,33.087" transform="translate(-448.988 -372.801)" fill="none" stroke="#565987" stroke-miterlimit="10" stroke-width="1"/>
    <line id="Line_1" data-name="Line 1" x2="5.09" transform="translate(430.154 342.428)" fill="none" stroke="#565987" stroke-miterlimit="10" stroke-width="1"/>
    <line id="Line_2" data-name="Line 2" x2="7.978" y2="0.343" transform="translate(436.251 354.023)" fill="none" stroke="#565987" stroke-miterlimit="10" stroke-width="1"/>
    <line id="Line_3" data-name="Line 3" x1="0.864" y2="4.168" transform="translate(440.24 344.747)" fill="none" stroke="#565987" stroke-miterlimit="10" stroke-width="1"/>
    <line id="Line_4" data-name="Line 4" x1="0.153" y2="3.787" transform="translate(449.436 357.424)" fill="none" stroke="#565987" stroke-miterlimit="10" stroke-width="1"/>
    <path id="Path_1186" data-name="Path 1186" d="M929.94,736.479s20.773-42.363,26.48-41.433c2.714.438,3.963,3.111,4.527,5.81a17.083,17.083,0,0,1-1.133,10.311C956.847,717.934,948.942,730.807,929.94,736.479Z" transform="translate(-472.067 -365.607)" fill="#9bc93a"/>
    <path id="Path_1187" data-name="Path 1187" d="M956.546,710.28s-21.806,31.693-26.016,33.087" transform="translate(-472.347 -372.801)" fill="none" stroke="#565987" stroke-miterlimit="10" stroke-width="1"/>
    <line id="Line_5" data-name="Line 5" x1="5.09" transform="translate(481.112 342.428)" fill="none" stroke="#565987" stroke-miterlimit="10" stroke-width="1"/>
    <line id="Line_6" data-name="Line 6" x1="7.978" y2="0.343" transform="translate(472.127 354.023)" fill="none" stroke="#565987" stroke-miterlimit="10" stroke-width="1"/>
    <line id="Line_7" data-name="Line 7" x2="0.864" y2="4.168" transform="translate(475.252 344.747)" fill="none" stroke="#565987" stroke-miterlimit="10" stroke-width="1"/>
    <line id="Line_8" data-name="Line 8" x2="0.153" y2="3.787" transform="translate(466.768 357.424)" fill="none" stroke="#565987" stroke-miterlimit="10" stroke-width="1"/>
    <path id="Path_1188" data-name="Path 1188" d="M861.144,787.115a3.6,3.6,0,0,1-1.18-1.791,1.586,1.586,0,0,1,.827-1.822,2.3,2.3,0,0,1,2.182.771,2.892,2.892,0,0,0,2.108,1.03,3.264,3.264,0,0,1-1-3.037,1.28,1.28,0,0,1,.279-.613c.422-.454,1.186-.259,1.692.1,1.581,1.13,2.05,3.317,2.06,5.282a9.994,9.994,0,0,0,0-2.176,2.237,2.237,0,0,1,.817-1.923,2.445,2.445,0,0,1,1.244-.3,2.578,2.578,0,0,1,2.018.576,2.015,2.015,0,0,1-.079,2.483A7.723,7.723,0,0,1,870,787.369a4.693,4.693,0,0,0-1.491,1.426,1.839,1.839,0,0,0-.111.254h-4.516a12.482,12.482,0,0,1-2.74-1.933Z" transform="translate(-438.942 -406.349)" fill="#9bc93a"/>
    <path id="Path_1189" data-name="Path 1189" d="M1011.364,754.839a3.6,3.6,0,0,1-1.18-1.791,1.586,1.586,0,0,1,.822-1.817,2.3,2.3,0,0,1,2.187.766,3.032,3.032,0,0,0,2.108,1.056,3.263,3.263,0,0,1-1-3.037,1.278,1.278,0,0,1,.279-.612c.422-.454,1.186-.259,1.692.1,1.581,1.13,2.05,3.317,2.06,5.282a10.007,10.007,0,0,0,0-2.176,2.237,2.237,0,0,1,.817-1.923,2.444,2.444,0,0,1,1.244-.3,2.557,2.557,0,0,1,2.013.576,2.008,2.008,0,0,1-.079,2.483,7.7,7.7,0,0,1-2.108,1.674,4.7,4.7,0,0,0-1.491,1.426,1.86,1.86,0,0,0-.11.253H1014.1A12.485,12.485,0,0,1,1011.364,754.839Z" transform="translate(-510.001 -391.134)" fill="#9bc93a"/>
    <path id="Path_1190" data-name="Path 1190" d="M961.3,787.115a3.608,3.608,0,0,1-1.186-1.791,1.586,1.586,0,0,1,.827-1.822,2.317,2.317,0,0,1,2.187.771,2.9,2.9,0,0,0,2.108,1.03,3.243,3.243,0,0,1-1-3.037,1.233,1.233,0,0,1,.279-.613c.422-.454,1.18-.259,1.686.1,1.581,1.13,2.055,3.317,2.06,5.282a10,10,0,0,0,.031-2.176,2.232,2.232,0,0,1,.812-1.923,2.46,2.46,0,0,1,1.244-.3,2.572,2.572,0,0,1,2.018.576,2.015,2.015,0,0,1-.079,2.483,7.78,7.78,0,0,1-2.108,1.674,4.585,4.585,0,0,0-1.491,1.426,1.346,1.346,0,0,0-.111.253h-4.521A12.449,12.449,0,0,1,961.3,787.115Z" transform="translate(-486.316 -406.349)" fill="#9bc93a"/>
    <path id="Path_1191" data-name="Path 1191" d="M817,726.94s-1.7,2.218.78,5.573,4.521,6.185,3.689,8.277c0,0-3.736-6.228-6.777-6.339S813.657,730.669,817,726.94Z" transform="translate(-416.844 -380.661)" fill="#9bc93a"/>
    <path id="Path_1192" data-name="Path 1192" d="M817.007,726.94a2.641,2.641,0,0,0-.348.7c-2.967,3.491-4.548,6.756-1.7,6.835,2.661.079,5.849,4.844,6.608,6.043a1.673,1.673,0,0,1-.089.275s-3.736-6.228-6.777-6.339S813.66,730.669,817.007,726.94Z" transform="translate(-416.847 -380.661)" opacity="0.1"/>
    <path id="Path_1193" data-name="Path 1193" d="M814.44,731.854c0,.782.09,1.416.2,1.416s.195-.634.195-1.416-.105-.412-.216-.412S814.44,731.072,814.44,731.854Z" transform="translate(-417.432 -382.744)" fill="#ffd037"/>
    <path id="Path_1194" data-name="Path 1194" d="M812.016,733.588c.685.37,1.281.6,1.333.5s-.458-.475-1.143-.85-.416-.1-.469,0S811.331,733.213,812.016,733.588Z" transform="translate(-416.088 -383.542)" fill="#ffd037"/>
    <path id="Path_1195" data-name="Path 1195" d="M833.226,726.94s1.692,2.218-.785,5.573-4.516,6.185-3.689,8.277c0,0,3.736-6.228,6.782-6.339S836.572,730.669,833.226,726.94Z" transform="translate(-424.114 -380.661)" fill="#9bc93a"/>
    <path id="Path_1196" data-name="Path 1196" d="M833.309,726.94a2.735,2.735,0,0,1,.343.7c2.972,3.491,4.553,6.756,1.7,6.835-2.635.079-5.844,4.844-6.608,6.043a.884.884,0,0,0,.09.275s3.736-6.228,6.782-6.339S836.655,730.669,833.309,726.94Z" transform="translate(-424.196 -380.661)" opacity="0.1"/>
    <path id="Path_1197" data-name="Path 1197" d="M843.03,731.854c0,.782-.084,1.416-.195,1.416s-.2-.634-.2-1.416.111-.412.216-.412S843.03,731.072,843.03,731.854Z" transform="translate(-430.772 -382.744)" fill="#ffd037"/>
    <path id="Path_1198" data-name="Path 1198" d="M844.24,733.588c-.685.37-1.286.6-1.333.5s.459-.475,1.144-.85.416-.1.469,0S844.926,733.213,844.24,733.588Z" transform="translate(-430.896 -383.542)" fill="#ffd037"/>
    <path id="Path_1199" data-name="Path 1199" d="M826.534,750.318s-4.743-.148-6.166-1.167-7.288-2.234-7.641-.6-7.125,8.129-1.771,8.171,12.426-.835,13.854-1.706S826.534,750.318,826.534,750.318Z" transform="translate(-414.814 -390.48)" fill="#a8a8a8"/>
    <path id="Path_1200" data-name="Path 1200" d="M810.859,758.442c5.354.042,12.431-.834,13.859-1.706,1.08-.66,1.518-3.037,1.66-4.136h.158s-.3,3.829-1.723,4.7-8.505,1.748-13.854,1.706c-1.544,0-2.082-.565-2.05-1.379C809.125,758.125,809.71,758.431,810.859,758.442Z" transform="translate(-414.815 -392.767)" opacity="0.2"/>
    <ellipse id="Ellipse_70" data-name="Ellipse 70" cx="18.296" cy="2.71" rx="18.296" ry="2.71" transform="translate(69.862 370.255)" fill="#9bc93a" opacity="0.1"/>
    <ellipse id="Ellipse_71" data-name="Ellipse 71" cx="18.296" cy="2.71" rx="18.296" ry="2.71" transform="translate(114.164 394.579)" fill="#9bc93a" opacity="0.1"/>
    <ellipse id="Ellipse_72" data-name="Ellipse 72" cx="12.115" cy="1.358" rx="12.115" ry="1.358" transform="translate(315.797 332.551)" fill="#9bc93a" opacity="0.1"/>
    <ellipse id="Ellipse_73" data-name="Ellipse 73" cx="12.115" cy="1.358" rx="12.115" ry="1.358" transform="translate(259.164 371.607)" fill="#9bc93a" opacity="0.1"/>
    <ellipse id="Ellipse_74" data-name="Ellipse 74" cx="12.115" cy="1.358" rx="12.115" ry="1.358" transform="translate(233.633 395.931)" fill="#9bc93a" opacity="0.1"/>
  </g>
</svg>
