<svg xmlns="http://www.w3.org/2000/svg" xmlns:xlink="http://www.w3.org/1999/xlink" width="584" height="410" viewBox="0 0 584 410">
  <defs>
    <linearGradient id="linear-gradient" x1="31.936" y1="1" x2="31.936" gradientUnits="objectBoundingBox">
      <stop offset="0" stop-color="gray" stop-opacity="0.251"/>
      <stop offset="0.54" stop-color="gray" stop-opacity="0.122"/>
      <stop offset="1" stop-color="gray" stop-opacity="0.102"/>
    </linearGradient>
  </defs>
  <g id="Group_2678" data-name="Group 2678" transform="translate(-0.006 0.002)">
    <path id="Path_1060" data-name="Path 1060" d="M420.732,121.093c-25.059,17.531-57.562,16.4-86.045,7.277S280.04,103,252.289,91.461a267.921,267.921,0,0,0-72.4-18.858c-35.369-4.044-74.867.883-99.509,29.237C52.941,133.4,55.048,190.335,84.718,219.328c15.1,14.737,34.871,21.971,52.111,33.476s33.213,30.6,31.745,52.8c-1.36,20.574-17.165,36.34-33.522,46.242-12.64,7.65-28.207,16-29.729,31.852-1.474,15.333,11.616,27.347,24.116,34.18a137.066,137.066,0,0,0,131.66-.541c14.488-8.094,27.795-18.836,42.993-25.106,39.9-16.524,83.878.114,126.133,6.194a252.321,252.321,0,0,0,107.278-7.8c20.925-6.178,41.931-15.62,56.63-33.211,10.6-12.685,17.208-28.733,23.406-44.591q9.915-25.355,19.066-51.072c3.657-10.287,7.26-20.78,8.208-31.792,1.712-19.951-5.5-39.675-15.333-56.513-23.336-40.011-62.639-68.121-105.2-75.262s-87.594,6.806-120.607,37.325" transform="translate(-61.06 -71.37)" fill="#9bc93a" opacity="0.1"/>
    <g id="Group_2668" data-name="Group 2668" transform="translate(290.868 55.317)" opacity="0.1">
      <path id="Path_1061" data-name="Path 1061" d="M599.964,174.207,597.9,293.86s74.727,0,138.308,20.628l1.235-120.877S635.469,169.253,599.964,174.207Z" transform="translate(-597.9 -173.542)"/>
    </g>
    <path id="Path_1062" data-name="Path 1062" d="M596.964,170.207,594.9,289.86s74.726,0,138.308,20.628l1.235-120.877S632.469,165.253,596.964,170.207Z" transform="translate(-305.658 -116.391)" fill="#f7f7fd"/>
    <g id="Group_2669" data-name="Group 2669" transform="translate(117.938 58.75)" opacity="0.1">
      <path id="Path_1063" data-name="Path 1063" d="M416.209,180.542,418.273,300.2s-74.726,0-138.3,20.628L278.73,199.946S380.7,175.615,416.209,180.542Z" transform="translate(-278.73 -179.883)"/>
    </g>
    <path id="Path_1064" data-name="Path 1064" d="M419.209,175.542,421.273,295.2s-74.726,0-138.3,20.628L281.73,194.947S383.7,170.615,419.209,175.542Z" transform="translate(-162.166 -118.84)" fill="#f7f7fd"/>
    <g id="Group_2670" data-name="Group 2670" transform="translate(149.748 70.306)" opacity="0.2">
      <path id="Path_1065" data-name="Path 1065" d="M411.169,201.581l1.111,64.163s-40.094,0-74.174,11.061l-.666-64.824S392.13,198.939,411.169,201.581Z" transform="translate(-337.44 -201.227)" fill="#9bc93a"/>
    </g>
    <g id="Group_2671" data-name="Group 2671" transform="translate(474.454 99.994)" opacity="0.1">
      <path id="Path_1066" data-name="Path 1066" d="M936.74,256.06v118.4s24.381-2.891,75.555,60.233l4.54-118.4S963.576,258.946,936.74,256.06Z" transform="translate(-936.74 -256.06)"/>
    </g>
    <path id="Path_1067" data-name="Path 1067" d="M934.74,253.06v118.4s24.381-2.891,75.555,60.233l4.54-118.4S961.576,255.946,934.74,253.06Z" transform="translate(-461.369 -154.691)" fill="#f7f7fd"/>
    <g id="Group_2672" data-name="Group 2672" transform="translate(0.279 100.535)" opacity="0.1">
      <path id="Path_1068" data-name="Path 1068" d="M141.66,257.06v118.4S117.3,372.571,66.137,435.7l-4.567-118.4S114.824,259.946,141.66,257.06Z" transform="translate(-61.57 -257.06)"/>
    </g>
    <path id="Path_1069" data-name="Path 1069" d="M144.66,253.06v118.4S120.3,368.571,69.137,431.7l-4.567-118.4S117.824,255.946,144.66,253.06Z" transform="translate(-62.666 -154.691)" fill="#f7f7fd"/>
    <g id="Group_2673" data-name="Group 2673" transform="translate(311.272 78.705)" opacity="0.2">
      <path id="Path_1070" data-name="Path 1070" d="M574.5,145.37l50.621,9.047v7.369L574.5,152.073Z" transform="translate(-574.5 -145.37)" fill="#9bc93a"/>
    </g>
    <path id="Path_1071" data-name="Path 1071" d="M351.7,276.87l-50.616,9.047v7.369l50.616-9.713Z" transform="translate(-137.949 -126.969)" fill="#fff"/>
    <path id="Path_1072" data-name="Path 1072" d="M575.74,170.74l92.519,19.1V197.2L575.74,177.443Z" transform="translate(-263.796 -78.299)" fill="#fff"/>
    <path id="Path_1073" data-name="Path 1073" d="M575.74,196.11l92.519,19.09v7.374L575.74,202.807Z" transform="translate(-263.796 -89.933)" fill="#fff"/>
    <g id="Group_2674" data-name="Group 2674" transform="translate(494.946 136.604)" opacity="0.2">
      <path id="Path_1074" data-name="Path 1074" d="M913.5,252.31v6.5l19.846,16.113.932-5.577Z" transform="translate(-913.5 -252.31)" fill="#9bc93a"/>
    </g>
    <path id="Path_1075" data-name="Path 1075" d="M913.5,368.31v6.5l19.846,16.113.932-5.577Z" transform="translate(-418.554 -168.901)" fill="#fff"/>
    <path id="Path_1076" data-name="Path 1076" d="M913.814,272.91l-.314,6.508,37.52,35.317L950.4,307.3Z" transform="translate(-418.554 -125.153)" fill="#fff"/>
    <path id="Path_1077" data-name="Path 1077" d="M913.5,295.23v6.194l37.52,35.945v-8.056Z" transform="translate(-418.554 -135.388)" fill="#fff"/>
    <g id="Group_2675" data-name="Group 2675" transform="translate(22.899 138.012)" opacity="0.2">
      <path id="Path_1078" data-name="Path 1078" d="M79.466,254.91l.309,6.508L42.26,296.734l.618-7.434Z" transform="translate(-42.26 -254.91)" fill="#9bc93a"/>
    </g>
    <g id="Group_2676" data-name="Group 2676" transform="translate(22.899 150.096)" opacity="0.2">
      <path id="Path_1079" data-name="Path 1079" d="M79.775,277.23v6.194L42.26,319.368v-8.056Z" transform="translate(-42.26 -277.23)" fill="#9bc93a"/>
    </g>
    <ellipse id="Ellipse_60" data-name="Ellipse 60" cx="30.883" cy="5.555" rx="30.883" ry="5.555" transform="translate(79.979 331.141)" fill="#9bc93a" opacity="0.1"/>
    <path id="Path_1080" data-name="Path 1080" d="M123.556,636.84s2.975,3.887-1.376,9.745-7.938,10.828-6.5,14.488c0,0,6.561-10.9,11.92-11.056S129.435,643.424,123.556,636.84Z" transform="translate(-85.936 -330.686)" fill="#9bc93a"/>
    <path id="Path_1081" data-name="Path 1081" d="M123.709,636.84a4.67,4.67,0,0,1,.607,1.218c5.212,6.118,7.992,11.83,2.98,11.976-4.665.13-10.294,8.473-11.606,10.579.043.157.1.319.157.477,0,0,6.561-10.9,11.92-11.056S129.587,643.424,123.709,636.84Z" transform="translate(-86.088 -330.686)" opacity="0.1"/>
    <path id="Path_1082" data-name="Path 1082" d="M140.118,645.256c0,1.37-.152,2.48-.341,2.48s-.347-1.11-.347-2.48.2-.726.385-.726S140.118,643.88,140.118,645.256Z" transform="translate(-96.966 -334.142)" fill="#ffd037"/>
    <path id="Path_1083" data-name="Path 1083" d="M142.221,648.207c-1.2.655-2.254,1.05-2.346.888s.813-.834,2.015-1.489.726-.179.818,0S143.423,647.557,142.221,648.207Z" transform="translate(-97.167 -335.469)" fill="#ffd037"/>
    <path id="Path_1084" data-name="Path 1084" d="M95.815,636.84s-2.964,3.876,1.371,9.762,7.938,10.828,6.5,14.488c0,0-6.561-10.9-11.92-11.056S89.941,643.424,95.815,636.84Z" transform="translate(-73.917 -330.686)" fill="#9bc93a"/>
    <path id="Path_1085" data-name="Path 1085" d="M95.808,636.84a4.871,4.871,0,0,0-.607,1.218c-5.212,6.118-7.992,11.83-2.98,11.976,4.67.13,10.294,8.473,11.606,10.579a4.081,4.081,0,0,1-.157.477s-6.561-10.9-11.92-11.056S89.935,643.424,95.808,636.84Z" transform="translate(-73.911 -330.686)" opacity="0.1"/>
    <path id="Path_1086" data-name="Path 1086" d="M91.26,645.256c0,1.37.152,2.48.341,2.48s.347-1.11.347-2.48-.2-.726-.385-.726S91.26,643.88,91.26,645.256Z" transform="translate(-74.895 -334.142)" fill="#ffd037"/>
    <path id="Path_1087" data-name="Path 1087" d="M87.14,648.207c1.2.655,2.249,1.05,2.341.888s-.813-.834-2.016-1.489-.726-.179-.818,0S85.937,647.557,87.14,648.207Z" transform="translate(-72.671 -335.469)" fill="#ffd037"/>
    <path id="Path_1088" data-name="Path 1088" d="M93,676.884s8.322-.254,10.836-2.041,12.8-3.914,13.421-1.05,12.5,14.234,3.11,14.31-21.83-1.462-24.333-2.989S93,676.884,93,676.884Z" transform="translate(-75.692 -346.989)" fill="#a8a8a8"/>
    <path id="Path_1089" data-name="Path 1089" d="M120.539,690.9c-9.395.076-21.83-1.462-24.333-2.989-1.907-1.159-2.666-5.322-2.92-7.244H93.01s.542,6.708,3.029,8.23,14.938,3.064,24.333,2.989c2.709,0,3.652-.985,3.6-2.415C123.6,690.345,122.56,690.886,120.539,690.9Z" transform="translate(-75.697 -350.785)" opacity="0.2"/>
    <ellipse id="Ellipse_61" data-name="Ellipse 61" cx="50.93" cy="8.717" rx="50.93" ry="8.717" transform="translate(274.429 246.133)" fill="#9bc93a" opacity="0.1"/>
    <path id="Path_1090" data-name="Path 1090" d="M633.02,323.455a7.092,7.092,0,0,0-.542,1.662q-.049.217-.1.455c-.325,1.657-.542,3.741-.656,4.954-.054.606-.081,1-.081,1s-11.752-.785-9.715-2.756a4.328,4.328,0,0,0,1.083-1.949c.06-.211.108-.422.152-.639a10.943,10.943,0,0,0,.19-1.489v-.379a15.343,15.343,0,0,0-.114-2.431s3.82,0,6.7.309C631.882,322.411,633.394,322.795,633.02,323.455Z" transform="translate(-317.934 -186.25)" fill="#d38884"/>
    <path id="Path_1091" data-name="Path 1091" d="M602.354,396.835c-4-.13-1.051-8.462-.591-9.583s-.683-3.866-.683-3.866-1.354-7.937-1.354-8.457a21.192,21.192,0,0,0-.455-3.216,5.411,5.411,0,0,1,.542-3.151c.461-.72.39-3.606.39-3.606V361.22l.894-1.18,2.281,2.166.634.6,1.116,4.18-.4,5.988-.211,5.831,1.382,8.067S606.385,396.97,602.354,396.835Z" transform="translate(-307.64 -203.75)" fill="#d38884"/>
    <path id="Path_1092" data-name="Path 1092" d="M543.393,291.831l-3.413-1.418v-.552l.889-1.18,2.286,2.155Z" transform="translate(-247.411 -132.384)" opacity="0.1"/>
    <path id="Path_1093" data-name="Path 1093" d="M602.882,350.11a15.723,15.723,0,0,0-.948,3.346,14.825,14.825,0,0,1-.894,3.211l3.793,1.575Z" transform="translate(-308.471 -199.196)" fill="#4c4981"/>
    <path id="Path_1094" data-name="Path 1094" d="M602.882,350.11a15.723,15.723,0,0,0-.948,3.346,14.825,14.825,0,0,1-.894,3.211l3.793,1.575Z" transform="translate(-308.471 -199.196)" opacity="0.05"/>
    <path id="Path_1095" data-name="Path 1095" d="M649.194,480.125l-.314.671s-.341,2.225-.341,2.279-.986,1.538-.986,1.538l-2.476.541-1.051-.13a14.753,14.753,0,0,0-.282-1.819c-.038-.168-.076-.341-.125-.514a13.9,13.9,0,0,0-1.728-3.92s-1.837-4.526-2.492-5.116-3.153-6.562-2.888-8a41.96,41.96,0,0,0-.1-5.652c-.108-1.8-.228-3.319-.228-3.319L642.416,453l.726,1.142.434.677a3.112,3.112,0,0,1-.027.346v.081a11.556,11.556,0,0,1-.542,2.707s-.466,3.346,0,3.936,1.95,8.479,2.281,12.128v.33a7.321,7.321,0,0,0,2.216,4.266h0c.065.076.135.146.206.217A14.283,14.283,0,0,0,649.194,480.125Z" transform="translate(-324.572 -246.38)" fill="#d38884"/>
    <path id="Path_1096" data-name="Path 1096" d="M650.325,506.58l1.051.13,2.476-.541s.986-1.489.986-1.538.341-2.279.341-2.279l.314-.671.038-.081a13.147,13.147,0,0,1-1.7-1.4h0c-.06-.054-.119-.108-.173-.168a3.222,3.222,0,0,1-1.533,3.135c-.916.471-1.669.834-2.194,1.083Z" transform="translate(-330.872 -267.946)" opacity="0.1"/>
    <path id="Path_1097" data-name="Path 1097" d="M656.024,502.355l-.352.753s-.341,2.225-.341,2.279-.986,1.538-.986,1.538l-2.476.541-1.425-.168a9.408,9.408,0,0,0-.119-1.186c-.043-.3-.1-.628-.184-.985.542-.244,1.382-.644,2.46-1.2a3.068,3.068,0,0,0,1.533-3.135,14.925,14.925,0,0,0,1.3,1.148C655.688,502.122,655.9,502.268,656.024,502.355Z" transform="translate(-330.968 -268.295)" fill="#ceddf9"/>
    <path id="Path_1098" data-name="Path 1098" d="M656.18,503.327l-.352.753s-.341,2.225-.341,2.279-.986,1.538-.986,1.538l-2.476.541-1.425-.168a9.415,9.415,0,0,0-.119-1.186,4.941,4.941,0,0,1,.9.125s3.381.72,3.544-1.954c.1-1.516.412-2.112.661-2.344C655.844,503.094,656.055,503.24,656.18,503.327Z" transform="translate(-331.124 -269.268)" opacity="0.1"/>
    <path id="Path_1099" data-name="Path 1099" d="M655.275,501.757s-.84-.184-1.008,2.485-3.543,1.955-3.543,1.955-1.658-.411-1.674.276a6.425,6.425,0,0,0,.444,1.852,5.761,5.761,0,0,0,.412,1.971c.314.379.114,1.787.114,1.787s.13,1.05,2.742,0a7.6,7.6,0,0,0,4.264-3.378c.065-.1-.228-.4,1.463-1s6.5-4.494,6.155-6.394a1.625,1.625,0,0,0-1.149-1.364,1.978,1.978,0,0,0-1.512.206,11.975,11.975,0,0,1-1.414.65,6.95,6.95,0,0,1-2.016.482,7.761,7.761,0,0,0-1.566.3A3.252,3.252,0,0,1,655.275,501.757Z" transform="translate(-330.469 -267.877)" fill="#cc8294"/>
    <path id="Path_1100" data-name="Path 1100" d="M610.4,467.181a4.6,4.6,0,0,0-.954,1.083c-.953,1.456-1.528,3.492-2.167,4.369a8.638,8.638,0,0,0-1.084,3.346,72.045,72.045,0,0,1-4.134,10.579,34.521,34.521,0,0,0-1.994,5.116,4.035,4.035,0,0,0-.6,2.837.569.569,0,0,0,.032.255.1.1,0,0,1,0,.1v.038l-1.138,1.933-3.619-.5-1.869-1.267a6.342,6.342,0,0,0,.406-.774A34.2,34.2,0,0,0,595,488.08a42.573,42.573,0,0,0,.932-5.609,42.465,42.465,0,0,1,.3-4.331s2.85-8.69,3.76-10.1a4.049,4.049,0,0,0,.683-1.868,1.57,1.57,0,0,0,0-.406l1.224-1.218S611.973,465.931,610.4,467.181Z" transform="translate(-304.732 -251.676)" fill="#d38884"/>
    <path id="Path_1101" data-name="Path 1101" d="M599.576,519.647v.428l-1.138,1.933-3.619-.5-1.869-1.267a6.359,6.359,0,0,0,.406-.774,7.382,7.382,0,0,1,2.991.477s2.248.428,3.2-.26A.057.057,0,0,1,599.576,519.647Z" transform="translate(-304.764 -276.833)" opacity="0.1"/>
    <path id="Path_1102" data-name="Path 1102" d="M597.593,525.145l-3.674.877-3.37-2.491.173-1.4a2.428,2.428,0,0,0,.618-.541,2.22,2.22,0,0,0,.488-1.007c.195-1.034,3.4.1,3.4.1s2.341.444,3.251-.3a5.7,5.7,0,0,0,.173,2.025,1.51,1.51,0,0,0,.542.807C600.129,523.857,597.593,525.145,597.593,525.145Z" transform="translate(-303.665 -277.171)" fill="#ceddf9"/>
    <path id="Path_1103" data-name="Path 1103" d="M597.593,526.367l-3.674.877-3.37-2.49.173-1.4a2.423,2.423,0,0,0,.618-.541h.737c.542.054,1.9,2.463,1.9,2.463,3.327.222,4.334-.866,4.676-1.667a1.51,1.51,0,0,0,.542.807C600.129,525.078,597.593,526.367,597.593,526.367Z" transform="translate(-303.665 -278.393)" opacity="0.1"/>
    <path id="Path_1104" data-name="Path 1104" d="M591.225,526s-1.333-2.409-1.9-2.458a12.766,12.766,0,0,0-1.43,0s-1.474,3.492-2.016,3.79-1.333,1.971-1.333,1.971,3.9,3.79,7.672,3.048a7.824,7.824,0,0,1,3.457.861c1.745.91,9.032.222,9.921-1.375.661-1.2.927-2.074.341-2.707a1.583,1.583,0,0,0-1.371-.466,5.161,5.161,0,0,1-4.779-2.112,43.347,43.347,0,0,0-3.6-3.048C595.923,523.495,596.416,526.342,591.225,526Z" transform="translate(-300.915 -278.71)" fill="#cc8294"/>
    <path id="Path_1105" data-name="Path 1105" d="M643.581,455.214l-.027.032a12.409,12.409,0,0,1-2.319,2.133,23.124,23.124,0,0,0-2.362,1.045s-.986,1.316-1.772,1.381a3.093,3.093,0,0,0-.694.184c-.108-1.8-.228-3.319-.228-3.319L642.416,453l.726,1.142c.163.46.347.888.407,1.023Z" transform="translate(-324.572 -246.38)" opacity="0.1"/>
    <path id="Path_1106" data-name="Path 1106" d="M607.088,409.245a6.717,6.717,0,0,0,0,7.358,24.508,24.508,0,0,0,4.99,6.3l8.268,17.12a13.517,13.517,0,0,1,2.958-1.245c.791-.065,1.772-1.375,1.772-1.375a22.969,22.969,0,0,1,2.362-1.05c.542-.13,2.346-2.166,2.346-2.166s-.9-1.965-.7-2.49-.591-1.841-.591-1.841a10.808,10.808,0,0,1-.542-2.03,5.328,5.328,0,0,0-.856-1.77,5.6,5.6,0,0,1-.851-2.036,19.377,19.377,0,0,0-1.273-3.563L624.637,408Z" transform="translate(-310.748 -225.744)" fill="#ceddf9"/>
    <path id="Path_1107" data-name="Path 1107" d="M629.73,434.183a13.106,13.106,0,0,1-2.346,2.166,22.957,22.957,0,0,0-2.362,1.05s-.986,1.31-1.772,1.375a6.284,6.284,0,0,0-1.625.579c-.7.319-1.338.666-1.338.666l-8.273-17.12a17.906,17.906,0,0,1-2.01-2.057,28.406,28.406,0,0,1-2.98-4.239,7.094,7.094,0,0,1-.943-5.105,5.87,5.87,0,0,1,.943-2.247l5.884-.417L624.626,408l.1,3.687.217,8.765s.19.439.428,1.018a11.129,11.129,0,0,1,.818,2.523,5.559,5.559,0,0,0,.851,2.036,5.5,5.5,0,0,1,.856,1.77,10.955,10.955,0,0,0,.542,2.036s.791,1.31.6,1.83S629.73,434.183,629.73,434.183Z" transform="translate(-310.72 -225.744)" opacity="0.05"/>
    <path id="Path_1108" data-name="Path 1108" d="M616.973,467.154a4.591,4.591,0,0,0-.954,1.083c-3.57.26-7.721-1.624-8.8-2.122a1.56,1.56,0,0,0,0-.406l1.225-1.218S618.544,465.9,616.973,467.154Z" transform="translate(-311.303 -251.649)" opacity="0.1"/>
    <path id="Path_1109" data-name="Path 1109" d="M627.285,412.086s-.542,1.835-.721,2.621-.591,4.662-.591,4.662l-.227,1.083L622,438.318l-.818,3.882c-1.441.791-5.05-1.316-5.05-1.316-4.2.466-9.39-2.225-9.39-2.225a13.566,13.566,0,0,0,.656-4.131,3.168,3.168,0,0,1,1.181-2.5c-.325-1.245.851-6.692.851-6.692s.265-2.03,1.252-2.556-.13-1.31-.4-1.776a2.006,2.006,0,0,1,.092-1.2,8.92,8.92,0,0,1,.3-.893c-2.5-2.5-2.888-6.41-2.893-8.581a13.835,13.835,0,0,1,.07-1.586l5.418-.948,11.839-2.068,1.208,3.714h0l.3.931Z" transform="translate(-311.083 -224.703)" fill="#ceddf9"/>
    <path id="Path_1110" data-name="Path 1110" d="M634.33,323.451a7.09,7.09,0,0,0-.542,1.662q-.049.217-.1.455a4.98,4.98,0,0,1-3.31.747c-.5,0-.786-.964-1.262-1.083,0,0-.715-2.577-.916-.406-1.376-.282-2.563.79-3.538-.146h0V324.3a15.351,15.351,0,0,0-.114-2.431s3.82,0,6.7.309C633.192,322.406,634.7,322.79,634.33,323.451Z" transform="translate(-319.243 -186.246)" opacity="0.1"/>
    <path id="Path_1111" data-name="Path 1111" d="M635.235,310.442a7.324,7.324,0,0,1-8.783,7.163h0a7.31,7.31,0,1,1,7.845-10.752A7.176,7.176,0,0,1,635.235,310.442Z" transform="translate(-317.44 -177.655)" fill="#d38884"/>
    <path id="Path_1112" data-name="Path 1112" d="M631.725,334.709c-.054.606-.081,1-.081,1s-11.752-.785-9.715-2.756A4.33,4.33,0,0,0,623.013,331l5.1.834s1.441,1.115,2.557,2.166A4.636,4.636,0,0,0,631.725,334.709Z" transform="translate(-317.934 -190.433)" opacity="0.1"/>
    <path id="Path_1113" data-name="Path 1113" d="M626.387,410.726a3.794,3.794,0,0,1-1.544-.114,3.135,3.135,0,0,1-.623-.276c-.986-.59-4.264.135-4.264.135s-8.929.59-9.325,0c-.222-.341-1.8-.292-3.088-.189-.542.043-1,.1-1.333.13a5.87,5.87,0,0,1,.943-2.247l5.884-.417,11.839-2.068,1.208,3.714h0A13.4,13.4,0,0,0,626.387,410.726Z" transform="translate(-310.84 -224.68)" opacity="0.1"/>
    <path id="Path_1114" data-name="Path 1114" d="M619.387,332.38l-6.4-1.05a1.907,1.907,0,0,1-1.208,1.05,15.72,15.72,0,0,0-6.366,4.526l-1.707,2.366s-1.382,1.705-.921,3.081a51.981,51.981,0,0,1,.986,6.037l.656,5.181s1.246,3.741.856,5.382.2,8.527.2,8.527l-1.311,8.527s4.459-.59,4.876,0,9.325,0,9.325,0,3.251-.725,4.264-.135a3.567,3.567,0,0,0,2.167.4s-.786-2.707-.331-4.2a16.814,16.814,0,0,0,.331-4.266s.656-4,.325-4.721.726-3.346.726-3.346l3.479-18.3s-.423-3.281-2.281-4.4-3.955-1.446-5.071-2.491S619.387,332.38,619.387,332.38Z" transform="translate(-309.225 -190.584)" fill="#4c4981"/>
    <path id="Path_1115" data-name="Path 1115" d="M639,365.333V367.5l2.021,5.447.731,5.051a24.916,24.916,0,0,1,1.317,4.873c0,1.267,3.213,7.282,3.213,7.282s.878,2.036.439,2.426-4.242,9.052.542,8.793,3.283-9.312,3.283-9.312l-.656-3.936s-.921-9.843-.921-10.563c0,0-1.181-4.2-1.311-5.116s-.986-5.577-.986-5.577l-.721-3.016Z" transform="translate(-325.864 -205.497)" fill="#d38884"/>
    <path id="Path_1116" data-name="Path 1116" d="M565.782,307.82l-7.136,4.082-2.216,3.346,2.953-3Z" transform="translate(-254.948 -141.162)" opacity="0.1"/>
    <path id="Path_1117" data-name="Path 1117" d="M622.43,393.63s-3.251,2.117-4.779,2.117-5.071,3.638-5.071,3.638,5.023-3.249,5.418-3.146S622.43,393.63,622.43,393.63Z" transform="translate(-313.759 -219.154)" opacity="0.1"/>
    <path id="Path_1118" data-name="Path 1118" d="M613.375,395.72s-3.05,2.756-2.265,3.054,4.876-3.054,4.876-3.054Z" transform="translate(-313.026 -220.112)" opacity="0.1"/>
    <path id="Path_1119" data-name="Path 1119" d="M638.75,377.55s-2.362,3.2-1.723,3.151,2.46-1.873,2.46-1.873Z" transform="translate(-324.91 -211.78)" opacity="0.1"/>
    <path id="Path_1120" data-name="Path 1120" d="M638.847,383.37s-2.557,2.9-2.46,3.638S638.847,383.37,638.847,383.37Z" transform="translate(-324.666 -214.449)" opacity="0.1"/>
    <path id="Path_1121" data-name="Path 1121" d="M641.131,386.05s-1.723,3.075-.986,3.714S641.131,386.05,641.131,386.05Z" transform="translate(-326.305 -215.678)" opacity="0.1"/>
    <path id="Path_1122" data-name="Path 1122" d="M637.417,371.46s-1.284,2.166-.347,2.312,1.029,0,1.029,0Z" transform="translate(-324.823 -208.987)" opacity="0.1"/>
    <path id="Path_1123" data-name="Path 1123" d="M637.12,356.83a22.6,22.6,0,0,1-1.311,3.86,17.9,17.9,0,0,1-.509-1.933,13.189,13.189,0,0,1,1.82-1.927Z" transform="translate(-324.169 -202.278)" opacity="0.1"/>
    <path id="Path_1124" data-name="Path 1124" d="M634.3,306.86a3.182,3.182,0,0,1-.493.763,5.661,5.661,0,0,0-.889,1.018,5.455,5.455,0,0,0-.32,1.738c-.1.585-.466,1.234-1.084,1.251a2.2,2.2,0,0,1-.867-.26.884.884,0,0,0-.862.027.963.963,0,0,0-.276.65,8.587,8.587,0,0,0-.087,1.538,3.865,3.865,0,0,0,.032.612,3.435,3.435,0,0,1-.114,1.949,2.361,2.361,0,0,1-1.214.974,7.5,7.5,0,0,1-1.7.477h0a18.718,18.718,0,0,1-3.354.108.826.826,0,0,1-.3-.049.427.427,0,0,1-.13-.081,10.247,10.247,0,0,0,.2-1.868A7.312,7.312,0,1,1,634.3,306.86Z" transform="translate(-317.444 -177.663)" opacity="0.1"/>
    <path id="Path_1125" data-name="Path 1125" d="M628.579,298.562a6.362,6.362,0,0,0-1.967.433c-1.36.3-2.753-.319-4.15-.314a7.707,7.707,0,0,0-3.413,1.018,8.241,8.241,0,0,0-2.276,1.592,3.707,3.707,0,0,0-1.083,2.5,4.1,4.1,0,0,1-.049,1.624,4.565,4.565,0,0,1-.5.758,2.251,2.251,0,0,0-.233,1.879,6.232,6.232,0,0,0,1.122,1.678c.9,1.153,1.463,2.534,2.27,3.757a11.679,11.679,0,0,0,1.181,1.5.835.835,0,0,0,.255.2.784.784,0,0,0,.3.043,11.971,11.971,0,0,0,5.061-.585,2.313,2.313,0,0,0,1.214-.974,3.437,3.437,0,0,0,.119-1.949,8.92,8.92,0,0,1,.049-2.166.953.953,0,0,1,.276-.644.868.868,0,0,1,.867-.027,2.366,2.366,0,0,0,.862.26c.591,0,.964-.671,1.083-1.256a2.945,2.945,0,0,1,1.208-2.756,4.166,4.166,0,0,0,.742-3.7C631.125,300.219,629.933,298.7,628.579,298.562Z" transform="translate(-314.776 -175.553)" fill="#1e1637"/>
    <path id="Path_1126" data-name="Path 1126" d="M644.466,349.8a8.516,8.516,0,0,0,0,2.707c-.065.725,0,4.727,0,4.727-2.167-.66-7.677.655-7.677.655l-.656-1.965a4.872,4.872,0,0,1-.824-1.624,18.051,18.051,0,0,1-.509-1.938,40.2,40.2,0,0,1-.645-4.12c-.276-2.084,2.828-4.331,5.18-5.577s4.41,4.066,4.41,4.066S644.726,348.767,644.466,349.8Z" transform="translate(-323.636 -195.693)" opacity="0.1"/>
    <path id="Path_1127" data-name="Path 1127" d="M644.466,349.1a8.536,8.536,0,0,0,0,2.707c-.065.72,0,4.721,0,4.721-2.167-.655-7.677.655-7.677.655l-.656-1.965a4.816,4.816,0,0,1-.824-1.624,17.889,17.889,0,0,1-.509-1.933,40.367,40.367,0,0,1-.645-4.12c-.276-2.09,2.828-4.331,5.18-5.582s4.41,4.066,4.41,4.066S644.726,348.05,644.466,349.1Z" transform="translate(-323.636 -195.371)" fill="#4c4981"/>
    <path id="Path_1128" data-name="Path 1128" d="M631.457,302.986a4.329,4.329,0,0,0-.482-1.056c.032.092.065.179.092.271a4.167,4.167,0,0,1-.742,3.7,2.944,2.944,0,0,0-1.208,2.756c-.092.585-.466,1.229-1.084,1.251a2.2,2.2,0,0,1-.867-.26.883.883,0,0,0-.861.027.962.962,0,0,0-.276.65,8.871,8.871,0,0,0-.049,2.166,3.5,3.5,0,0,1-.119,1.954,2.411,2.411,0,0,1-1.214.975,11.971,11.971,0,0,1-5.06.585.786.786,0,0,1-.3-.049.7.7,0,0,1-.255-.2,10.507,10.507,0,0,1-1.181-1.5c-.807-1.224-1.371-2.6-2.27-3.757a11.031,11.031,0,0,1-.742-.953v.065a6,6,0,0,0,1.122,1.678c.894,1.153,1.463,2.534,2.265,3.757a11.28,11.28,0,0,0,1.187,1.5.813.813,0,0,0,.249.2.8.8,0,0,0,.3.043,11.963,11.963,0,0,0,5.061-.585,2.314,2.314,0,0,0,1.214-.975,3.436,3.436,0,0,0,.119-1.949,9.513,9.513,0,0,1,.049-2.166,1,1,0,0,1,.276-.644.868.868,0,0,1,.867-.027,2.362,2.362,0,0,0,.862.26c.6,0,.964-.671,1.083-1.256a5.317,5.317,0,0,1,.32-1.738,5.441,5.441,0,0,1,.888-1.018A4.177,4.177,0,0,0,631.457,302.986Z" transform="translate(-314.794 -177.102)" opacity="0.2"/>
    <path id="Path_1129" data-name="Path 1129" d="M728.677,301.89,724,311.831a8.515,8.515,0,0,1-1.132,2.214c-.444.346-2.411,6.248-2.411,6.248l-5.023,7.732h0l-.341.541-1.967-.541-1.382-5.154.081-1.494v-.189s3.1-3.248,3.793-3.492c0,0,.542.065,1.571-2.453s1.972-3.059,1.972-3.059l.542-1.819,5.814-9.253s4.876-6.979,6.2-3.882S728.677,301.89,728.677,301.89Z" transform="translate(-359.193 -174.582)" fill="#ffd2c6"/>
    <path id="Path_1130" data-name="Path 1130" d="M695.844,434.5a1.122,1.122,0,0,1-.157.476c-.542.791-3.592,16.876-3.592,16.876.244,1.083-.444,3.248-.889,4.234a62.017,62.017,0,0,0-1.43,6.1s-.244,11.023-.878,12.745.2,5.414.2,5.414a8.278,8.278,0,0,0,1.566,4.4l.119.173c.2.282.325.444.325.444a2.619,2.619,0,0,0,.688.85l.141.108a7.957,7.957,0,0,0,2.758,1.164h.1c.39.087.65.124.65.124l.244,1.332-2.606.541-4.974.341s-5.863.449-4.529-2.166a4.173,4.173,0,0,0,.238-.541h0q.077-.191.135-.39a13.468,13.468,0,0,0,.26-5.555l-1.132-8.9C681.21,464,684.547,454.8,684.547,454.8a4.305,4.305,0,0,1,.352-2.6c.639-1.868,0-5.956,0-5.956s-.341-5.263-.786-7.867a15.952,15.952,0,0,1-.179-3.319,16.537,16.537,0,0,1,.179-1.938l11.221-1.489A8.427,8.427,0,0,1,695.844,434.5Z" transform="translate(-345.8 -236.58)" fill="#ffd2c6"/>
    <path id="Path_1131" data-name="Path 1131" d="M696.423,533.753l-2.606.542-4.974.341s-5.862.45-4.529-2.166a4.117,4.117,0,0,0,.238-.541h0a4.083,4.083,0,0,0,.136-.39,9.21,9.21,0,0,1,2.969.6c1.669.644,2.926-1.034,2.926-1.034l.813-1.549.119-.222c.2.281.325.444.325.444a2.708,2.708,0,0,0,.829.958l-.141.287-.786,1.657s1.008.1,2.384.325a1.084,1.084,0,0,0,1.3-.709h.1c.39.087.65.125.65.125Z" transform="translate(-346.536 -281.383)" opacity="0.1"/>
    <path id="Path_1132" data-name="Path 1132" d="M698.473,535.3c-.2.888-5.684,1.159-5.684,1.159s-3.056-.292-3.912.417-3.376.541-3.473.541-1.425-.049-1.945-2.431.677-2.707.732-2.745h0a8.992,8.992,0,0,1,3.1.6c1.669.644,2.926-1.034,2.926-1.034l.932-1.77c.2.281.325.444.325.444a2.71,2.71,0,0,0,.829.958l-.927,1.944s1.008.1,2.384.319a1.143,1.143,0,0,0,1.4-1.083,1.329,1.329,0,0,0,0-.146s.856.249,1.918.541A1.976,1.976,0,0,1,698.473,535.3Z" transform="translate(-346.175 -281.709)" fill="#626696"/>
    <path id="Path_1133" data-name="Path 1133" d="M719.977,445.123c-.13.785-.266,2.821-.266,2.821.461,1.705-.721,5.755-.721,5.755l-.591,2.312c.26,2.951-1.625,10.168-1.625,10.168s-1.263,6.692-1.918,9.578a7.914,7.914,0,0,0,.341,4.824l.049.119a.893.893,0,0,0,.038.162,1.7,1.7,0,0,0,.076.233,3.46,3.46,0,0,0,.645,1.083,3.2,3.2,0,0,0,.352.363h0a7.158,7.158,0,0,0,2.091,1.289h0l.33.13a10.209,10.209,0,0,0,1.046.325h.119l-.265,1.548-3.478-.893-4.66-1.511-2.259-1.267a1.439,1.439,0,0,1,.071-.363.118.118,0,0,0,0-.043,2.352,2.352,0,0,1,.07-.363c.358-2.03,1.246-7.71.8-11.911-.542-5.181,1.625-12.334,2.129-14.034a8.479,8.479,0,0,0,.4-3.021c-.856-1.245-1.051-6.232-1.051-6.232s-1.577-3.216-2.877-6.627a16.922,16.922,0,0,1-.937-3.449,11.684,11.684,0,0,1-.19-2.518s10.571-9.643,11.73-.309c.038.319.076.617.114.915C720.568,442.789,720.1,444.359,719.977,445.123Z" transform="translate(-357.336 -235.476)" fill="#ffd2c6"/>
    <path id="Path_1134" data-name="Path 1134" d="M721.325,527.918l-.266,1.548-3.478-.893-4.66-1.51-2.292-1.31a1.442,1.442,0,0,1,.071-.363.114.114,0,0,0,0-.043,2.351,2.351,0,0,1,.071-.363h.325a4.283,4.283,0,0,1,1.951.265,4.687,4.687,0,0,0,1.956.471,2.47,2.47,0,0,1,1.116-.195l.482-1.083.076-.163a3.4,3.4,0,0,0,.645,1.083,4.155,4.155,0,0,0,.374.385v.374l-.027.541a6.786,6.786,0,0,0,1.674.769.963.963,0,0,0,.466,0h0l.331.13a10.143,10.143,0,0,0,1.046.325h0Z" transform="translate(-358.684 -279.067)" opacity="0.1"/>
    <path id="Path_1135" data-name="Path 1135" d="M719.262,531.6c-.97-.276-3.31-.725-3.69-.379s-3.625,0-3.625,0a1.973,1.973,0,0,1-1.674-.98c-.677-1.05-.13-4.445-.13-4.445h.238l.4-.044h0a4.34,4.34,0,0,1,1.951.26,4.634,4.634,0,0,0,1.956.476,2.426,2.426,0,0,1,1.116-.2l.542-1.218a3.459,3.459,0,0,0,.645,1.083,3.546,3.546,0,0,0,.374.379l-.049.9a6.937,6.937,0,0,0,1.674.774.678.678,0,0,0,.8-.254.637.637,0,0,0,.059-.135h0a6,6,0,0,0,1.376.455h0a2.514,2.514,0,0,1,2.709,1.927C724.452,531.713,720.232,531.876,719.262,531.6Z" transform="translate(-358.366 -279.43)" fill="#626696"/>
    <path id="Path_1136" data-name="Path 1136" d="M697.053,434.5l-.6.184a8.413,8.413,0,0,1-1.447.3,60.32,60.32,0,0,1-9.856.07,16.537,16.537,0,0,1,.179-1.938l11.221-1.489A8.471,8.471,0,0,1,697.053,434.5Z" transform="translate(-347.009 -236.58)" opacity="0.1"/>
    <path id="Path_1137" data-name="Path 1137" d="M706.014,418.821s-4.118.639-7.471,1.37c-1.116.244-2.167.5-2.92.747a8.908,8.908,0,0,1-1.447.309,63.009,63.009,0,0,1-10.365.038c-1.82-5.9,2.211-13.335,2.211-13.335a7.55,7.55,0,0,1,.84-2.4v-.06l.574-2.106h15.306l.19.9.39,1.841,2.405,11.408Z" transform="translate(-346.179 -223.625)" fill="#626696"/>
    <path id="Path_1138" data-name="Path 1138" d="M719.562,434.292l-.092.038-1.793.8c-1.94.893-7.743,1.083-9.753,1.083a11.667,11.667,0,0,1-.19-2.517s10.571-9.643,11.73-.309C719.486,433.7,719.524,434.016,719.562,434.292Z" transform="translate(-357.354 -235.517)" opacity="0.1"/>
    <path id="Path_1139" data-name="Path 1139" d="M711.758,421.485l-.374.168-1.793.8c-1.972.91-7.965,1.083-9.883,1.083h-.5a2.282,2.282,0,0,1-1.772-1.083c0-.119-.092-.7-.168-1.2-.07-.4-.125-.747-.125-.747a47.383,47.383,0,0,1-5.96-3.081c-1.5-1.023-1.122-8.294-.834-11.949.1-1.262.2-2.09.2-2.09l15.5.9,2.167.124,1.241.276.331.07s.894,6.5,1.333,7.038.152,2.361.1,3.4a6.176,6.176,0,0,1-.146,1.326,8.187,8.187,0,0,1,.493,2.837A5.664,5.664,0,0,0,711.758,421.485Z" transform="translate(-349.269 -223.625)" fill="#626696"/>
    <ellipse id="Ellipse_62" data-name="Ellipse 62" cx="6.35" cy="6.345" rx="6.35" ry="6.345" transform="translate(339.549 131.25)" fill="#ffd2c6"/>
    <path id="Path_1140" data-name="Path 1140" d="M689.333,330.375s.439,6.01-.791,7.39a55.959,55.959,0,0,1-4.432,3.985l.986,4.082,5.564.639,6.5-6.936-1.479-1.792s-1.133-3.839-.2-5.755S689.333,330.375,689.333,330.375Z" transform="translate(-346.533 -190.138)" fill="#ffd2c6"/>
    <path id="Path_1141" data-name="Path 1141" d="M715.43,348.653h0l-.341.542-1.967-.542L711.74,343.5l.081-1.494.406-.585s2.167.049,2.075,2.019A17.239,17.239,0,0,0,715.43,348.653Z" transform="translate(-359.193 -195.211)" opacity="0.1"/>
    <path id="Path_1142" data-name="Path 1142" d="M709.68,405.532s-1.566.347-3.359.579-3.863.357-4.714-.141c-1.425-.845-9.146-.6-11.378-.514h-.379l.574-2.106H705.73l.19.9,2.167.124,1.241.276C709.555,405.185,709.68,405.532,709.68,405.532Z" transform="translate(-349.163 -223.611)" opacity="0.1"/>
    <path id="Path_1143" data-name="Path 1143" d="M695.282,342.13s2.167.049,2.07,2.019a18.136,18.136,0,0,0,1.181,5.36l-.493,1.132s-.688,2.756-.146,3.443,2.509.688,1.376,6.345c0,0-.244,4.234.347,5.609s.591,4.672,1.474,6.053a32.67,32.67,0,0,1,2.07,4.575s-6.4,1.424-8.073.444-11.963-.493-11.963-.493.049-1.722,0-1.922a1.591,1.591,0,0,1,.244-1.251c.347-.471.889-1.256.591-1.944s.737-1.705.2-2.772-1.2-1.278-1.084-1.862a2.5,2.5,0,0,0-.607-1.862c-.39-.493-3.05-5.69-3.05-5.69l-.444-2.426s-3.424-2.507-3.359-3.687a6.981,6.981,0,0,1,1.295-2.821l3.294-3.249s1.826,1.965,3.6,1.278,5.581-3.985,5.581-3.985,1.36-.736,1.457-1.278.937-.049.937-.049,1.23-.677,1.474-.439a4.339,4.339,0,0,0,1.333.439Z" transform="translate(-342.637 -195.537)" fill="#ffcde5"/>
    <path id="Path_1144" data-name="Path 1144" d="M664.19,361.06l-1.046.823a13.827,13.827,0,0,0-1.317,5.36,70.669,70.669,0,0,1-1.327,8.305l-2.07,3.7s-3.4,7.13-3.842,9.025a23.66,23.66,0,0,1-2.46,5.095s-6.843,6.145-2.07,7.255,4.925-4.873,4.925-4.873a7.033,7.033,0,0,0,1.295-2.068c.211-.839,6.236-11.538,6.236-11.538s2.118-2.88,1.674-4.407c0,0,2.758-6.5,2.758-8.121a28.526,28.526,0,0,0-.444-4.05l.444-3.395Z" transform="translate(-330.156 -204.218)" fill="#ffd2c6"/>
    <path id="Path_1145" data-name="Path 1145" d="M698.771,386.11a49.2,49.2,0,0,1-5.759,2.658c-.937.135,4.085-.541,4.085-.541Z" transform="translate(-350.558 -215.705)" opacity="0.1"/>
    <path id="Path_1146" data-name="Path 1146" d="M703.211,389.74s-6.4,2.166-9.211,1.776C694,391.5,701,392.842,703.211,389.74Z" transform="translate(-351.064 -217.37)" opacity="0.1"/>
    <path id="Path_1147" data-name="Path 1147" d="M704,391.05s-5.765,3.622-9.156,3.032c0,0,7.927,1.576,9.156.736l-3.543-.98S704.387,391.754,704,391.05Z" transform="translate(-351.449 -217.971)" opacity="0.1"/>
    <path id="Path_1148" data-name="Path 1148" d="M684.373,304.733a6,6,0,0,0-4.876.915c-.986.774-1.625,1.96-2.753,2.539a14.752,14.752,0,0,1-1.8.633,5.192,5.192,0,0,0-3.17,5.587c.174.975.629,1.873.856,2.837a11.145,11.145,0,0,1-.39,5.225,55.055,55.055,0,0,1-5.472,13.562,1.44,1.44,0,0,0-.271.91,1.337,1.337,0,0,0,.336.579c2.276,2.626,5.96,3.53,9.455,3.649a7.308,7.308,0,0,0,3.749-.623,5.677,5.677,0,0,0,1.826-1.673,8.885,8.885,0,0,0,1.7-5.717c-.092-1.651-.645-3.319-.228-4.916a1.256,1.256,0,0,1,.293-.6c.374-.384,1-.282,1.528-.347,1.447-.168,2.378-1.689,2.552-3.135a33.967,33.967,0,0,0-.2-4.331,9.124,9.124,0,0,1,1.717-5.355,5.907,5.907,0,0,0,1.257-2.139,3.528,3.528,0,0,0-.916-2.62c-.807-1.278-1.2-2.767-2.433-3.741a6.565,6.565,0,0,0-2.763-1.24Z" transform="translate(-338.463 -178.308)" opacity="0.1"/>
    <path id="Path_1149" data-name="Path 1149" d="M683.67,304.006a5.964,5.964,0,0,0-4.844.915c-.986.78-1.625,1.965-2.758,2.545a15.752,15.752,0,0,1-1.8.628,5.192,5.192,0,0,0-3.17,5.577c.173.975.629,1.873.856,2.837a11.077,11.077,0,0,1-.39,5.225,54.956,54.956,0,0,1-5.467,13.535,1.385,1.385,0,0,0-.271.91,1.25,1.25,0,0,0,.33.579c2.276,2.631,5.96,3.53,9.455,3.649a7.347,7.347,0,0,0,3.749-.617,5.749,5.749,0,0,0,1.826-1.678,8.891,8.891,0,0,0,1.7-5.717c-.1-1.624-.65-3.319-.233-4.916a1.359,1.359,0,0,1,.293-.6c.379-.384,1-.282,1.533-.341,1.441-.168,2.373-1.695,2.546-3.135a35.038,35.038,0,0,0-.195-4.331,9.069,9.069,0,0,1,1.718-5.349,5.958,5.958,0,0,0,1.257-2.166,3.562,3.562,0,0,0-.921-2.621c-.807-1.272-1.2-2.767-2.433-3.741A6.563,6.563,0,0,0,683.67,304.006Z" transform="translate(-338.155 -177.976)" fill="#985c7e"/>
    <path id="Path_1150" data-name="Path 1150" d="M694.84,417.76s1.263,5.907,3.365,7.509Z" transform="translate(-351.449 -230.219)" opacity="0.1"/>
    <g id="Group_2677" data-name="Group 2677" transform="translate(327.662 131.905)" opacity="0.1">
      <path id="Path_1151" data-name="Path 1151" d="M676.062,323.878c-.065-.227-.141-.46-.222-.688C675.927,323.423,675.981,323.628,676.062,323.878Z" transform="translate(-670.405 -318.756)"/>
      <path id="Path_1152" data-name="Path 1152" d="M689.427,315a2.171,2.171,0,0,1,0,.541,5.757,5.757,0,0,1-1.257,2.139,9.14,9.14,0,0,0-1.718,5.355,36.512,36.512,0,0,1,.2,4.331c-.173,1.424-1.084,2.967-2.546,3.129-.542.065-1.154-.038-1.528.346a1.369,1.369,0,0,0-.3.6c-.417,1.6.141,3.248.233,4.916a8.89,8.89,0,0,1-1.723,5.712,5.616,5.616,0,0,1-1.826,1.673,7.279,7.279,0,0,1-3.744.623c-3.419-.114-7.043-1-9.341-3.525a.9.9,0,0,0-.054.477,1.25,1.25,0,0,0,.33.579c2.276,2.631,5.96,3.53,9.455,3.649a7.347,7.347,0,0,0,3.749-.617,5.751,5.751,0,0,0,1.826-1.678,8.891,8.891,0,0,0,1.7-5.717c-.1-1.624-.65-3.319-.233-4.916a1.359,1.359,0,0,1,.293-.6c.379-.384,1-.282,1.533-.341,1.441-.168,2.373-1.695,2.546-3.135a35.073,35.073,0,0,0-.2-4.331,9.071,9.071,0,0,1,1.717-5.349,5.958,5.958,0,0,0,1.257-2.166A2.43,2.43,0,0,0,689.427,315Z" transform="translate(-665.81 -315)"/>
    </g>
    <ellipse id="Ellipse_63" data-name="Ellipse 63" cx="11.465" cy="1.159" rx="11.465" ry="1.159" transform="translate(58.529 269.603)" fill="#9bc93a" opacity="0.1"/>
    <path id="Path_1153" data-name="Path 1153" d="M189.653,536.09s-14.954,7.721-7.228,16.784a2.872,2.872,0,0,0,2.828,1.835s-.423-.763,1.187-1.375a7.819,7.819,0,0,0,1.625-.856,3.79,3.79,0,0,0,1.447-1.933h0s3.061-4.088.688-11.651c0,0,.309-2.166.038-2.485l-1.815,2.485a5.091,5.091,0,0,1,2.1,3.113s-1.956-3.108-2.384-2.751c-.087.07-.9,1.359-.9,1.359s3.251,2.209,3.495,5.073c0,0-1.831-4.012-3.793-4.586l-1.116,2.02s3.554,2.166,3.955,5.414c0,0-2.064-4.126-4.172-4.954l-.829,2.133s3.424,2.166,3.738,4.873c0,0-2.866-4.526-3.9-4.38a10.332,10.332,0,0,0-.542,2.62s2.427,1.624,2.471,3.211c0,0-2.238-2.826-2.584-2.637a12.083,12.083,0,0,0,.542,4.331,8.6,8.6,0,0,1-.991-4.331,4.7,4.7,0,0,0-1.43,2.307s-.645-1.565,1.474-2.994a10.944,10.944,0,0,1,.444-2.48,10.168,10.168,0,0,0-3.251,2.49s.358-2.047,3.468-3.064l.791-2.166s-3.11,1.316-4.074,2.474c0,0,.694-2.03,4.335-3l1.084-1.992a17.628,17.628,0,0,0-4.112,1.992s1.046-1.749,4.443-2.55l.878-1.251s-2.01.72-2.568.975-.672.13-.672.13a7.2,7.2,0,0,1,3.6-1.624A16.934,16.934,0,0,0,189.653,536.09Z" transform="translate(-115.65 -284.483)" fill="#9bc93a"/>
    <path id="Path_1154" data-name="Path 1154" d="M224.074,493.655c1.566.926,4.015,1.527,7.1-.46l-.033,4.391c.222,3.016,3.944,13.985,3.944,13.985l2.628,9.031a70.569,70.569,0,0,1,2.893,19.637,18.753,18.753,0,0,0,.84,6.183c1.4,3.79-.542,8.663-1.4,10.466a43.775,43.775,0,0,1-4.334,1.218,2.988,2.988,0,0,0-.39.119V558.2s-3.944,1.565-5.7,1.348a1.527,1.527,0,0,0-1.084,2.664,7.955,7.955,0,0,1-2.628.347c-1.755-.217-2.628,2.8.656,3.66s21.922,0,21.922,0a2.642,2.642,0,0,0,1.4-2.918c1.43-.054,2.324-.1,2.324-.1s3.289-1.505,0-5.593l-.173.135-.7-2.068v-2.8s4.167-20.033,2.85-22.371-1.972-14.413-1.972-14.413l.439-13.124c1.187-2.453,1.8-6.291,2.108-9.3a19.792,19.792,0,0,0,.84-4.413c.049-.7.092-1.445.119-2.214a14.851,14.851,0,0,0-.8-4.954,48.971,48.971,0,0,1,4.963-6.232,6.381,6.381,0,0,0,1.972-5.593l-1.084-7.315L258.143,450.5c.33-3.465-.39-5.458-1.192-6.584.19-1.115.368-2.236.5-3.357a42.931,42.931,0,0,0-.769-14.618,9.914,9.914,0,0,0-2.07-4.656c-1.333-1.435-3.489-2.312-3.982-4.191a13.623,13.623,0,0,0-.3-1.413c-.482-1.234-2-1.678-3.338-1.841-2.373-.287-5.8-.509-8.084.422a9.8,9.8,0,0,0-4.654,4.364,3.739,3.739,0,0,0-.542,2.707,3.551,3.551,0,0,0,.379.915,8.235,8.235,0,0,0-.542,2.886,8.4,8.4,0,0,0,5.364,7.786c.049.162.1.325.141.487a8.112,8.112,0,0,1,.211,1.169c-.038.763-.087,1.527-.125,2.285a2.575,2.575,0,0,1-.081.309,56.262,56.262,0,0,0-5.51,2.81c1.317,1.933-.217,10.108-.217,10.108-3.289,1.938-6.578,6.887-3.072,12.047a12.744,12.744,0,0,1,1.533,10.693l-.542,8.414h0l-.108,1.678h.043l-.043.639h.092v.688a10.1,10.1,0,0,0-5.131,3.79,13.586,13.586,0,0,1-2.3,2.815,1.688,1.688,0,0,0,.265,2.8Zm26.467-22.35a7.981,7.981,0,0,1,.78-4.228h1.55c.054.363.114.709.19,1.023C253.5,470.017,251.728,470.921,250.541,471.305Z" transform="translate(-135.339 -228.307)" fill="url(#linear-gradient)"/>
    <path id="Path_1155" data-name="Path 1155" d="M259.685,672.769l.845,2.528-2.731,2.74-9.07,2.106-6.54-.633.423-2.317h0a2.789,2.789,0,0,1,2.075-2.041c2.709-.633,7.813-2.068,8.891-4.072Z" transform="translate(-144.049 -346.387)" fill="#db8b8b"/>
    <path id="Path_1156" data-name="Path 1156" d="M259.685,672.769l.845,2.528-2.731,2.74-9.07,2.106-6.54-.633.423-2.317h0a2.789,2.789,0,0,1,2.075-2.041c2.709-.633,7.813-2.068,8.891-4.072Z" transform="translate(-144.049 -346.387)" opacity="0.1"/>
    <path id="Path_1157" data-name="Path 1157" d="M240.151,681.918l1.268-1.689-1.268-1.949s-3.793,1.527-5.483,1.316-2.53,2.745.634,3.584,21.093,0,21.093,0,3.164-1.473,0-5.479l-2.731,2.106s-4.643,2.534-6.962,2.112Z" transform="translate(-139.914 -349.423)" fill="#2e3037"/>
    <path id="Path_1158" data-name="Path 1158" d="M235.55,684.965l6.54.628,9.07-2.106,2.742-2.739-.222-.672-.314-.942-.3-.915-6.117-1.689a3.787,3.787,0,0,1-1.241,1.245c-1.988,1.354-5.559,2.333-7.65,2.826l-.265.076a2.8,2.8,0,0,0-1.084.655,2.773,2.773,0,0,0-.753,1.31Z" transform="translate(-141.007 -348.887)" fill="#db8b8b"/>
    <path id="Path_1159" data-name="Path 1159" d="M235.55,687.969l6.54.628,9.07-2.106,2.742-2.74-.222-.671-2.519,1.933s-4.638,2.534-6.962,2.112h-6.534l1.262-1.689-1.138-1.754a2.8,2.8,0,0,0-1.084.655,2.773,2.773,0,0,0-.753,1.31Z" transform="translate(-141.007 -351.89)" opacity="0.1"/>
    <path id="Path_1160" data-name="Path 1160" d="M233.535,687.368l1.262-1.689-1.262-1.949s-3.793,1.527-5.489,1.316-2.53,2.745.634,3.584,21.093,0,21.093,0,3.164-1.473,0-5.479l-2.742,2.084s-4.638,2.534-6.962,2.112Z" transform="translate(-136.879 -351.923)" fill="#2e3037"/>
    <path id="Path_1161" data-name="Path 1161" d="M249.18,455.675s10.126,1.05,8.669-3.162a7.657,7.657,0,0,1-.314-3.725,10.343,10.343,0,0,1,1.793-4.288l-9.492,1.478a11.962,11.962,0,0,1,1.284,3.043A6.241,6.241,0,0,1,249.18,455.675Z" transform="translate(-147.252 -242.482)" fill="#db8b8b"/>
    <path id="Path_1162" data-name="Path 1162" d="M270.717,553.9s-.211,9.063-2.319,13.492l-.444,12.853s.634,11.8,1.9,14.125-2.742,21.922-2.742,21.922v3.368s-6.746,2.534-8.669-.417l1.929-25.084-.829-34.792Z" transform="translate(-151.495 -292.651)" fill="#474463"/>
    <path id="Path_1163" data-name="Path 1163" d="M270.717,553.9s-.211,9.063-2.319,13.492l-.444,12.853s.634,11.8,1.9,14.125-2.742,21.922-2.742,21.922v3.368s-6.746,2.534-8.669-.417l1.929-25.084-.829-34.792Z" transform="translate(-151.495 -292.651)" opacity="0.1"/>
    <path id="Path_1164" data-name="Path 1164" d="M280.863,500.17l1.262,3.373,1.057,7.168a6.332,6.332,0,0,1-1.9,5.479,60.267,60.267,0,0,0-5.906,7.8l-4.009-12s4.009-.633,3.376-3.373a39.106,39.106,0,0,1-.423-7.8Z" transform="translate(-157.419 -268.011)" fill="#fc6681"/>
    <path id="Path_1165" data-name="Path 1165" d="M280.863,500.17l1.262,3.373,1.057,7.168a6.332,6.332,0,0,1-1.9,5.479,60.267,60.267,0,0,0-5.906,7.8l-4.009-12s4.009-.633,3.376-3.373a39.106,39.106,0,0,1-.423-7.8Z" transform="translate(-157.419 -268.011)" opacity="0.05"/>
    <path id="Path_1166" data-name="Path 1166" d="M254.29,677.775c2.709,4.256,6.913,1.841,7.661,1.359l-.3-.915-6.117-1.689A3.789,3.789,0,0,1,254.29,677.775Z" transform="translate(-149.594 -348.887)" opacity="0.1"/>
    <path id="Path_1167" data-name="Path 1167" d="M238.67,549.26c.211,2.951,3.793,13.7,3.793,13.7l2.53,8.847a70.1,70.1,0,0,1,2.779,19.242,18.938,18.938,0,0,0,.829,6.059c1.69,4.634-1.685,10.958-1.685,10.958,2.953,5.268,8.013,1.689,8.013,1.689v-3.373s4.009-18.338,2.953-21.922-1.474-13.281-1.474-13.281V553.689a19.874,19.874,0,0,0,5.765-12.593c.054-.687.092-1.413.119-2.166.173-4.759-3.083-10.33-4.334-12.323-.3-.476-.493-.747-.493-.747l-18.649,7.385h-.043v2.317Z" transform="translate(-142.437 -279.792)" fill="#474463"/>
    <path id="Path_1168" data-name="Path 1168" d="M250.35,445.978a11.962,11.962,0,0,1,1.284,3.043,8.214,8.214,0,0,0,6.415-.233,10.343,10.343,0,0,1,1.793-4.288Z" transform="translate(-147.788 -242.482)" opacity="0.1"/>
    <ellipse id="Ellipse_64" data-name="Ellipse 64" cx="8.225" cy="8.219" rx="8.225" ry="8.219" transform="translate(98.552 190.221)" fill="#db8b8b"/>
    <path id="Path_1169" data-name="Path 1169" d="M238.67,535.553h.087c8.848,1.814,19.949-7.4,19.949-7.4a11.289,11.289,0,0,1-.769-1.57c-.3-.477-.493-.747-.493-.747l-18.627,7.4-.049.737Z" transform="translate(-142.437 -279.783)" opacity="0.1"/>
    <path id="Path_1170" data-name="Path 1170" d="M239.067,460.574s11.811-7.168,15.61-4.218l5.272,6.746s3.375,1.05,2.742,7.8l2.53,12.225-7.585,1.9s-4.481,4.212-.878,10.336c0,0-11.177,9.274-20.047,7.38l.629-9.908a12.811,12.811,0,0,0-1.474-10.536c-3.375-5.057-.211-9.908,2.953-11.808C238.828,470.455,240.307,462.469,239.067,460.574Z" transform="translate(-140.487 -247.592)" fill="#fc6681"/>
    <path id="Path_1171" data-name="Path 1171" d="M233.922,544.17s-4.427.839-6.54,4.212a13.028,13.028,0,0,1-2.205,2.756,1.672,1.672,0,0,0,.26,2.669c1.674,1,4.4,1.624,7.851-1.207C239.193,547.749,233.922,544.17,233.922,544.17Z" transform="translate(-136.003 -288.189)" fill="#db8b8b"/>
    <path id="Path_1172" data-name="Path 1172" d="M247.784,472.006s4.221-.422,5.272,10.541S255.8,496.04,255.8,496.04s1.057,5.69-1.474,9.063-7.385,10.536-7.385,10.536-5.272,1.478-6.328-3.79l6.54-12.225s1.057-4.212-1.474-7.163S241.244,469.9,247.784,472.006Z" transform="translate(-143.326 -255.023)" opacity="0.1"/>
    <path id="Path_1173" data-name="Path 1173" d="M247,470.864s4.221-.422,5.272,10.536,2.747,13.492,2.747,13.492,1.051,5.69-1.479,9.063-7.385,10.536-7.385,10.536-5.272,1.478-6.328-3.79l6.54-12.225s1.057-4.218-1.474-7.168S240.464,468.742,247,470.864Z" transform="translate(-142.968 -254.499)" fill="#fc6681"/>
    <path id="Path_1174" data-name="Path 1174" d="M246.616,485.57s-.423,6.535,1.474,10.119,1.9,8.219,0,10.753" transform="translate(-146.059 -261.316)" opacity="0.1"/>
    <path id="Path_1175" data-name="Path 1175" d="M244.7,467.744s1.69-1.684,6.54-1.895,6.962-1.689,6.962-1.689" transform="translate(-145.2 -251.497)" opacity="0.1"/>
    <path id="Path_1176" data-name="Path 1176" d="M255.74,418.061c1.279.157,2.747.6,3.207,1.8a13.388,13.388,0,0,1,.293,1.386c.477,1.841,2.552,2.707,3.831,4.109a9.775,9.775,0,0,1,1.994,4.559,42.842,42.842,0,0,1,.742,14.32c-.412,3.5-1.251,6.941-1.49,10.449s.2,7.206,2.118,10.157a24.894,24.894,0,0,1,2.5,3.79,7.307,7.307,0,0,1-4.432,1.175q-2.709.087-5.418,0a5.8,5.8,0,0,1-2.769-.574,4.23,4.23,0,0,1-1.452-1.559,11.157,11.157,0,0,1-1.257-5.918c.043-2.046.368-4.071.406-6.113a5.493,5.493,0,0,0-.7-3.205,10.389,10.389,0,0,0-1.772-1.624c-2.254-2-3.029-5.208-3.1-8.219s.417-6.031.163-9.036c-.1-1.175-.542-2.588-1.7-2.815a7.36,7.36,0,0,1-1.084-.141c-.932-.357-.84-1.668-1.084-2.626-.3-1.083-1.214-1.906-1.474-2.994-.607-2.55,2.639-5.593,4.768-6.5S253.454,417.779,255.74,418.061Z" transform="translate(-144.504 -230.249)" opacity="0.1"/>
    <path id="Path_1177" data-name="Path 1177" d="M256.108,417.288c1.279.162,2.742.6,3.208,1.8a13.225,13.225,0,0,1,.293,1.391c.477,1.841,2.552,2.707,3.831,4.1a9.775,9.775,0,0,1,1.994,4.559,42.844,42.844,0,0,1,.742,14.321c-.412,3.5-1.252,6.941-1.49,10.449s.2,7.206,2.118,10.157a24.892,24.892,0,0,1,2.5,3.79,7.306,7.306,0,0,1-4.432,1.175q-2.709.087-5.445,0a5.8,5.8,0,0,1-2.769-.574,4.256,4.256,0,0,1-1.452-1.554,11.135,11.135,0,0,1-1.257-5.923c.043-2.046.368-4.071.406-6.113a5.5,5.5,0,0,0-.7-3.205,10.613,10.613,0,0,0-1.772-1.624c-2.254-2-3.034-5.2-3.11-8.219s.423-6.031.168-9.036c-.1-1.175-.542-2.588-1.7-2.815a7.364,7.364,0,0,1-1.084-.141c-.932-.357-.84-1.668-1.084-2.626-.3-1.083-1.214-1.906-1.474-2.994-.607-2.545,2.639-5.593,4.768-6.5S253.821,417.028,256.108,417.288Z" transform="translate(-144.66 -229.899)" fill="#472727"/>
    <ellipse id="Ellipse_65" data-name="Ellipse 65" cx="13.003" cy="1.787" rx="13.003" ry="1.787" transform="translate(507.754 373.236)" fill="#9bc93a" opacity="0.1"/>
    <ellipse id="Ellipse_66" data-name="Ellipse 66" cx="13.003" cy="1.787" rx="13.003" ry="1.787" transform="translate(457.94 378.287)" fill="#9bc93a" opacity="0.1"/>
    <ellipse id="Ellipse_67" data-name="Ellipse 67" cx="13.003" cy="1.787" rx="13.003" ry="1.787" transform="translate(399.268 371.455)" fill="#9bc93a" opacity="0.1"/>
    <ellipse id="Ellipse_68" data-name="Ellipse 68" cx="9.243" cy="1.267" rx="9.243" ry="1.267" transform="translate(481.639 393.176)" fill="#9bc93a" opacity="0.1"/>
    <ellipse id="Ellipse_69" data-name="Ellipse 69" cx="9.243" cy="1.267" rx="9.243" ry="1.267" transform="translate(429.939 391.904)" fill="#9bc93a" opacity="0.1"/>
    <path id="Path_1178" data-name="Path 1178" d="M882.92,689.051s18.237-59.74-2.855-83.671c-15.778-17.9-33.684-15.761-41.719-13.536a14.827,14.827,0,0,0-9.568,7.948c-2.8,6.042-2.3,15.858,17.5,27.309,33.142,19.172,35.218,45.479,35.218,45.479Z" transform="translate(-412.253 -309.383)" fill="#9bc93a"/>
    <path id="Path_1179" data-name="Path 1179" d="M852.77,608.71s53.764,16.784,41.719,88.744" transform="translate(-423.811 -317.786)" fill="none" stroke="#565987" stroke-miterlimit="10" stroke-width="1"/>
    <path id="Path_1180" data-name="Path 1180" d="M906.068,619.84s-7.406,4.981-5.05,12.453" transform="translate(-445.706 -322.89)" fill="none" stroke="#565987" stroke-miterlimit="10" stroke-width="1"/>
    <path id="Path_1181" data-name="Path 1181" d="M862.72,625.605s4.53-4.6,10.034-2.063" transform="translate(-428.37 -324.237)" fill="none" stroke="#565987" stroke-miterlimit="10" stroke-width="1"/>
    <path id="Path_1182" data-name="Path 1182" d="M902,669.47s7.943-4.028,10,1.018" transform="translate(-446.368 -344.951)" fill="none" stroke="#565987" stroke-miterlimit="10" stroke-width="1"/>
    <path id="Path_1183" data-name="Path 1183" d="M933.1,686.255s-5.96-.477-6.074,2.377" transform="translate(-457.837 -353.333)" fill="none" stroke="#565987" stroke-miterlimit="10" stroke-width="1"/>
    <path id="Path_1184" data-name="Path 1184" d="M903.857,737.516s-21.358-43.422-27.226-42.469c-2.785.449-4.069,3.189-4.654,5.956a17.46,17.46,0,0,0,1.165,10.568C876.165,718.507,884.292,731.7,903.857,737.516Z" transform="translate(-432.453 -357.371)" fill="#9bc93a"/>
    <path id="Path_1185" data-name="Path 1185" d="M881.15,710.28s22.42,32.485,26.755,33.914" transform="translate(-436.815 -364.364)" fill="none" stroke="#565987" stroke-miterlimit="10" stroke-width="1"/>
    <line id="Line_1" data-name="Line 1" x2="5.234" transform="translate(442.271 350.989)" fill="none" stroke="#565987" stroke-miterlimit="10" stroke-width="1"/>
    <line id="Line_2" data-name="Line 2" x2="8.203" y2="0.352" transform="translate(448.54 362.873)" fill="none" stroke="#565987" stroke-miterlimit="10" stroke-width="1"/>
    <line id="Line_3" data-name="Line 3" x1="0.889" y2="4.272" transform="translate(452.641 353.366)" fill="none" stroke="#565987" stroke-miterlimit="10" stroke-width="1"/>
    <line id="Line_4" data-name="Line 4" x1="0.157" y2="3.882" transform="translate(462.096 366.36)" fill="none" stroke="#565987" stroke-miterlimit="10" stroke-width="1"/>
    <path id="Path_1186" data-name="Path 1186" d="M929.94,737.516s21.358-43.422,27.226-42.469c2.79.449,4.074,3.189,4.654,5.956a17.461,17.461,0,0,1-1.165,10.568C957.6,718.507,949.478,731.7,929.94,737.516Z" transform="translate(-459.17 -357.371)" fill="#9bc93a"/>
    <path id="Path_1187" data-name="Path 1187" d="M957.279,710.28s-22.42,32.485-26.749,33.914" transform="translate(-459.44 -364.364)" fill="none" stroke="#565987" stroke-miterlimit="10" stroke-width="1"/>
    <line id="Line_5" data-name="Line 5" x1="5.234" transform="translate(494.664 350.989)" fill="none" stroke="#565987" stroke-miterlimit="10" stroke-width="1"/>
    <line id="Line_6" data-name="Line 6" x1="8.203" y2="0.352" transform="translate(485.426 362.873)" fill="none" stroke="#565987" stroke-miterlimit="10" stroke-width="1"/>
    <line id="Line_7" data-name="Line 7" x2="0.889" y2="4.272" transform="translate(488.639 353.366)" fill="none" stroke="#565987" stroke-miterlimit="10" stroke-width="1"/>
    <line id="Line_8" data-name="Line 8" x2="0.157" y2="3.882" transform="translate(479.916 366.36)" fill="none" stroke="#565987" stroke-miterlimit="10" stroke-width="1"/>
    <path id="Path_1188" data-name="Path 1188" d="M861.178,787.258a3.688,3.688,0,0,1-1.214-1.835,1.624,1.624,0,0,1,.851-1.868,2.373,2.373,0,0,1,2.243.791,2.977,2.977,0,0,0,2.167,1.056,3.339,3.339,0,0,1-1.03-3.113,1.31,1.31,0,0,1,.287-.628c.433-.466,1.219-.265,1.739.1,1.625,1.159,2.108,3.4,2.118,5.414a10.209,10.209,0,0,0,0-2.231,2.29,2.29,0,0,1,.84-1.971,2.521,2.521,0,0,1,1.279-.3,2.656,2.656,0,0,1,2.075.59,2.06,2.06,0,0,1-.081,2.545,7.936,7.936,0,0,1-2.167,1.716,4.82,4.82,0,0,0-1.533,1.462,1.885,1.885,0,0,0-.114.26H864a12.834,12.834,0,0,1-2.817-1.982Z" transform="translate(-427.083 -396.973)" fill="#9bc93a"/>
    <path id="Path_1189" data-name="Path 1189" d="M1011.4,754.981a3.687,3.687,0,0,1-1.214-1.836,1.624,1.624,0,0,1,.845-1.862,2.37,2.37,0,0,1,2.249.785,3.12,3.12,0,0,0,2.167,1.083,3.339,3.339,0,0,1-1.029-3.113,1.309,1.309,0,0,1,.287-.628c.434-.466,1.219-.265,1.739.1,1.625,1.159,2.108,3.4,2.118,5.414a10.215,10.215,0,0,0,0-2.231,2.29,2.29,0,0,1,.84-1.971,2.519,2.519,0,0,1,1.279-.3,2.634,2.634,0,0,1,2.07.59,2.053,2.053,0,0,1-.081,2.545,7.915,7.915,0,0,1-2.167,1.716,4.82,4.82,0,0,0-1.534,1.462,1.918,1.918,0,0,0-.114.26h-4.643A12.838,12.838,0,0,1,1011.4,754.981Z" transform="translate(-495.913 -382.184)" fill="#9bc93a"/>
    <path id="Path_1190" data-name="Path 1190" d="M961.334,787.258a3.7,3.7,0,0,1-1.219-1.835,1.624,1.624,0,0,1,.851-1.868,2.386,2.386,0,0,1,2.248.791,2.987,2.987,0,0,0,2.167,1.056,3.318,3.318,0,0,1-1.03-3.113,1.262,1.262,0,0,1,.287-.628c.433-.466,1.214-.265,1.734.1,1.625,1.159,2.113,3.4,2.118,5.414a10.214,10.214,0,0,0,.032-2.231,2.284,2.284,0,0,1,.835-1.971,2.535,2.535,0,0,1,1.279-.3,2.65,2.65,0,0,1,2.075.59,2.06,2.06,0,0,1-.081,2.545,7.993,7.993,0,0,1-2.167,1.716,4.708,4.708,0,0,0-1.533,1.462,1.38,1.38,0,0,0-.114.26h-4.649A12.8,12.8,0,0,1,961.334,787.258Z" transform="translate(-472.971 -396.973)" fill="#9bc93a"/>
    <path id="Path_1191" data-name="Path 1191" d="M817.11,726.94s-1.745,2.274.8,5.712,4.649,6.34,3.793,8.484c0,0-3.841-6.383-6.968-6.5S813.67,730.762,817.11,726.94Z" transform="translate(-405.679 -372.004)" fill="#9bc93a"/>
    <path id="Path_1192" data-name="Path 1192" d="M817.114,726.94a2.7,2.7,0,0,0-.358.715c-3.05,3.579-4.676,6.925-1.745,7.006,2.736.081,6.014,4.965,6.794,6.194a1.713,1.713,0,0,1-.092.281s-3.841-6.383-6.968-6.5S813.673,730.762,817.114,726.94Z" transform="translate(-405.683 -372.004)" opacity="0.1"/>
    <path id="Path_1193" data-name="Path 1193" d="M814.44,731.866c0,.8.092,1.451.2,1.451s.2-.65.2-1.451-.108-.422-.222-.422S814.44,731.065,814.44,731.866Z" transform="translate(-406.249 -374.028)" fill="#ffd037"/>
    <path id="Path_1194" data-name="Path 1194" d="M812.027,733.6c.7.379,1.317.612,1.371.514s-.471-.487-1.176-.872-.428-.1-.482,0S811.323,733.217,812.027,733.6Z" transform="translate(-404.947 -374.805)" fill="#ffd037"/>
    <path id="Path_1195" data-name="Path 1195" d="M833.357,726.94s1.739,2.274-.807,5.712-4.643,6.34-3.793,8.484c0,0,3.841-6.383,6.973-6.5S836.8,730.762,833.357,726.94Z" transform="translate(-412.721 -372.004)" fill="#9bc93a"/>
    <path id="Path_1196" data-name="Path 1196" d="M833.438,726.94a2.8,2.8,0,0,1,.352.715c3.056,3.579,4.681,6.925,1.745,7.006-2.709.081-6.009,4.965-6.794,6.194a.905.905,0,0,0,.092.281s3.841-6.383,6.973-6.5S836.878,730.762,833.438,726.94Z" transform="translate(-412.801 -372.004)" opacity="0.1"/>
    <path id="Path_1197" data-name="Path 1197" d="M843.041,731.866c0,.8-.087,1.451-.2,1.451s-.2-.65-.2-1.451.114-.422.222-.422S843.041,731.065,843.041,731.866Z" transform="translate(-419.17 -374.028)" fill="#ffd037"/>
    <path id="Path_1198" data-name="Path 1198" d="M844.278,733.6c-.7.379-1.322.612-1.371.514s.472-.487,1.176-.872.428-.1.482,0S844.982,733.217,844.278,733.6Z" transform="translate(-419.291 -374.805)" fill="#ffd037"/>
    <path id="Path_1199" data-name="Path 1199" d="M827.031,750.382s-4.876-.152-6.339-1.2-7.493-2.29-7.856-.612-7.325,8.333-1.82,8.376,12.776-.855,14.244-1.749S827.031,750.382,827.031,750.382Z" transform="translate(-403.713 -381.548)" fill="#a8a8a8"/>
    <path id="Path_1200" data-name="Path 1200" d="M810.913,758.588c5.5.043,12.781-.855,14.25-1.749,1.111-.677,1.561-3.113,1.707-4.239h.163s-.309,3.925-1.772,4.818-8.745,1.792-14.244,1.749c-1.587,0-2.14-.579-2.108-1.413C809.131,758.263,809.732,758.577,810.913,758.588Z" transform="translate(-403.714 -383.771)" opacity="0.2"/>
    <ellipse id="Ellipse_70" data-name="Ellipse 70" cx="18.812" cy="2.777" rx="18.812" ry="2.777" transform="translate(71.83 379.511)" fill="#9bc93a" opacity="0.1"/>
    <ellipse id="Ellipse_71" data-name="Ellipse 71" cx="18.812" cy="2.777" rx="18.812" ry="2.777" transform="translate(117.38 404.443)" fill="#9bc93a" opacity="0.1"/>
    <ellipse id="Ellipse_72" data-name="Ellipse 72" cx="12.456" cy="1.391" rx="12.456" ry="1.391" transform="translate(324.693 340.865)" fill="#9bc93a" opacity="0.1"/>
    <ellipse id="Ellipse_73" data-name="Ellipse 73" cx="12.456" cy="1.391" rx="12.456" ry="1.391" transform="translate(266.465 380.897)" fill="#9bc93a" opacity="0.1"/>
    <ellipse id="Ellipse_74" data-name="Ellipse 74" cx="12.456" cy="1.391" rx="12.456" ry="1.391" transform="translate(240.214 405.829)" fill="#9bc93a" opacity="0.1"/>
  </g>
</svg>
