<svg xmlns="http://www.w3.org/2000/svg" width="568" height="400" viewBox="0 0 568 400">
  <g id="Group_2665" data-name="Group 2665" transform="translate(97.085 -2100)">
    <g id="Group_2666" data-name="Group 2666" transform="translate(-67.917 2126.17)">
      <ellipse id="Ellipse_51" data-name="Ellipse 51" cx="23.994" cy="48.957" rx="23.994" ry="48.957" transform="translate(410.26 218.119)" fill="#5d44c9"/>
      <path id="Path_1039" data-name="Path 1039" d="M857.068,647.917c9.609-57.656.1-115.1,0-115.678l-1.869.317c.1.57,9.555,57.717,0,115.05Z" transform="translate(-425.039 -300.706)" fill="#9bc93a"/>
      <rect id="Rectangle_2877" data-name="Rectangle 2877" width="1.896" height="24.606" transform="translate(412.223 258.005) rotate(-61.858)" fill="#9bc93a"/>
      <rect id="Rectangle_2878" data-name="Rectangle 2878" width="24.606" height="1.896" transform="translate(435.135 273.775) rotate(-28.158)" fill="#9bc93a"/>
      <ellipse id="Ellipse_52" data-name="Ellipse 52" cx="46.929" cy="95.754" rx="46.929" ry="95.754" transform="translate(444.974 93.468)" fill="#9bc93a" opacity="0.2"/>
      <path id="Path_1040" data-name="Path 1040" d="M967.518,533.19c18.77-112.621.189-224.831,0-225.951l-1.869.317c.189,1.117,18.716,113.026,0,225.324Z" transform="translate(-480.842 -187.011)" fill="#9bc93a"/>
      <rect id="Rectangle_2879" data-name="Rectangle 2879" width="1.896" height="48.127" transform="translate(449.262 171.034) rotate(-61.858)" fill="#9bc93a"/>
      <rect id="Rectangle_2880" data-name="Rectangle 2880" width="48.127" height="1.896" transform="translate(494.056 203.472) rotate(-28.158)" fill="#9bc93a"/>
      <ellipse id="Ellipse_53" data-name="Ellipse 53" cx="64.218" cy="131.031" rx="64.218" ry="131.031" transform="translate(316.527)" fill="#9bc93a" opacity="0.2"/>
      <path id="Path_1041" data-name="Path 1041" d="M738.246,449.206c25.676-154.52.259-308.475,0-310.012l-1.869.318c.259,1.534,25.622,155.187,0,309.383Z" transform="translate(-365.001 -103.027)" fill="#9bc93a"/>
      <rect id="Rectangle_2881" data-name="Rectangle 2881" width="1.896" height="65.857" transform="translate(322.556 106.239) rotate(-61.858)" fill="#9bc93a"/>
      <rect id="Rectangle_2882" data-name="Rectangle 2882" width="65.857" height="1.896" transform="matrix(0.882, -0.472, 0.472, 0.882, 383.858, 151.251)" fill="#9bc93a"/>
      <path id="Path_1043" data-name="Path 1043" d="M209.386,734.926H198.5c-5.693,0-10.778.4-14.135,2.56A18.3,18.3,0,0,0,168.327,728H157.443a18.3,18.3,0,0,0-18.3,18.3h88.549C227.689,736.194,219.494,734.926,209.386,734.926Z" transform="translate(-139.14 -399.627)" fill="#5d44c9"/>
      <path id="Path_1044" data-name="Path 1044" d="M881.154,755.471h46.487c-.235-8.673-6.73-10.388-17.8-10.388H898.956C887.884,745.083,881.388,746.8,881.154,755.471Z" transform="translate(-438.146 -408.259)" fill="#5d44c9"/>
    </g>
    <path id="Path_1059" data-name="Path 1059" d="M536.326,699.129H0V698.05H536.559Z" transform="translate(-97.085 1774.368)" fill="#3f3d56"/>
    <g id="Group_2667" data-name="Group 2667" transform="translate(5.959 2100)">
      <path id="Path_1010" data-name="Path 1010" d="M696.143,392.43s1.308,17.829,1.308,18.49-9.154,46.224-9.154,46.224-13.077,25.093,0,24.433,9.154-23.772,9.154-23.772l13.731-38.3L705.3,392.43Z" transform="translate(-502.929 -224.071)" fill="#ffb8b8"/>
      <path id="Path_1011" data-name="Path 1011" d="M464.118,667.535l1.961,14.527-13.731,1.321,1.962-17.829Z" transform="translate(-206.171 -299.754)" fill="#ffb8b8"/>
      <path id="Path_1012" data-name="Path 1012" d="M393.036,667.535l-1.962,14.527,13.731,1.321-1.962-17.829Z" transform="translate(-178.244 -299.754)" fill="#ffb8b8"/>
      <path id="Path_1013" data-name="Path 1013" d="M716.129,505.065l-3.269,4.622s-1.962,19.81,0,26.414,5.885,36.979,5.885,38.96.654,3.3,0,3.962,0,7.264,0,7.264v3.3l8.5,48.865s-5.231,5.943-1.308,5.943,18.308,0,17.654-6.6l-1.307-.661s-1.962-43.582-1.308-45.564,1.308-14.528,1.308-14.528l5.884-40.281,11.116,38.96,2.616,58.11s-2.615,6.6,0,7.924,13.731,5.943,14.385-.66,3.923-64.053,3.923-66.694-1.308-43.582-1.308-43.582.654-6.6,1.308-7.924-.654-2.641,0-4.622-1.308-8.584-1.308-8.584l-29.424-7.924Z" transform="translate(-516.376 -273.313)" fill="#6750cc"/>
      <path id="Path_1014" data-name="Path 1014" d="M746.089,774.19s3.269-3.3-1.308-3.3a21.114,21.114,0,0,0-8.5,1.981l-3.269,11.886s-13.4,10.9,1.635,9.575,17.327-1.651,17.981-2.971c.459-.927-.37-10.636-.906-16.344a1.533,1.533,0,0,0-.907-1.272,1.506,1.506,0,0,0-1.54.2A2.552,2.552,0,0,1,746.089,774.19Z" transform="translate(-523.451 -394.522)" fill="#2f2e41"/>
      <path id="Path_1015" data-name="Path 1015" d="M806.131,774.19s-3.269-3.3,1.307-3.3a21.112,21.112,0,0,1,8.5,1.981l3.269,11.886s13.4,10.9-1.635,9.575-19.289-1.651-19.943-2.971c-.455-.92,1.31-10.491,2.423-16.214a1.885,1.885,0,0,1,1.176-1.405,1.855,1.855,0,0,1,1.8.271A2.533,2.533,0,0,0,806.131,774.19Z" transform="translate(-555.377 -394.522)" fill="#2f2e41"/>
      <path id="Path_1016" data-name="Path 1016" d="M724.4,283.694s2.615,13.207,2.615,15.188,11.116,7.924,11.116,7.924l12.423-15.848s-7.846-11.226-7.846-13.867Z" transform="translate(-522.034 -172.125)" fill="#ffb8b8"/>
      <path id="Path_1017" data-name="Path 1017" d="M721.069,309.014s-5.7-1.532-7.426-4.068c0,0-18.074,17.935-18.074,21.236l14.385,25.753s0,9.245,1.308,9.905,0,0,0,2.642-3.923,19.81-2.615,22.452,2.615.66,1.308,4.622-4.577,25.093-4.577,25.093,11.77-3.962,28.77,2.641,37.27-2.641,37.27-2.641-5.231-11.886-3.923-15.848-3.269-11.226-3.269-11.226l-3.269-60.751s4.577-27.074,1.307-28.395l-6.538-2.641-20.939-2.6S729.569,308.354,721.069,309.014Z" transform="translate(-508.892 -180.276)" fill="#3f3d56"/>
      <path id="Path_1018" data-name="Path 1018" d="M700.889,343.171l-6.539,4.622s-3.269,9.905,0,14.528,4.577,11.226,4.577,11.226L712,372.226Z" transform="translate(-507.675 -201.886)" fill="#3f3d56"/>
      <path id="Path_1019" data-name="Path 1019" d="M547.868,181.166V120.958a34.677,34.677,0,0,0-34.5-34.847H387.057a34.677,34.677,0,0,0-34.5,34.847V451.264a34.677,34.677,0,0,0,34.5,34.847H513.363a34.677,34.677,0,0,0,34.5-34.847v-270.1Z" transform="translate(-352.552 -86.111)" fill="#e6e6e6"/>
      <path id="Path_1020" data-name="Path 1020" d="M522.729,102.606H506.242a12.469,12.469,0,0,1-1.175,11.566,12.21,12.21,0,0,1-10.16,5.467H422.548a12.21,12.21,0,0,1-10.159-5.467,12.469,12.469,0,0,1-1.175-11.566h-15.4a25.9,25.9,0,0,0-25.768,26.023V458.451a25.9,25.9,0,0,0,25.768,26.023H522.729A25.9,25.9,0,0,0,548.5,458.451h0V128.629a25.9,25.9,0,0,0-25.768-26.023Z" transform="translate(-360.526 -93.54)" fill="#fff"/>
      <path id="Path_1021" data-name="Path 1021" d="M547.574,333.808H390.693a2.923,2.923,0,0,1-2.905-2.934v-39.3a2.923,2.923,0,0,1,2.905-2.934H547.574a2.923,2.923,0,0,1,2.905,2.934v39.3a2.923,2.923,0,0,1-2.905,2.934Zm-156.881-44a1.754,1.754,0,0,0-1.743,1.76v39.3a1.754,1.754,0,0,0,1.743,1.76H547.574a1.754,1.754,0,0,0,1.743-1.76v-39.3a1.754,1.754,0,0,0-1.743-1.76Z" transform="translate(-368.612 -177.326)" fill="#e6e6e6"/>
      <ellipse id="Ellipse_48" data-name="Ellipse 48" cx="11.834" cy="11.952" rx="11.834" ry="11.952" transform="translate(34.623 120.438)" fill="#e6e6e6"/>
      <path id="Path_1022" data-name="Path 1022" d="M486.487,312.49a1.992,1.992,0,0,0,0,3.984H579.47a1.992,1.992,0,0,0,0-3.984Z" transform="translate(-412.698 -188.068)" fill="#e6e6e6"/>
      <path id="Path_1023" data-name="Path 1023" d="M486.487,334.235a1.992,1.992,0,0,0,0,3.984H526.5a1.992,1.992,0,0,0,0-3.984Z" transform="translate(-412.698 -197.862)" fill="#e6e6e6"/>
      <path id="Path_1024" data-name="Path 1024" d="M547.574,565.808H390.693a2.923,2.923,0,0,1-2.905-2.934v-39.3a2.923,2.923,0,0,1,2.905-2.934H547.574a2.923,2.923,0,0,1,2.905,2.934v39.3A2.923,2.923,0,0,1,547.574,565.808Zm-156.881-44a1.754,1.754,0,0,0-1.743,1.761v39.3a1.754,1.754,0,0,0,1.743,1.761H547.574a1.754,1.754,0,0,0,1.743-1.761v-39.3a1.754,1.754,0,0,0-1.743-1.761Z" transform="translate(-368.612 -281.814)" fill="#e6e6e6"/>
      <ellipse id="Ellipse_49" data-name="Ellipse 49" cx="11.834" cy="11.952" rx="11.834" ry="11.952" transform="translate(34.623 247.95)" fill="#e6e6e6"/>
      <path id="Path_1025" data-name="Path 1025" d="M486.487,544.49a1.992,1.992,0,0,0,0,3.984h92.983a1.992,1.992,0,0,0,0-3.984Z" transform="translate(-412.698 -292.557)" fill="#e6e6e6"/>
      <path id="Path_1026" data-name="Path 1026" d="M486.487,566.235a1.992,1.992,0,0,0,0,3.984H526.5a1.992,1.992,0,0,0,0-3.984Z" transform="translate(-412.698 -302.35)" fill="#e6e6e6"/>
      <path id="Path_1027" data-name="Path 1027" d="M614.866,415.2v39.3a2.923,2.923,0,0,1-2.9,2.935H531.448V413.027h82.46A2.924,2.924,0,0,1,614.866,415.2Z" transform="translate(-434.089 -233.348)" fill="#9bc93a"/>
      <rect id="Rectangle_2876" data-name="Rectangle 2876" width="1.088" height="43.997" transform="translate(138.523 178.915)" fill="#fff"/>
      <path id="Path_1028" data-name="Path 1028" d="M547.519,412.4a2.836,2.836,0,0,0-1.943-.764H388.694a2.927,2.927,0,0,0-2.906,2.935v39.3a2.927,2.927,0,0,0,2.906,2.935H545.576a2.923,2.923,0,0,0,2.9-2.935v-39.3A2.922,2.922,0,0,0,547.519,412.4Zm-.2,41.474a1.756,1.756,0,0,1-1.742,1.759H388.694a1.752,1.752,0,0,1-1.741-1.759v-39.3a1.766,1.766,0,0,1,.509-1.244,1.732,1.732,0,0,1,1.232-.515H545.576a1.752,1.752,0,0,1,1.742,1.759Z" transform="translate(-367.7 -232.722)" fill="#e6e6e6"/>
      <path id="Path_1029" data-name="Path 1029" d="M449.961,449.487H412.486a1.992,1.992,0,0,0,0,3.985h37.475a1.992,1.992,0,0,0,0-3.985Z" transform="translate(-378.969 -249.769)" fill="#e6e6e6"/>
      <path id="Path_1030" data-name="Path 1030" d="M561.026,444.111a3.567,3.567,0,0,0-4.838.366,3.755,3.755,0,0,0,.183,5.157l4.588,4.634a.54.54,0,0,0,.77,0l4.588-4.634a3.755,3.755,0,0,0,.183-5.157,3.567,3.567,0,0,0-4.838-.366.514.514,0,0,1-.636,0Z" transform="translate(-444.938 -246.998)" fill="#fff"/>
      <path id="Path_1031" data-name="Path 1031" d="M645.947,456.721h-6.769a.545.545,0,0,1-.528-.416l-1.9-7.695a.553.553,0,0,1,.1-.472.542.542,0,0,1,.429-.211h10.578a.542.542,0,0,1,.429.211.553.553,0,0,1,.1.472l-1.9,7.695A.545.545,0,0,1,645.947,456.721Z" transform="translate(-482.074 -249.066)" fill="#fff"/>
      <path id="Path_1032" data-name="Path 1032" d="M647.22,452.427a.274.274,0,0,0-.272.275v3.847a.272.272,0,1,0,.544,0V452.7A.274.274,0,0,0,647.22,452.427Z" transform="translate(-486.732 -251.093)" fill="#9bc93a"/>
      <path id="Path_1033" data-name="Path 1033" d="M651.014,456.592a.275.275,0,0,0,.189.339.272.272,0,0,0,.335-.191l1.026-3.7a.276.276,0,0,0-.189-.339.272.272,0,0,0-.335.191Z" transform="translate(-488.581 -251.21)" fill="#9bc93a"/>
      <path id="Path_1034" data-name="Path 1034" d="M641.277,452.686a.264.264,0,0,0-.073.01.276.276,0,0,0-.189.339l1.026,3.7a.272.272,0,0,0,.335.191.275.275,0,0,0,.189-.339l-1.026-3.705A.273.273,0,0,0,641.277,452.686Z" transform="translate(-484.023 -251.21)" fill="#9bc93a"/>
      <path id="Path_1035" data-name="Path 1035" d="M648.016,444.576h-3.809v-.549a1.089,1.089,0,1,0-2.177,0v.549H638.22a.275.275,0,0,0,0,.549h9.8a.275.275,0,0,0,0-.549Z" transform="translate(-482.63 -246.814)" fill="#fff"/>
      <ellipse id="Ellipse_50" data-name="Ellipse 50" cx="17" cy="17.169" rx="17" ry="17.169" transform="translate(191.253 81.854)" fill="#ffb8b8"/>
      <path id="Path_1036" data-name="Path 1036" d="M706.579,224.594,703.63,223.4s6.166-6.856,14.744-6.259l-2.413-2.683s5.9-2.385,11.259,3.875c2.819,3.29,6.08,7.158,8.113,11.515h3.158l-1.318,2.931,4.613,2.931-4.735-.527a16.374,16.374,0,0,1-.448,7.591l.127,2.317s-5.489-8.576-5.489-9.768v2.981s-2.949-2.683-2.949-4.471l-1.609,2.087-.8-3.279-9.919,3.279,1.608-2.683-6.166.894,2.413-3.279s-6.97,3.875-7.238,7.154-3.753,7.452-3.753,7.452l-1.609-2.981S698.8,229.065,706.579,224.594Z" transform="translate(-511.306 -143.716)" fill="#2f2e41"/>
      <path id="Path_1037" data-name="Path 1037" d="M742.671,353.984s-3.786,9.833-3,19.562a10.376,10.376,0,0,0,1.688,4.871h0l-46.387,22.241s-20.96,2.192-15.729,11.436,24.193-4.622,24.193-4.622,49.693-7.264,53.616-14.528,6.539-37.639,6.539-37.639Z" transform="translate(-501.071 -206.756)" fill="#ffb8b8"/>
      <path id="Path_1038" data-name="Path 1038" d="M796.262,304.724h9.808s7.192,1.321,9.154,14.527,3.923,16.509,1.962,16.509-25.5-.66-25.5-1.321S796.262,304.724,796.262,304.724Z" transform="translate(-552.7 -184.57)" fill="#3f3d56"/>
    </g>
  </g>
</svg>
