<svg id="print-alt-1" xmlns="http://www.w3.org/2000/svg" width="32" height="32" viewBox="0 0 32 32">
  <path id="Path" d="M28,14.667H24A1.333,1.333,0,0,1,24,12h4a1.333,1.333,0,0,0,1.333-1.333V4A1.333,1.333,0,0,0,28,2.667H4A1.333,1.333,0,0,0,2.667,4v6.667A1.333,1.333,0,0,0,4,12H8a1.333,1.333,0,1,1,0,2.667H4a4,4,0,0,1-4-4V4A4,4,0,0,1,4,0H28a4,4,0,0,1,4,4v6.667A4,4,0,0,1,28,14.667Z" transform="translate(0 12)" fill="#545454"/>
  <path id="Path-2" data-name="Path" d="M17.333,14.667h-16A1.333,1.333,0,0,1,0,13.333v-12A1.333,1.333,0,0,1,1.333,0h9.333a1.333,1.333,0,0,1,0,2.667h-8V12H16V8a1.333,1.333,0,0,1,2.667,0v5.333A1.333,1.333,0,0,1,17.333,14.667Z" transform="translate(6.667)" fill="#545454"/>
  <path id="Shape" d="M17.333,14.666h-16A1.335,1.335,0,0,1,0,13.333v-12A1.335,1.335,0,0,1,1.333,0h16a1.335,1.335,0,0,1,1.334,1.333v12A1.335,1.335,0,0,1,17.333,14.666Zm-14.666-12V12H16V2.666Z" transform="translate(6.667 17.333)" fill="#545454"/>
  <path id="Path-3" data-name="Path" d="M9.333,2.667h-8A1.333,1.333,0,0,1,1.333,0h8a1.333,1.333,0,0,1,0,2.667Z" transform="translate(10.667 21.333)" fill="#545454"/>
  <path id="Path-4" data-name="Path" d="M9.333,2.667h-8A1.333,1.333,0,0,1,1.333,0h8a1.333,1.333,0,0,1,0,2.667Z" transform="translate(10.667 25.333)" fill="#545454"/>
  <path id="Shape-2" data-name="Shape" d="M8,9.331H1.333A1.335,1.335,0,0,1,0,8V1.331A1.328,1.328,0,0,1,.827.1,1.333,1.333,0,0,1,2.28.384L8.947,7.051A1.342,1.342,0,0,1,8,9.331ZM2.666,4.544v2.12h2.12Z" transform="translate(16 0.002)" fill="#545454"/>
</svg>
