<svg id="View_Alt_1" data-name="View / Alt 1" xmlns="http://www.w3.org/2000/svg" width="24" height="24" viewBox="0 0 24 24">
  <g id="view-alt-1" transform="translate(0 5)">
    <path id="Shape" d="M12,14a15.949,15.949,0,0,1-5.747-.986,11.8,11.8,0,0,1-3.635-2.2A9.823,9.823,0,0,1,.063,7.358l0-.008a1.055,1.055,0,0,1,0-.7l0-.008A9.823,9.823,0,0,1,2.618,3.183,11.8,11.8,0,0,1,6.252.986,15.949,15.949,0,0,1,12,0a15.952,15.952,0,0,1,5.748.986,11.8,11.8,0,0,1,3.635,2.2,9.822,9.822,0,0,1,2.555,3.459l0,.008a1.055,1.055,0,0,1,0,.7l0,.008a9.822,9.822,0,0,1-2.555,3.459,11.8,11.8,0,0,1-3.635,2.2A15.952,15.952,0,0,1,12,14ZM12,2C5.19,2,2.7,5.827,2.1,7c.606,1.172,3.11,5,9.9,5,6.808,0,9.3-3.827,9.9-5C21.3,5.828,18.81,2,12,2Z" transform="translate(0 0)" fill="#545454"/>
    <path id="Shape-2" data-name="Shape" d="M7,14a7,7,0,1,1,7-7A7.008,7.008,0,0,1,7,14ZM7,2a5,5,0,1,0,3.535,1.464A5.006,5.006,0,0,0,7,2Z" transform="translate(5 0)" fill="#545454"/>
  </g>
</svg>
