<?xml version="1.0" encoding="utf-8"?>
<!-- Generator: Adobe Illustrator 23.0.3, SVG Export Plug-In . SVG Version: 6.00 Build 0)  -->
<svg version="1.1" id="Layer_1" xmlns="http://www.w3.org/2000/svg" xmlns:xlink="http://www.w3.org/1999/xlink" x="0px" y="0px"
	 viewBox="0 0 490.97 489.66" style="enable-background:new 0 0 490.97 489.66;" xml:space="preserve">
<style type="text/css">
	.st0{fill:#55B8FE;}
</style>
<g>
	<g>
		<path class="st0" d="M490.97,452.19c-2.11,9.67-5.9,18.33-13.71,24.94c-7.67,6.49-16.55,9.42-26.4,9.43
			c-51,0.07-102,0.15-152.99-0.02c-23.16-0.08-39.89-16.48-40.04-39.79c-0.32-51.15-0.31-102.31-0.01-153.47
			c0.14-23.49,16.94-39.82,40.45-39.89c50.68-0.15,101.36-0.12,152.04-0.01c20.73,0.04,35.29,11.95,39.93,32.11
			c0.17,0.75,0.48,1.47,0.73,2.21C490.97,342.52,490.97,397.36,490.97,452.19z M475.51,370.12c0-24.86,0.02-49.73-0.01-74.59
			c-0.02-17.19-9.42-26.64-26.61-26.66c-49.73-0.03-99.46-0.04-149.19,0.04c-3.3,0.01-6.73,0.36-9.88,1.28
			c-10.86,3.18-16.51,12.06-16.52,25.52c-0.02,49.41-0.02,98.82,0,148.23c0.01,17.87,9.26,27.14,27.07,27.15
			c49.41,0.01,98.82,0.02,148.23,0c17.5-0.01,26.89-9.4,26.91-26.86C475.52,419.52,475.51,394.82,475.51,370.12z"/>
		<path class="st0" d="M490.97,203.53c-2.14,9.66-5.95,18.32-13.77,24.93c-7.82,6.61-16.91,9.39-26.9,9.4
			c-50.68,0.07-101.36,0.14-152.03-0.02c-23.5-0.07-40.31-16.4-40.45-39.89c-0.3-51.15-0.31-102.31,0.01-153.47
			c0.15-23.5,17.02-39.75,40.52-39.81c50.68-0.12,101.36-0.1,152.03-0.01c20.69,0.04,35.13,11.87,39.87,32.17
			c0.17,0.75,0.48,1.46,0.72,2.19C490.97,93.87,490.97,148.7,490.97,203.53z M273.29,120.81c0,25.02-0.04,50.05,0.01,75.07
			c0.04,16.99,9.41,26.46,26.28,26.48c49.89,0.05,99.78,0.05,149.66,0c16.83-0.02,26.24-9.58,26.25-26.53
			c0.02-49.73,0.02-99.46,0-149.19c-0.01-16.91-9.48-26.48-26.31-26.49c-49.89-0.04-99.78-0.03-149.66,0.03
			c-3.15,0-6.42,0.31-9.44,1.16c-10.74,3.02-16.74,11.97-16.78,24.87C273.25,71.08,273.29,95.94,273.29,120.81z"/>
		<path class="st0" d="M1.31,121.25c0-25.33-0.06-50.66,0.02-75.99C1.4,25.83,12.12,11.33,30.25,6.21c3.48-0.98,7.21-1.49,10.83-1.5
			C92.22,4.62,143.36,4.55,194.5,4.69c19.22,0.05,33.81,11.33,38.6,29.49c1.04,3.95,1.38,8.18,1.39,12.28
			c0.09,49.87,0.08,99.73,0.05,149.6c-0.01,20.44-10.67,35.22-29.23,40.28c-3.94,1.07-8.17,1.48-12.26,1.49
			c-50.03,0.1-100.05,0.1-150.08,0.05c-25.12-0.02-41.62-16.53-41.65-41.6C1.28,171.27,1.31,146.26,1.31,121.25z M16.77,121.11
			c0,24.86-0.02,49.73,0.01,74.59c0.02,17.19,9.42,26.65,26.61,26.66c49.73,0.03,99.46,0.04,149.19-0.04
			c3.3-0.01,6.73-0.36,9.88-1.28c10.89-3.19,16.51-12.02,16.52-25.52c0.02-49.41,0.02-98.82,0-148.23
			c-0.01-17.88-9.26-27.15-27.06-27.15c-49.41-0.01-98.82-0.02-148.23,0C26.18,20.15,16.79,29.53,16.78,47
			C16.76,71.7,16.77,96.41,16.77,121.11z"/>
		<path class="st0" d="M1.31,370.02c0-25.49-0.09-50.98,0.03-76.47c0.1-19.26,11.13-33.84,29.31-38.73
			c3.94-1.06,8.17-1.42,12.28-1.43c50.03-0.09,100.05-0.09,150.08-0.05c20.3,0.02,35.1,10.85,40.07,29.5
			c1.05,3.94,1.4,8.18,1.41,12.28c0.09,49.87,0.09,99.73,0.05,149.6c-0.02,25.37-16.54,41.84-41.91,41.86
			c-49.87,0.03-99.73,0.03-149.6,0c-25.36-0.02-41.7-16.49-41.72-42C1.3,419.73,1.31,394.87,1.31,370.02z M16.77,369.84
			c0,24.7-0.01,49.41,0,74.11c0.01,17.8,9.32,27.13,27.11,27.13c49.25,0.01,98.5,0.01,147.75,0c18.16,0,27.34-9.17,27.34-27.36
			c0.02-49.25,0.02-98.5,0-147.75c-0.01-17.87-9.25-27.12-27.08-27.12c-49.41-0.02-98.82-0.02-148.23,0
			c-17.51,0.01-26.88,9.39-26.89,26.86C16.76,320.43,16.77,345.14,16.77,369.84z"/>
		<path class="st0" d="M369.94,377.68c-20.69,0-41.39,0-62.08-0.01c-1.59,0-3.22,0.11-4.76-0.21c-3.89-0.82-6.16-3.34-6.25-7.33
			c-0.1-4.02,2.13-6.59,5.95-7.6c1.5-0.4,3.16-0.28,4.75-0.28c42.03-0.01,84.05-0.01,126.08,0c1.43,0,2.91-0.1,4.28,0.22
			c4.08,0.94,6.38,3.58,6.23,7.82c-0.15,4.01-2.46,6.46-6.38,7.2c-1.55,0.29-3.17,0.19-4.76,0.19
			C411.96,377.68,390.95,377.68,369.94,377.68z"/>
		<path class="st0" d="M375.21,101.75c9.48-9.49,18.47-18.49,27.47-27.5c3.26-3.27,6.48-6.58,9.81-9.79
			c4.31-4.16,8.86-4.5,12.2-1.04c3.22,3.34,2.84,7.7-1.05,11.86c-0.65,0.7-1.35,1.35-2.03,2.03
			c-10.59,10.59-21.18,21.17-31.76,31.77c-1.1,1.1-2.14,2.28-3.69,3.93c2.43,2.31,4.76,4.43,6.99,6.66
			c11.28,11.25,22.54,22.52,33.8,33.78c0.68,0.68,1.37,1.34,2.02,2.03c4.18,4.43,4.54,8.78,1.01,12.18
			c-3.43,3.3-7.6,2.95-11.83-1.06c-2.19-2.08-4.29-4.27-6.43-6.41c-12.03-12.04-24.07-24.07-37.45-37.46
			c-1.29,2-2.16,3.99-3.58,5.42c-12.32,12.46-24.73,24.83-37.16,37.18c-1.45,1.44-3.12,3.49-4.83,3.64
			c-2.72,0.24-6.44,0.01-8.1-1.66c-1.66-1.66-1.9-5.38-1.65-8.1c0.16-1.71,2.2-3.38,3.65-4.83c13.71-13.76,27.48-27.47,41.59-41.55
			c-1.34-1.4-2.48-2.65-3.68-3.85c-10.81-10.82-21.63-21.63-32.43-32.45c-1.12-1.12-2.27-2.26-3.14-3.58
			c-2.24-3.39-1.86-6.78,0.94-9.57c2.79-2.78,6.18-3.23,9.56-0.94c1.43,0.97,2.7,2.22,3.93,3.45
			C351.19,77.7,362.99,89.52,375.21,101.75z"/>
		<path class="st0" d="M110.2,121.27c-16.76,0-32.84,0-48.92,0c-1.75,0-3.51,0.09-5.26-0.05c-4.92-0.37-7.97-3.44-7.92-7.84
			c0.05-4.39,3.13-7.45,8.13-7.52c10.36-0.14,20.72-0.06,31.07-0.07c7.45,0,14.89,0,22.9,0c0-2.24,0-3.95,0-5.65
			c0-15.62-0.03-31.23,0.02-46.85c0.02-6.19,2.71-9.51,7.54-9.58c5.04-0.07,7.87,3.36,7.88,9.78c0.03,17.2,0.01,34.39,0.01,52.3
			c1.97,0,3.66,0,5.34,0c17.69,0,35.38,0,53.06,0.01c1.59,0,3.2-0.05,4.77,0.18c4.01,0.58,6.3,3.05,6.58,7.01
			c0.29,4.01-1.81,6.74-5.62,7.82c-1.79,0.51-3.78,0.44-5.68,0.45c-19.26,0.03-38.53,0.02-58.46,0.02c0,1.95,0,3.63,0,5.32
			c0,17.85,0.01,35.7-0.02,53.54c0,1.74,0.08,3.57-0.39,5.21c-1.09,3.8-3.81,5.95-7.8,5.68c-3.93-0.26-6.56-2.55-7.04-6.56
			c-0.34-2.83-0.2-5.73-0.2-8.59C110.2,157.9,110.2,139.92,110.2,121.27z"/>
		<path class="st0" d="M121.28,408.9c-20.06,0-40.12,0-60.17,0c-0.96,0-1.91,0.01-2.87,0c-6.51-0.12-10.01-2.75-10.14-7.62
			c-0.13-5.07,3.46-8.03,10.17-8.04c33.11-0.04,66.22-0.02,99.33-0.02c9.39,0,18.78-0.01,28.18,0.01c4.07,0.01,7.64,1.05,9.26,5.28
			c1.55,4.04-0.75,8.6-5.08,9.76c-1.96,0.53-4.08,0.61-6.13,0.61C162.99,408.92,142.14,408.9,121.28,408.9z"/>
		<path class="st0" d="M121.59,354.51c-20.69,0-41.39,0.02-62.08-0.03c-2.2-0.01-4.52-0.11-6.56-0.83c-3.56-1.25-5.2-4.13-4.75-7.89
			c0.42-3.51,2.43-5.86,6-6.47c1.87-0.32,3.8-0.36,5.7-0.36c41.23-0.02,82.46-0.02,123.68,0c1.9,0,3.84,0.03,5.7,0.34
			c3.79,0.65,5.85,3.15,6.14,6.87c0.29,3.77-1.55,6.51-5.16,7.62c-1.93,0.6-4.06,0.71-6.11,0.71
			C163.29,354.53,142.44,354.51,121.59,354.51z"/>
	</g>
</g>
</svg>
