<?xml version="1.0" encoding="utf-8"?>
<!-- Generator: Adobe Illustrator 23.0.3, SVG Export Plug-In . SVG Version: 6.00 Build 0)  -->
<svg version="1.1" id="Layer_1" xmlns="http://www.w3.org/2000/svg" xmlns:xlink="http://www.w3.org/1999/xlink" x="0px" y="0px"
	 viewBox="0 0 358.23 222.17" style="enable-background:new 0 0 358.23 222.17;" xml:space="preserve">
<style type="text/css">
	.st0{fill:#FD9C94;}
	.st1{fill:#FD93A2;}
	.st2{fill:#8A75E8;}
	.st3{fill:#7274DC;}
	.st4{fill:#FCFCFC;}
	.st5{fill:#DA8ADE;}
	.st6{fill:#FC8890;}
	.st7{fill:#6365D7;}
	.st8{fill:#DC96E3;}
	.st9{fill:#BB91FA;}
	.st10{fill:#36396B;}
	.st11{fill:#F5954F;}
	.st12{fill:#A981F7;}
	.st13{fill:#9B83F0;}
	.st14{fill:#5B2B5C;}
	.st15{fill:#FB79AA;}
	.st16{fill:#FB809D;}
	.st17{fill:#FE8E86;}
	.st18{fill:#D6DCE6;}
	.st19{fill:#FBB847;}
	.st20{fill:#974D86;}
	.st21{fill:#FA85B9;}
	.st22{fill:#FC7CA3;}
	.st23{fill:#FDE1E5;}
	.st24{fill:#FC8EAA;}
	.st25{fill:#F3F7FA;}
	.st26{fill:#9571F4;}
	.st27{fill:#EAEEF1;}
	.st28{fill:#FB89B2;}
</style>
<g>
	<path class="st0" d="M146.95,42.55c16.17,0.72,32.34,1.44,48.52,2.16c-0.78,1.11-1.39,2.39-2.39,3.25
		c-0.56,0.48-1.74,0.24-2.64,0.32c0.17-0.79,0.35-1.58,0.5-2.38c0.02-0.12-0.09-0.27-0.22-0.59c-1.86,1.44-3.69,2.83-5.48,4.28
		c-0.16,0.13-0.16,0.6-0.09,0.88c0.46,1.75-0.53,2.26-2,2.46c-0.6,0.08-1.29,0.17-1.76,0.51c-4.36,3.25-8.9,6.31-11.87,11.06
		c-8.7-0.19-17.41-0.37-26.11-0.58c-5.25-0.13-10.51-0.32-15.76-0.46c-6.23-0.17-12.45-0.31-18.68-0.51
		c-2.07-0.06-4.14-0.22-6.2-0.37c-4.62-0.35-8.54,0.79-8.14,7.16c0.01,0.16-0.04,0.32-0.06,0.47c-0.76-0.47-1.81-0.77-2.25-1.45
		c-3.33-5.22-6.86-10.36-9.69-15.85c-2.09-4.04-3.22-8.58-4.78-12.89c7.95,0.18,15.9,0.32,23.85,0.56
		c6.52,0.2,13.03,0.52,19.54,0.78c2.7,0.17,5.41,0.31,8.11,0.52c8.89,0.68,16.35,4.19,22.06,11.16c0.36,0.45,0.91,0.74,1.37,1.11
		c0.02,0.52-0.1,1.11,0.09,1.56c0.22,0.51,0.92,1.34,1.06,1.27c2.29-1.08,4.53-2.28,6.77-3.45c-0.13-0.29-0.26-0.58-0.39-0.87
		c-1,0.29-1.99,0.73-3.01,0.82c-1.38,0.12-2.79-0.03-4.18-0.06c-0.1-0.62-0.03-1.34-0.33-1.83
		C150.9,48.55,148.91,45.56,146.95,42.55z"/>
	<path class="st1" d="M186.34,93.25c-0.32,0.63-0.63,1.27-0.94,1.91c-0.48,0.32-0.97,0.64-1.45,0.96c-1.73,1.01-3.53,1.9-5.15,3.06
		c-1.74,1.25-3.31,2.75-4.95,4.14c-0.12-2.07-0.37-4.14-0.35-6.2c0.06-8.14,0.25-16.29,0.3-24.43c0.02-3.42-0.28-6.79-4.25-8.19
		c2.97-4.75,7.51-7.81,11.87-11.06c0.46-0.34,1.15-0.43,1.76-0.51c1.47-0.2,2.45-0.71,2-2.46c-0.07-0.28-0.08-0.75,0.09-0.88
		c1.79-1.45,3.63-2.84,5.48-4.28c0.12,0.32,0.24,0.47,0.22,0.59c-0.15,0.8-0.33,1.59-0.5,2.38c0.9-0.08,2.08,0.16,2.64-0.32
		c0.99-0.85,1.61-2.14,2.39-3.25c4.16,0.14,8.32,0.28,12.47,0.42c6.72,0.35,13.45,0.7,20.17,1.04c2.88,0.03,5.76,0.05,8.64,0.08
		c0.27,0.28,0.55,0.55,0.82,0.83c0.21-0.27,0.42-0.53,0.63-0.8c0.8,0.12,1.6,0.25,2.4,0.37c0.52,2.81-2.27,3.4-3.61,4.43
		c-2.76,2.12-6.68,2.75-7.84,6.77c-0.08,0.27-0.39,0.54-0.67,0.66c-2.8,1.3-5.25,2.94-6.35,6.04c-0.07,0.2-0.56,0.21-0.82,0.37
		c-1.06,0.66-2.16,1.27-3.13,2.04c-1.86,1.47-3.64,3.04-5.47,4.54c-1.25,1.03-2.52,2.02-3.79,3.02"/>
	<path class="st1" d="M202.04,81.62c0.15,1.33-1.59,1.53-3.06,1.62c-0.87,0.05-1.7,0.88-2.55,1.37c-2.95,0-5.9,0-8.85,0.01
		c-2.7,0.01-4.45,1.27-4.55,3.21"/>
	<path class="st2" d="M303.47,28.46c6.45-1.23,11.93,0.7,15.96,5.73c2.1,2.61,3.78,5.79,4.8,8.98c1.62,5.05,2.53,10.33,3.74,15.51
		c-2.5,0.21-3.16,1.47-6.11,1.72c0.68,5.42,0.99,10.01,1.98,15.12c1.18,6.09-0.93,11.7-5.76,15.79c-1.74,1.48-4.33,2.1-5.67,3.93
		c-2.29,3.14-5.28,5.35-9.11,4.58c-0.1-3.93,0.67-8.8-1.75-12.34c-2.46-5.57-3.65-11.45-4.31-17.46c-0.27-2.43-2.32-3.91-4.7-3.49
		c-1.16,0.21-2.36,0.19-3.55,0.28c-1.9-4.31-3.8-8.61-5.69-12.92c-0.11-0.1-0.23-0.17-0.37-0.23c-0.53-1.51-1.06-3.03-1.59-4.54
		c-1.13-3.87-2.26-7.73-3.38-11.6c-0.49-3.19-1.83-6.53,1.49-9.1c0.47,0.71,0.87,1.49,1.43,2.12c3.93,4.45,7.88,8.86,11.83,13.29
		c1.26,1.41,4.84,1.93,6.47,1.08c0.59-0.31,1.37-0.24,2.06-0.35c0.6-0.1,1.19-0.21,1.79-0.31c1.12,3.22,2.24,6.45,3.36,9.67
		c3.14,9.63,4.06,19.52,3.26,29.71c0.94-0.65,1.42-1.32,1.75-2.06c2.15-4.8,3.1-9.96,2.93-15.09c-0.17-5.18-1.44-10.32-2.23-15.48
		c1.89,0.15,1.89-0.94,1.33-2.59c1.7,1.8,3.37,2.85,5.85,1.64c-0.38-2.04-0.53-4.26-1.22-6.29c-1.05-3.07-3.98-4.38-6.5-6
		C307.95,35.46,304.11,33.36,303.47,28.46z"/>
	<path class="st3" d="M335.29,60.54c0.11-0.09,0.22-0.1,0.35-0.05c-0.23,0.8-0.45,1.61-0.56,2c0.59,0.88,1.25,1.55,1.54,2.36
		c1.95,5.5,3.81,11.03,5.75,16.54c0.11,0.33,0.58,0.53,0.88,0.79c0.17-0.11,0.34-0.21,0.51-0.32c-0.35-0.83-0.7-1.65-1.05-2.48
		c2.73-1.14,3.3-0.79,4.05,1.7c0.25,0.84,1.47,1.39,2.24,2.08c-0.05,0.82-0.1,1.63-0.15,2.45c-0.07,0.33-0.14,0.67-0.21,1.01
		c-1.37,13.88-7.31,25.44-18.41,33.88c-5.42,4.12-11.64,7.19-17.5,10.73c-0.82,0.49-1.66,0.94-2.49,1.41
		c-1.99,0.33-3.58,1.28-5.31,3.4c1.53,0.16,2.48,0.25,3.42,0.35c0.15-0.14,0.29-0.28,0.44-0.42l-0.02,0.02
		c5.26,0.13,10.03-1.73,14.7-3.78c13.07-5.72,21.6-15.32,24.69-29.45c0.2-0.93,0.45-1.86,0.77-2.77c1.02-2.96,2.91-3.46,4.85-1.08
		c3.9,4.79,5.67,10.17,3.54,16.3c-2.02,5.79-5.96,10.25-10.64,13.92c-5.46,4.28-11.28,8.08-16.95,12.09
		c-1.16-0.5-2.27-1.24-3.49-1.47c-4.15-0.8-7.85,0.31-11.16,2.94c-3.49,2.77-6.39,2.46-9.41-0.87c-0.7-0.77-1.38-1.56-2.14-2.26
		c-0.9-0.82-1.9-1.13-2.4,0.38c-0.58,1.76-0.99,3.56-1.48,5.35c-1.68-0.31-3.36-0.62-5.05-0.92c1.1-2.14,1.82-4.62,3.37-6.36
		c4.42-4.97,8.95-9.89,13.89-14.34c4.11-3.7,8.63-7.05,13.36-9.93c6.46-3.94,11.93-8.7,15.31-15.51c1.84-3.71,2.47-7.74,2.19-12.19
		c-3.52,0-6.76,0-10,0c0.54-6.48-0.12-12.83-1.67-19.14c-0.92-3.75-0.01-5.21,3.19-6.27C334.58,60.6,334.94,60.57,335.29,60.54z
		 M345.52,82.56c-0.13-0.06-0.29-0.19-0.38-0.15s-0.12,0.24-0.18,0.37c0.13,0.06,0.29,0.19,0.38,0.15S345.46,82.69,345.52,82.56z"/>
	<path class="st4" d="M63.4,104.1c0,0-4.64-0.21-6.46,4.4l-8.28-0.39l-0.6,17.05l5.86,10.88l10.95,2.14l12.57-0.93l8.17-8.16
		l1.07-17.92l-6.84-12.81l-13.03,0.57L63.4,104.1z"/>
	<path class="st4" d="M40.52,70.21c2.23,0.32,4.47,0.64,6.7,0.96c0.14,1.7,0.14,3.42,0.49,5.07c0.12,0.58,1.07,1.22,1.74,1.36
		c0.6,0.12,1.33-0.41,2-0.65c4.63,1.85,5.22,3.61,2.75,8.21c-0.65,1.22,0.38,3.05,1.64,3.75c1.12,0.63,1.95,1.77,2.91,2.68
		c0.38,3.1-2.26,5.06-2.95,7.77c-0.24,0.96-0.41,1.56,0.01,2.69c0.54,1.44-0.27,3.37-0.5,5.09c-1.29,0.31-2.59,0.58-3.86,0.94
		c-0.82,0.23-1.73,0.44-2.38,0.94c-1.85,1.4,0.12,3.27-0.44,4.86c-1.4,3.43-4.22,3.17-7.1,2.74c-1.21-0.78-2.58-1.78-3.38,0.31
		c-1.36,3.54-2.46,4.28-6.37,3.77c-0.16-0.03-0.32-0.06-0.48-0.08c-0.64-0.34-1.28-0.67-1.92-1.01c-0.48-1.1-0.96-2.2-1.46-3.34
		c-3.88,2.79-4.09,2.85-7.22,1.96c-0.21-1.68-0.33-3.38-0.66-5.03c-0.27-1.35-0.82-2.62-2.66-1.79c-1.58-0.17-3.17-0.34-4.75-0.5
		c-0.45-2.02-1.74-4.02,0.08-6.05c1.68-1.87,0.9-3.91-1.61-4.42c-0.29-0.05-0.58-0.09-0.86-0.14c-2.34-4.35-2.11-4.78,2.03-8.04
		c0.73-0.58,1.06-2.81,0.55-3.64c-2.03-3.29-1.69-5.52,1.67-7.4c0.16,0,0.33,0,0.49,0c2.05,0.48,4.42-0.07,4.1-2.17
		c-0.45-2.92,0.76-4.76,2.2-6.78c0.6-0.02,1.21-0.04,1.81-0.06c0.57,0.23,1.15,0.44,1.72,0.69c2.24,1,2.83,0.61,2.62-1.77
		c-0.04-0.46-0.12-0.93-0.18-1.39c1.37-0.34,2.73-0.68,4.1-1.02c1.42,0.05,2.84,0.11,4.25,0.16c0.5,0.88,1.18,1.7,1.47,2.64
		c0.45,1.45,1.2,1.33,2.05,0.55C39.7,71.58,40.06,70.85,40.52,70.21z M38.92,80.86c-0.61-0.19-1.22-0.39-1.84-0.58
		c-3.45-0.59-6.67-0.02-9.65,1.86c-2.97,1.66-5.06,4.1-6.4,7.21c-3.82,8.81,0.91,18.43,9.78,19.89c0.18,0,0.35,0,0.53,0l-0.01-0.11
		c0.63,0.02,1.26,0.04,1.89,0.06c0.21,0.1,0.43,0.31,0.63,0.3c9.38-0.8,16.25-10.6,13.65-19.65c-1.27-4.42-3.74-7.88-8.6-8.95
		L38.92,80.86z"/>
	<path class="st5" d="M206.05,8.31c3.77-2.43,8.01-3.11,12.34-2.75c7.02,0.57,13.36,3.09,18.56,7.93c2.53,2.35,4.48,5.31,7.03,7.63
		c1.62,1.48,3.79,2.44,5.85,3.31c0.65,0.28,2.09-0.2,2.51-0.8c0.33-0.47-0.11-1.82-0.6-2.5c-2.17-3.03-5.03-5.64-5.62-9.56
		c-0.3-2.01-0.9-4.14,1.15-5.71c0.48,0.24,1.08,0.38,1.43,0.75c4.53,4.79,9.12,9.53,13.5,14.46c4.14,4.66,4.78,8.73,2.08,14.18
		c-0.64,1.29-0.95,2.81-1.09,4.26c-0.33,3.39,2.28,5.5,3.81,8.08c-2.44-0.14-4.88-0.26-7.32-0.42c-1.57-0.11-3.13-0.28-4.69-0.42
		c-1.04-3.35-3.56-5.23-6.7-6.2c-10.01-3.07-16.8-9.69-21.74-18.72c-2.26-4.12-5.62-7.58-9.91-9.67
		C213.29,10.52,209.59,9.57,206.05,8.31z"/>
	<path class="st6" d="M79.59,106.28c1.23-0.96,2.51-1.86,3.67-2.9c1.96-1.75,3.78-3.66,5.79-5.36c1.07-0.91,2.4-1.51,4.02-2.5
		c0.06,1.29-0.05,2.31,0.21,3.23c0.18,0.64,0.87,1.14,1.33,1.7c0.04,16.96,0.09,33.91,0.13,50.87c-1.43-0.6-3.58,0.18-4.13-2.12
		c0.39-0.76,0.79-1.51,1.17-2.27c0.74-1.48,0.62-2.76-0.92-3.66c-1.37-0.8-2.76-1.57-4.41-2.49c-1.28,1.24-1,2.94,0.07,4.71
		c-1.6,2.39,0.39,3.57,2.25,5.21c-1.67,0.19-2.79,0.32-3.92,0.45c-1.05,0.4-2.09,0.8-3.14,1.2c-2.16,0.57-3.09,2.16-3.48,4.21
		c-1.08,1.47-2.16,2.94-3.24,4.41c-1.03-0.93-2.06-1.85-3.08-2.78c-0.61-0.55-1.21-1.12-1.81-1.69c0.55-1.23,1.1-2.46,1.68-3.75
		c-1.22-0.29-2.31-0.54-3.4-0.8c-0.19-6.28-0.37-12.55-0.56-18.83c1.15-0.93,2.31-1.87,3.84-3.11c0.05,0.02,0.71,0.24,1.39,0.42
		c2.25,0.59,3.85-0.51,3.79-2.83c-0.04-1.64,0.49-2.2,2.14-2.36c2.35-0.23,3.25-2.18,1.95-4.13c-0.96-1.44-0.63-2.2,0.69-3.09
		c2.25-1.51,2.01-3.15-0.34-4.7c-0.53-0.35-0.99-1.79-0.71-2.21C81.95,109.04,80.97,107.66,79.59,106.28z"/>
	<path class="st7" d="M332.71,86.03c3.24,0,7.28-0.41,10.8-0.41c0.28,4.45-0.36,9.5-2.2,13.21c-3.38,6.82-9.38,11.71-15.84,15.65
		c-4.72,2.88-9.12,6.2-13.23,9.91c-4.93,4.45-9.85,8.66-14.27,13.63c-1.55,1.74-2.27,4.22-3.37,6.36l-0.14-0.11
		c-0.29-0.01-0.58-0.02-0.88-0.03c-3.46-0.18-5.79-1.93-6.98-5.25c3.82-4.56,6.97-9.52,10.98-13.9c4.26-4.65,7.85-9.65,9.09-15.97
		c0.4-2.02,1-4.16,1.35-6.18c0.47-2.77,2.05-4.25,4.9-3.72c0.51,0.1,1.67-0.18,2.17-0.38c3.28-1.24,4.95,1.06,4.82,4.54
		c-0.03,0.78,0.52,1.58,0.8,2.37c3.14,2.83,5.02,2.58,7.07-1.11c2.89-5.2,3.64-11.01,4.51-16.77
		C332.37,87.23,332.56,86.64,332.71,86.03z"/>
	<path class="st8" d="M206.05,8.31c3.54,1.26,7.24,2.21,10.6,3.85c4.28,2.08,7.65,5.54,9.91,9.67c4.94,9.03,11.73,15.65,21.74,18.72
		c3.15,0.97,6.64,3.69,7.69,7.04c-3.2-0.01-7.39-0.87-10.59-0.89c-1.28-0.01-2.56-0.03-3.84-0.04c-0.32,0-0.63,0-0.95,0
		c-0.8-0.12-1.6-0.25-2.4-0.37c-0.48-0.01-0.96-0.02-1.45-0.03c-2.88-0.03-5.76-0.05-8.64-0.08c-0.38,0.57-0.17-1.02-0.47-1.26
		c-3.8-3.04-8.02-5.36-12.6-6.94c-7.07-2.44-12.96-6.63-18.22-11.82c-0.59-0.58-0.93-1.42-1.39-2.14c2.35-1.88,4.84-2.17,7.52-0.73
		c5.2,2.79,10.39,5.6,15.65,8.29c1.03,0.53,2.32,0.58,3.48,0.85c0.15-0.22,0.31-0.45,0.46-0.67c-0.71-1.19-1.34-2.43-2.14-3.55
		c-4.02-5.56-9.19-9.91-14.69-13.92C202.73,12.11,202.89,10.08,206.05,8.31z"/>
	<path class="st3" d="M320.7,105.73c-0.28-0.79-0.83-1.59-0.8-2.37c0.13-3.48-1.78-4.89-5.06-3.65c-0.5,0.19-1.11,0.32-1.63,0.22
		c-2.85-0.53-4.29,0.69-4.76,3.47c-0.34,2.03-0.93,4.01-1.33,6.03c-1.25,6.32-4.78,11.26-9.04,15.91
		c-4.01,4.38-7.67,9.08-11.49,13.63c-0.36-1.65-0.73-3.29-1.09-4.94c-0.2,0.02-0.39,0.04-0.59,0.06c-0.53,1.43-1.07,2.87-1.6,4.3
		c0.01-1.94,0.02-3.88,0.03-5.81c0.06-0.05,0.17-0.11,0.16-0.13c-0.04-0.12-0.11-0.22-0.17-0.33c-0.01-0.32-0.01-0.64-0.02-0.96
		c0.49-0.35,1.09-0.61,1.46-1.05c1.64-1.95,3.26-3.92,4.8-5.95c5.86-7.71,12-15.28,13.91-25.18c3.83,0.77,6.65-0.62,8.94-3.76
		c1.34-1.83,3.07-3.43,4.81-4.91c4.83-4.09,6.02-9.13,4.84-15.22c-0.99-5.11-1.36-10.34-2.04-15.76c2.95-0.25,5.45-0.46,7.96-0.67
		c2.12,9.51,2.93,19.07,0.77,28.68c-0.87,3.88-2.66,7.35-5.42,10.26C321.15,99.92,320.31,102.61,320.7,105.73z"/>
	<path class="st9" d="M51.45,76.96c-0.67,0.24-1.41,0.77-2,0.65c-0.67-0.14-1.61-0.78-1.74-1.36c-0.35-1.65-0.36-3.38-0.49-5.07
		c-0.09-3.53,0.02-7.08-0.33-10.59c-0.75-7.55,0.53-14.47,5.83-20.2c2.54-2.74,5.09-2.46,6.52,0.99c1.42,3.42,2.45,7.07,3.16,10.71
		c0.78,4.03,1.08,8.16,1.44,12.27c0.14,1.57-0.13,3.17-0.22,4.76c-0.59,0.1-1.21,0.38-1.76,0.27c-1.46-0.29-2.68-0.37-2.93,1.57
		c-0.03,0.26-0.33,0.58-0.59,0.71c-2.19,1.11-4.39,2.19-6.76,3.36C51.55,75.57,51.5,76.26,51.45,76.96z"/>
	<path class="st10" d="M34.1,208.9c0.13-5.31,0.32-10.61,0.34-15.92c0.01-1.56-0.49-3.13-0.75-4.7c-0.64-2.74-1.28-5.48-1.92-8.22
		c-0.22-1.07-0.43-2.15-0.65-3.22c1.27-0.29,2.54-0.58,3.81-0.87c4.64-0.04,9.27-0.08,13.91-0.12c0.2,1.42,0.4,2.83,0.6,4.25
		c-0.01,1.56-0.03,3.12-0.04,4.68c-0.86,7.99-2.48,15.78-5.86,23.13c-0.69,1.05-1.37,2.09-2.06,3.14c-0.48-0.09-0.96-0.18-1.44-0.28
		c0.13-0.94,0.27-1.87,0.4-2.81c2.38-8.05,2.43-16.19,1.28-24.4c-0.16,8.36-1.67,16.46-4.27,24.37c-0.35,0.78-0.62,1.61-1.07,2.33
		c-0.33,0.55-0.88,0.96-1.33,1.43c-0.3-0.62-0.62-1.23-0.87-1.87C34.07,209.55,34.12,209.21,34.1,208.9z"/>
	<path class="st8" d="M267,47.58c-1.53-2.58-4.14-4.69-3.81-8.08c0.14-1.45,0.45-2.97,1.09-4.26c2.7-5.45,2.06-9.52-2.08-14.18
		c-4.38-4.93-8.97-9.67-13.5-14.46c-0.35-0.37-0.95-0.51-1.43-0.75c1.27-0.18,2.64-0.75,3.81-0.47c9.77,2.31,16.46,8.43,20.51,17.43
		c1.81,4.04,3.04,8.33,4.64,12.47c0.33,0.85,1.15,1.5,1.74,2.24c1.13,3.87,2.25,7.73,3.38,11.6c-1.27-0.36-2.55-0.73-3.82-1.09
		c-0.14-2.91-1.68-5.1-3.87-6.76c-0.53-0.4-2.28-0.2-2.6,0.29c-1.21,1.87-2.07,3.96-3.05,5.97C267.67,47.56,267.33,47.57,267,47.58z
		"/>
	<path class="st10" d="M299.64,145.29c0.49-1.79,0.9-3.6,1.48-5.35c0.5-1.5,1.5-1.19,2.4-0.38c0.77,0.69,1.45,1.49,2.14,2.26
		c3.02,3.32,5.92,3.64,9.41,0.87c3.31-2.63,7.01-3.74,11.16-2.94c1.21,0.23,2.33,0.97,3.49,1.47c2.34,2.93,2.3,6.17,1.1,9.49
		c-1.48,4.05-3.72,5.11-7.96,4.46c-3.28-0.5-6.63-0.55-9.95-0.81c-1.83,0.28-3.68,0.56-5.52,0.84c-0.8-0.01-1.59-0.02-2.39-0.04
		c-1.22-1.28-2.45-2.57-3.67-3.85C300.77,149.31,300.2,147.3,299.64,145.29z"/>
	<path class="st11" d="M301.33,151.31c1.22,1.28,2.45,2.57,3.67,3.85c-0.18,1.02-0.47,2.03-0.51,3.05
		c-0.16,3.83,1.42,5.48,5.15,5.48c0.44,0.19,0.88,0.39,1.31,0.58c0.78,1.34,1.49,2.73,2.35,4.01c0.72,1.08,1.43,2.31,2.46,3.02
		c2.1,1.45,2.3,2.11,0.47,3.82c-0.52,0.48-1.13,0.86-1.7,1.28c-3.04,1.72-5.73,0.47-8.39-1c-2.31-0.66-4.63-1.31-6.94-1.97
		c-0.2-0.04-0.4-0.08-0.6-0.12c-2.35-1.16-4.7-2.33-7.05-3.49c-0.52-1.52-1.45-3.04-1.47-4.57c-0.04-1.99,0.64-3.99,1.01-5.99
		c0.94-2.18,1.87-4.37,2.81-6.55C296.4,152.42,298.55,150.17,301.33,151.31z"/>
	<path class="st2" d="M20.75,148.96c-6.07-7.06-11.1-14.76-14.45-23.49c0.24-1.3,0.47-2.61,0.7-3.89c1.39,1.78,2.76,0.85,3.99-0.15
		c1.4-1.14,2.66-2.45,3.99-3.69c1.92,2.88,3.83,5.76,5.75,8.64c0.65,1.6,1.36,3.17,1.92,4.8c1.35,3.93,2.62,7.88,3.93,11.82
		C24.3,144.65,21.71,146.01,20.75,148.96z"/>
	<path class="st12" d="M35.61,68.9c-1.42-0.05-2.84-0.11-4.25-0.16c-0.83-9.19-0.82-18.35,1.46-27.35
		c1.37-5.41,3.45-10.53,8.34-13.82c1.35-0.91,3.02-1.36,4.54-2.02c0.15,0.67,0.61,1.44,0.41,1.98c-0.93,2.59-1.76,5.27-3.13,7.63
		c-2.25,3.87-3.88,7.9-3.38,12.35c0.55,4.81-0.38,9.22-2.04,13.66C36.65,63.65,36.25,66.32,35.61,68.9z"/>
	<path class="st9" d="M23.49,72.23c-0.63,0.02-1.26,0.04-1.88,0.06c-3.19,0.18-5.11,2.31-4.37,5.23c0.51,2.02-0.43,2.76-2.15,3.21
		c-0.66-6.24-1.79-12.47-1.84-18.72c-0.05-7.16,1.52-14.13,6.88-19.67c1.27-1.31,2.89-2.3,4.35-3.44
		c-0.36,4.27-0.58,8.55-1.15,12.79c-0.34,2.5-1.22,4.94-1.87,7.4C20.24,63.75,21.59,68.03,23.49,72.23z"/>
	<path class="st5" d="M195.44,24.02c0.46,0.72,0.8,1.55,1.39,2.14c5.26,5.19,11.15,9.38,18.22,11.82c4.58,1.58,8.81,3.9,12.6,6.94
		c0.47,1.26,0.32,0.83,0.47,1.26c-6.72-0.35-13.71,0.92-20.43,0.57c-2.6-2.38-4.88-6.43-7.54-8.74c-1.91-1.66-4.02-3.09-5.93-4.75
		C190.46,29.97,190.96,26.44,195.44,24.02z"/>
	<path class="st13" d="M17.7,171.89c-7.81-6.04-13.02-13.7-14.45-23.62c-0.3-2.11-0.35-4.3-0.17-6.43c0.15-1.78,0.87-3.45,3.28-3.02
		c0.8,2.98,1.97,5.93,2.32,8.96c0.66,5.86,3.4,9.77,8.82,12.25c2.61,1.2,4.75,3.44,7.1,5.2c-0.03,0.06-0.07,0.13-0.1,0.19
		c0.04-0.06,0.07-0.13,0.11-0.19c0.32,0.44,0.64,0.89,0.97,1.33c-0.51,0.47-1.02,1.36-1.52,1.35
		C21.02,167.89,19.6,170.25,17.7,171.89z"/>
	<path class="st14" d="M152.79,54.15c-0.46-0.37-1.01-0.66-1.37-1.11c-5.71-6.97-13.17-10.49-22.06-11.16
		c-2.7-0.21-5.41-0.35-8.11-0.52c-2.41-1.01-3.98-2.81-4.89-5.22c2-0.7,3.99-1.39,5.99-2.09c5.29,0.2,10.57,0.4,15.86,0.6
		c0.83,0.03,1.67,0.06,2.5,0.09c-0.88,0.78-1.66,2.02-2.68,2.26c-2.51,0.59-2.85,0.88-2.18,3.91c1.12-0.35,2.22-0.72,3.34-1.04
		c2.02-0.56,3.61-1.56,3.98-3.83c0.95,0.54,1.9,1.07,2.85,1.61c1.42,0.73,0.49,1.34-0.09,1.98c-0.53-0.06-1.07-0.12-1.94-0.21
		c1.14,1.21,2.05,2.17,2.95,3.13c1.96,3.01,3.95,6,5.85,9.04c0.31,0.49,0.23,1.22,0.33,1.83C153.02,53.67,152.91,53.91,152.79,54.15
		z"/>
	<path class="st9" d="M33.78,68.9c0.71-2.58,1.16-5.26,2.2-7.73c1.86-4.44,2.9-8.85,2.29-13.66c-0.57-4.45,1.27-8.49,3.78-12.35
		c1.53-2.36,2.47-5.04,3.51-7.63c0.22-0.54-0.29-1.31-0.46-1.98c1.68,0.09,3.85-0.35,4.91,0.42c0.89,0.65,0.98,2.84,0.56,4.11
		c-2.42,7.33-5.45,14.5-7.59,21.89c-1.73,5.97-2.5,12.15-3.69,18.24c-0.51,0.63-0.92,1.37-1.55,1.88c-0.96,0.78-1.8,0.9-2.3-0.55
		C35.09,70.6,34.34,69.78,33.78,68.9z"/>
	<path class="st13" d="M303.03,44.26c-0.6,0.1-1.19,0.21-1.79,0.31c-0.69,0.11-1.04,1.38-1.63,1.69c-1.62,0.85-7.12-0.13-8.37-1.54
		c-3.95-4.42-6.43-9.71-10.36-14.16c-0.56-0.63-0.96-1.41-1.43-2.12c0.17-0.17,0.34-0.33,0.51-0.5c1.91-0.32,3.83-0.64,5.75-0.96
		c4.94,0.57,9.1,2.61,12.33,6.45c0.5,0.6,1.05,1.16,1.58,1.75C300.76,38.2,301.89,41.23,303.03,44.26z"/>
	<path class="st14" d="M20.75,148.96c0.95-2.95,3.54-4.31,5.83-5.96c2.62-0.49,5.66-0.39,7.09-3.14c2.15-4.11,5.45-4.93,9.59-4.09
		c4.49,3.33,5.08,5.93,2.31,10.13c-0.08,0.01-0.16,0.02-0.24,0.03c-0.98-0.89-1.96-1.79-2.94-2.68c1.91-0.22,1.88-1.49,1.75-2.97
		c-1.83-0.07-3.07,0.24-2.51,2.38c-0.22,0.4-0.48,1.18-0.65,1.16c-2.04-0.24-2.39,1.71-3.53,2.62c-1.55,0.55-3.15,1.64-4.65,1.51
		c-2.39-0.19-3.59,0.87-4.47,2.68c-0.76,1.56-1.33,3.2-1.99,4.81c-0.15,0.54-0.3,1.08-0.45,1.63
		C22.07,155.69,20.68,152.79,20.75,148.96z"/>
	<path class="st12" d="M23.1,72.23c-1.83-4.2-3.12-8.48-1.95-13.13c0.62-2.46,1.48-4.9,1.8-7.4c0.55-4.24,0.76-8.53,1.11-12.79
		c2.41-1.18,4.07-0.7,4.3,1.93c0.43,4.9,0.49,9.86,0.25,14.77c-0.19,3.87-1.11,7.71-1.62,11.57c-0.11,0.83,0.17,1.72,0.27,2.58
		c0.06,0.46,0.14,0.92,0.18,1.39c0.21,2.38-0.38,2.77-2.62,1.77C24.26,72.67,23.68,72.46,23.1,72.23z"/>
	<path class="st2" d="M25.56,166.58c-0.32-0.44-0.64-0.89-0.97-1.33l0,0c-2.35-1.77-4.97-3.44-7.58-4.63
		c-5.41-2.48-8.16-6.88-8.82-12.74c-0.34-3.04-1.03-6.05-1.83-9.04c3.99,0.69,6.73,3.12,8.65,6.51c0.94,1.66,1.63,3.46,2.37,5.22
		c1.7,4.1,4.54,7.07,8.59,8.88c0.85,2.36,2.87,3.4,4.94,4.39c-0.7,1.43-1.82,2.11-3.43,1.9C26.84,166.02,26.2,166.3,25.56,166.58z"
		/>
	<path class="st15" d="M109.57,23.17c0.32-3.38,0.87-6.73,3.57-9.08c1.12-0.97,2.75-1.36,4.15-2.01c-0.84,2,1.07,2.23,2.01,2.64
		c1.5,0.64,3.08,0.52,3.2-1.77c1.26,1.48,2.87,2.78,3.69,4.47c1.14,2.33,1.7,4.95,2.51,7.44c-0.34,0.23-0.67,0.47-1.01,0.7
		c-1.75-0.02-3.51,0.07-5.24-0.08c-2.23-0.19-4.44-0.57-6.66-0.87c-0.25-1.06-0.5-2.11-0.85-3.61c-0.55,1.1-0.82,1.64-1.09,2.18
		C112.44,23.17,111,23.17,109.57,23.17z"/>
	<path class="st15" d="M71.12,40.38c-2.74,2.36-2.23,5.33-2.21,8.7c0.11,17.24,0.72,34.52-0.66,51.85
		c-0.94,0.14-1.88,0.28-2.82,0.42c-0.04-2.53-0.08-5.06-0.12-7.59c0.02-15.43,0.04-30.86,0.07-46.29
		C65.38,43.7,67.46,41.16,71.12,40.38z"/>
	<path class="st2" d="M349,83.17c-0.77-0.68-1.73-0.39-1.99-1.24c-1.21-2.16-0.27-2.95-3.01-1.8c0.35,0.83-0.6,0.92-0.25,1.75
		c-0.17,0.11-0.34,0.21-0.51,0.32c-0.3-0.26-2-0.14-2.12-0.47c-1.93-5.51-2.56-11.37-4.51-16.87c-0.29-0.81-0.95-1.48-1.54-2.36
		c0.11-0.4,0.34-1.2,0.56-2c4.01-0.63,8.23,1.65,10.43,5.69C348.97,71.51,349.44,77.27,349,83.17z"/>
	<path class="st13" d="M53.39,125.87c1.47,0.65,2.95,1.3,4.6,2.02c0.76,4.16,2.41,4.92,6.15,2.49c0.46,0.72,0.91,1.44,1.37,2.17
		c-0.05,9.47-0.1,18.94-0.14,28.41c-0.16-0.12-0.33-0.23-0.49-0.35c-0.3-3.39-0.81-6.77-0.85-10.16c-0.04-3.75-1.65-6.6-4.37-8.86
		c-4.54-3.76-6.98-8.64-8.16-14.28c0.47-0.32,0.95-0.64,1.42-0.96c0-0.16,0-0.31-0.01-0.47C53.06,125.88,53.23,125.88,53.39,125.87z
		"/>
	<path class="st12" d="M51.45,76.96c0.05-0.7,0.09-1.39,0.13-1.94c2.36-1.17,4.57-2.24,6.76-3.36c0.26-0.13,0.56-0.45,0.59-0.71
		c0.25-1.94,1.47-1.86,2.93-1.57c0.55,0.11,1.17-0.17,1.76-0.27c-0.48,4.74-0.67,9.53-1.56,14.19c-0.55,2.87-2.17,5.54-3.3,8.3
		c-0.96-0.91-1.79-2.05-2.91-2.68c-1.26-0.71-2.29-2.53-1.64-3.75C56.67,80.57,56.08,78.81,51.45,76.96z"/>
	<path class="st12" d="M1.07,106.34c-1.45-6.26-1.62-12.49,0.72-18.61c1.08-2.81,3.01-5.06,6.35-6.08c0.21,0.33,0.57,0.66,0.59,1
		c0.25,3.41,0.44,6.81,0.64,10.22c-1.56,1.86-2.29,3.85-1.15,6.11c-0.01,1.61-0.01,3.21-0.02,4.82c-0.6,0.08-1.66,0.02-1.74,0.25
		C5.54,106.52,3.12,106.06,1.07,106.34z"/>
	<path class="st13" d="M0.96,105.82c1.82-0.28,3.97,0.7,4.81-1.76c0.08-0.23,1.01-0.63,1.55-0.71c0.97,1.91,1.93,4.29,2.9,6.21
		c0.04,0.15,0.07,0.29,0.11,0.44c0.04,0.5,0.5,0.83,0.75,1.19c1.46,2.13,3.1,5.54,4.62,7.62c-1.32,1.24-2.86,1.97-4.27,3.11
		c-1.22,1-2.07,2.59-3.45,0.81c-0.23,1.28-1.18,2.09-1.41,3.39C3.9,119.98,1.59,112.51,0.96,105.82z"/>
	<path class="st5" d="M312.11,51.01c0.79,5.16,2.06,10.3,2.23,15.48c0.16,5.13-0.78,10.29-2.93,15.09
		c-0.33,0.74-0.82,1.41-1.75,2.06c0.8-10.19-0.12-20.09-3.26-29.71c1.64-1.46,3.28-2.92,4.93-4.38c0.11,0,0.22,0.01,0.32,0.01
		c0.15,0.34,0.3,0.68,0.45,1.02C312.08,50.73,312.09,50.87,312.11,51.01z"/>
	<path class="st13" d="M312.11,51.01c-0.03-0.14-0.03-0.28-0.02-0.43c-0.15-0.34-0.3-0.68-0.45-1.02c-0.11,0-0.22-0.01-0.32-0.01
		c-1.71-5.33-4.95-9.76-8.3-14.13c-0.48-0.63-0.99-1.25-1.42-1.92c-1.78-2.72-1.29-4.02,1.88-5.04c0.64,4.9,4.48,7.01,8.1,9.32
		c2.53,1.62,5.45,2.93,6.5,6c0.69,2.03,1.98,4.76,2.36,6.8c-2.48,1.21-4.73,1.29-6.43-0.51C314.56,51.72,314.01,51.16,312.11,51.01z
		"/>
	<path class="st15" d="M65.36,160.96c0.05-9.47,0.1-18.94,0.14-28.41c0.77,0.18,2.19-0.15,2.97,0.03
		c0.19,6.28,0.59,12.28,0.77,18.55c-0.02,0.2-0.89,1.21-0.91,1.41c-1.63,0.11-2.66,0.66-2.38,2.6c0.26,1.78,1.31,1.11,2.26,0.9
		c0.07,0.33,0.13,0.66,0.2,0.99c-0.08,2.11-0.16,4.22-0.24,6.33c-0.12,1.85,0.27,3.74,0.3,5.59c0.07,4.05,1.97,8.34,1.53,12.33
		c-0.53,4.8-2.57,8.93,1.64,12.25c-4.46-0.86-6.11-3.21-6.32-9.02c-0.01-1.31-0.01-2.62-0.02-3.93c0-1.27,0-2.54,0-3.81
		c0-1.78,0-3.55,0-5.33c0.02-3.27,0.03-6.53,0.05-9.8C65.35,161.41,65.35,161.19,65.36,160.96z"/>
	<path class="st10" d="M127.71,25.56c0.34-0.23,0.67-0.47,1.01-0.7c3.68,0.54,7.35,1.08,11.03,1.63c0.21,0.03,0.41,0.19,0.71,0.34
		c-0.75,2.63-1.49,5.23-2.24,7.83c-5.29-0.2-10.58-0.4-15.87-0.6c-0.7-0.86-1.41-1.71-2.38-2.91c1.43,0.14,2.41,0.09,3.28,0.36
		c1.7,0.54,2.54,0.01,2.7-1.73c0.13-0.03,0.2-0.12,0.19-0.25C126.67,28.21,127.19,26.88,127.71,25.56z"/>
	<path class="st11" d="M25.56,166.58c0.64-0.28,1.28-0.56,1.92-0.85c0.36,0.86,0.54,1.86,1.1,2.57c2.05,2.61,4.23,5.12,6.35,7.66
		c-1.27,0.29-2.54,0.58-3.81,0.87c-1.67,0.12-3.34,0.25-5.01,0.37c-2.48-0.74-5-1.36-7.43-2.25c-1.36-0.5-1.9-1.65-0.98-3.06
		c1.9-1.64,3.31-4,6.33-3.96C24.54,167.94,25.05,167.05,25.56,166.58z"/>
	<path class="st11" d="M30.91,163.83c-2.07-0.98-4.09-2.03-4.94-4.39c-0.02-0.8-0.05-1.6-0.07-2.4c0.15-0.54,0.3-1.08,0.45-1.63
		c0.35,0.12,0.76,0.42,1.04,0.32c2.82-0.95,5.61-1.96,8.41-2.96c0.14,0.17,0.28,0.34,0.42,0.51c-1.01,1.76-2.02,3.52-3.32,5.8
		c2.27-0.13,3.91-0.3,5.55-0.27c0.69,0.01,1.36,0.47,2.05,0.73c-0.43,0.8-0.86,1.61-1.29,2.41
		C36.45,162.58,33.68,163.2,30.91,163.83z"/>
	<path class="st6" d="M68.26,108.12c5.24-0.14,8.55,6.49,6.11,12.09c-1.15,2.63-3.11,4.6-6.09,5.22
		C68.27,119.66,68.26,113.89,68.26,108.12z"/>
	<path class="st13" d="M65.91,125.57c-3.65-0.71-5.97-3.24-6.56-6.63c-0.64-3.71,0.85-6.73,3.68-9.08c0.65-0.54,2.1-0.96,2.87-1.36
		C65.92,114.15,65.9,119.93,65.91,125.57z"/>
	<path class="st5" d="M299.62,35.18c-0.53-0.58-1.07-1.15-1.58-1.75c-3.23-3.84-7.39-5.88-12.33-6.45
		c-0.19-0.59-0.31-1.21-0.58-1.76c-1.05-2.1-2.16-4.18-3.24-6.27C290.34,20.63,298.1,27.73,299.62,35.18z"/>
	<path class="st16" d="M127.71,25.56c-0.52,1.33-1.04,2.65-1.56,3.98c-1.03-0.69-1.99-1.74-3.12-1.96
		c-1.39-0.26-2.51,0.68-2.84,2.22c-0.73,0.19-1.47,0.55-2.19,0.53c-1.88-0.05-3.76-0.27-5.64-0.42c-3.26-2.33-3.7-3.38-2.79-6.75
		c1.43,0,2.86,0,4.29,0c0.1,1.54-0.48,3.46,2.41,3.78c-0.19-0.93-0.33-1.64-0.47-2.35c2.22,0.3,4.43,0.68,6.66,0.87
		C124.21,25.62,125.96,25.54,127.71,25.56z"/>
	<path class="st15" d="M138.36,0.01c5.04,0.15,7.5,3.07,6.47,7.92c-0.8,3.75-2.04,7.35-4.96,10.1c-0.37-2.2-0.74-4.4-1.12-6.61
		c3.27-2.92,3.27-4.77,0.01-7.74C138.63,2.46,138.49,1.23,138.36,0.01z"/>
	<path class="st6" d="M132.82,17.5c-3.31-3.07-4.85-9.26-3.04-13.12c0.53-1.12,1.75-1.93,2.65-2.88c0.48,0.13,0.96,0.25,1.44,0.38
		c-0.22,0.15-0.43,0.3-0.65,0.46c0.32,0.72,0.64,1.44,0.96,2.16c-1.75,2.3-1.36,4.49,0.33,6.62c-0.02,1.06,0.15,2.18-0.12,3.17
		C134.08,15.41,133.36,16.43,132.82,17.5z"/>
	<path class="st12" d="M53.39,125.87c-0.16,0-0.32,0.01-0.49,0.01c-0.32-0.16-0.63-0.32-0.95-0.48c-0.16-0.16-0.32-0.32-0.47-0.49
		c-0.11-3.89-0.57-7.68-2.84-11.02c0.56-1.59-1.41-3.46,0.44-4.86c0.66-0.5,1.56-0.71,2.38-0.94c1.27-0.36,2.57-0.63,3.86-0.94
		c0.47,0.39,0.94,0.79,1.61,1.35c-0.67,0.08-1.19,0.08-1.67,0.21c-2.09,0.56-2.73,2.07-1.6,3.92c0.87,1.42,0.81,2.35-0.77,3.28
		c-2.08,1.22-1.81,3.21,0.24,4.64c0.56,0.39,0.78,1.56,0.79,2.37C53.95,123.91,53.58,124.89,53.39,125.87z"/>
	<path class="st8" d="M281.89,18.95c1.09,2.09,2.19,4.17,3.24,6.27c0.27,0.55,0.39,1.17,0.58,1.76c-1.92,0.32-3.83,0.64-5.75,0.96
		c-0.77-1.54-1.53-3.09-2.33-4.62c-1.83-3.54-1.16-4.61,2.82-4.5C280.94,18.83,281.41,18.9,281.89,18.95z"/>
	<path class="st15" d="M65.35,125.57c-0.01-5.65-0.01-11.29-0.02-16.94c0.98-0.17,2.93-0.29,3.91-0.47c0,5.77,0,11.22,0,16.99
		C68.26,125.21,66.32,125.52,65.35,125.57z"/>
	<path class="st16" d="M132.82,17.5c0.54-1.07,1.26-2.09,1.57-3.22c0.28-0.99,0.1-2.11,0.12-3.17c1.41,0.1,2.83,0.21,4.24,0.31
		c0.37,2.2,0.74,4.4,1.12,6.61C137.31,21.65,136.11,21.56,132.82,17.5z"/>
	<path class="st17" d="M112.36,29.91c1.88,0.15,3.75,0.37,5.64,0.42c0.73,0.02,1.46-0.34,2.19-0.53c1.92,0,3.84,0,5.77-0.01
		c-0.16,1.74-1,2.27-2.7,1.73c-0.87-0.28-1.85-0.22-3.28-0.36c0.98,1.19,1.68,2.05,2.38,2.91c-1.99,0.69-3.99,1.39-5.99,2.09
		C115.03,34.07,113.69,31.99,112.36,29.91z"/>
	<path class="st18" d="M7.33,98.99c-1.02-2.26-0.37-4.25,1.02-6.11c2.87-0.78,3.94-2.66,2.54-4.45c-2.29-2.92-2.14-4.53,0.64-7.11
		c0.99-0.02,1.98-0.05,2.97-0.07c-3.36,1.88-3.7,4.11-1.67,7.4c0.51,0.83,0.19,3.06-0.55,3.64c-4.15,3.26-4.37,3.69-2.03,8.05
		C9.27,99.88,8.3,99.43,7.33,98.99z"/>
	<path class="st19" d="M310.95,164.28c-0.44-0.19-0.88-0.39-1.31-0.58c0.42-3.14,0.23-6.12-2.25-8.49c1.84-0.28,3.69-0.56,5.52-0.84
		C312.93,157.8,312.82,161.21,310.95,164.28z"/>
	<path class="st20" d="M143.19,36.05c-0.37,2.27-1.96,3.27-3.98,3.83c-1.12,0.31-2.22,0.68-3.34,1.04
		c-0.67-3.04-0.33-3.32,2.18-3.91c1.01-0.24,1.79-1.47,2.68-2.26c0.65,0.27,1.3,0.55,1.96,0.82c0.17,0.18,0.35,0.36,0.52,0.54
		L143.19,36.05z"/>
	<path class="st9" d="M11.53,81.31c-2.78,2.58-2.93,4.18-0.64,7.11c1.4,1.79,0.33,3.67-2.54,4.45C8.17,89.46,8,86.05,7.78,82.65
		c-0.02-0.34-0.35-0.67-0.53-1C8.67,81.54,10.1,81.42,11.53,81.31z"/>
	<path class="st12" d="M65.3,93.76c0.04,2.53,0.08,5.06,0.12,7.59c-0.64,0.87-1.29,1.74-2.03,2.75c-0.61-0.27-1.49,0.99-2.61,0.5
		C62.27,101.44,63.87,96.82,65.3,93.76z"/>
	<path class="st18" d="M15.02,80.73c1.65-0.45,2.56-1.19,2.07-3.21c-0.71-2.92,1.13-5.05,4.21-5.23c-1.43,2.02-2.65,3.86-2.2,6.78
		c0.32,2.1-2.05,2.65-4.1,2.17C15,81.07,15.01,80.9,15.02,80.73z"/>
	<path class="st16" d="M134.18,4.49c-0.32-0.72-0.64-1.44-0.96-2.16c0.22-0.15,0.43-0.3,0.65-0.46c-0.48-0.13-0.96-0.25-1.44-0.38
		c1.98-0.5,3.95-0.99,5.93-1.49c0.13,1.22,0.27,2.45,0.41,3.67C137.24,3.95,135.71,4.22,134.18,4.49z"/>
	<path class="st14" d="M118.89,9c-0.33-1.76,0.21-2.66,2.19-2.77c1.1-0.06,2.17-0.76,3.42-1.24c0.5,1.8,0.28,3.34-1.4,4.49
		C121.94,7.25,120.31,8.97,118.89,9z"/>
	<path class="st19" d="M118.89,9c1.43-0.02,3.05-1.75,4.22,0.49c-0.4,0.99-0.81,1.99-1.21,2.98c-0.26,0.04-0.53,0.08-0.79,0.12
		c-0.76-0.93-1.52-1.86-2.28-2.79C118.84,9.53,118.86,9.26,118.89,9z"/>
	<path class="st10" d="M145.94,39.63c0.59-0.63,1.51-1.25,0.09-1.98c1.93,0.37,3.87,0.73,5.8,1.1c-0.04,0.3-0.08,0.61-0.12,0.91
		C149.83,40.47,147.89,40.12,145.94,39.63z"/>
	<path class="st2" d="M26.11,177.21c1.67-0.12,3.34-0.25,5.01-0.37c0.22,1.08,0.43,2.15,0.65,3.22
		C29.88,179.11,28,178.16,26.11,177.21z"/>
	<path class="st12" d="M308.34,136.39c-0.94-0.1-1.88-0.19-3.42-0.35c1.74-2.12,3.32-3.07,5.31-3.4c-0.49,1.12-0.98,2.23-1.48,3.35
		l0.02-0.02C308.63,136.11,308.48,136.25,308.34,136.39z"/>
	<path class="st5" d="M121.1,12.59c0.26-0.04,0.53-0.08,0.79-0.12c0.21,0.16,0.41,0.32,0.62,0.48c-0.12,2.29-1.7,2.41-3.2,1.77
		c-0.94-0.4-2.86-0.63-2.01-2.64c0.28-0.02,0.57-0.04,0.85-0.06c0.68,0.65,1.37,1.31,2.05,1.96C120.5,13.52,120.8,13.05,121.1,12.59
		z"/>
	<path class="st11" d="M121.1,12.59c-0.3,0.47-0.6,0.93-0.9,1.4c-0.68-0.65-1.37-1.31-2.05-1.96c0.22-0.75,0.45-1.49,0.67-2.23
		C119.58,10.72,120.34,11.65,121.1,12.59z"/>
	<path class="st2" d="M348.64,86.62c0.07-0.34,0.14-0.67,0.21-1.01C348.78,85.95,348.71,86.29,348.64,86.62z"/>
	<path class="st2" d="M335.29,60.54c-0.35,0.03-0.71,0.05-1.06,0.08C334.58,60.6,334.94,60.57,335.29,60.54z"/>
	<path class="st15" d="M72.1,39.99c-0.33,0.14-0.66,0.28-0.99,0.42C71.44,40.27,71.77,40.13,72.1,39.99z"/>
	<path class="st14" d="M143.19,36.11c-0.17-0.18-0.35-0.36-0.52-0.54C142.85,35.75,143.02,35.93,143.19,36.11z"/>
	<path class="st15" d="M193.59,186.78c-11.05,0.66-22.11,1.32-33.16,1.97c-0.79,0.05-1.59,0-2.39,0c0.46-0.3,0.9-0.63,1.38-0.88
		c0.49-0.25,1.14-0.29,1.51-0.65c2.6-2.5,5.11-5.1,7.74-7.58c0.96-0.9,2.38-1.36,3.2-2.34c2.72-3.28,5.85-5.94,9.82-7.55
		c0.57-0.23,1.2-0.49,1.58-0.93c1.77-2.04,3.25-4.38,5.22-6.19c2.42-2.21,5.31-3.89,7.83-6c1.93-1.62-3.4-11.02-1.61-12.81
		c0.61-0.14,4.69-0.61,5.31-0.63c6.42-0.19,11.71,0.73,18.14,0.57c0.46,0.32,5.56,7.37,6.06,7.57c4.4,1.73,9.05,2.99,13.17,5.23
		c6.66,3.63,11.77,9.19,15.83,15.54c2.13,3.34,3.44,7.2,5.12,10.82c-10.55,0.64-21.1,1.28-31.65,1.92c0.17-0.35,0.35-0.71,0.52-1.06
		c0.85-1.75,0.07-3.06-1.48-3.61c-0.49-0.18-1.58,0.96-2.23,1.65c-1.29,1.37-2.45,2.84-3.67,4.28c-0.21-0.13-0.43-0.25-0.64-0.38
		c-0.09-0.59-0.18-1.19-0.27-1.78c0.05-0.13,0.1-0.26,0.15-0.39c1.17-1.48,2.44-2.9,3.49-4.46c0.85-1.27,1.6-3.02-0.05-3.98
		c-1.84-1.08-2.61,0.65-3.22,2.08c-0.16,0.36-0.24,0.75-0.36,1.13c-0.26-0.06-0.52-0.11-0.78-0.17c-0.67-0.14-1.34-0.29-2.01-0.43
		c1.39-2.54,3.55-4.13,6.07-5.53c1.48-0.82,2.92-2.38,3.52-3.94c0.52-1.35,0.27-3.42-0.47-4.68c-0.4-0.68-2.65-0.69-3.9-0.36
		c-4.97,1.3-7.99,5-10.41,9.21c-1.05,1.83-1.69,3.89-2.51,5.84c-0.19-3.38-0.45-3.65-2.92-3.02c-2.53,0.68-3.54,2.65-3.66,4.95
		c-0.11,2.02,0.33,4.06,0.53,6.1c-1.05,0.06-2.1,0.12-3.15,0.18c-0.27-0.28-0.54-0.57-0.83-0.83c-1.04-0.95-2.1-1.9-3.15-2.84
		C194.7,184.1,194.15,185.44,193.59,186.78z"/>
	<path class="st21" d="M257.87,130.16c0.2-0.42,0.3-0.95,0.61-1.24c2.66-2.48,5.36-4.9,8.03-7.36c0.93-0.86,1.8-1.79,2.75-2.62
		c0.74-0.64,1.53-1.23,2.37-1.72c1.65-0.97,4.29-1.48,4.83-2.85c1.11-2.82,5.01-3.06,5.23-6.38c0.01-0.14,0.84-0.22,1.29-0.33
		c-0.01,0.45-0.03,0.91-0.04,1.36c0.01,1.49,0.02,2.98,0.02,4.47c-0.02,2.8-0.03,5.6-0.05,8.4c-0.78,2.16-1.18,4.3,0.2,6.38
		c0.06,0.97,0.13,1.93,0.19,2.9c0.01,0.32,0.01,0.64,0.02,0.96c-0.04,0.15-0.04,0.31,0.01,0.46c-0.01,1.94-0.02,3.88-0.03,5.81
		c0.01,0.94,0.01,1.88,0.02,2.81c0,5.45,0,10.89-0.01,16.34c0,1.32,0.01,2.64,0.01,3.96c0,2.84,0,5.68,0,8.52
		c-0.02,1.75,0,3.5-0.07,5.25c-0.15,3.68-2.36,6.35-5.92,6.62c-6.33,0.47-12.67,0.68-19.01,1c-1.68-3.63-2.99-7.49-5.12-10.82
		c-4.05-6.34-9.17-11.9-15.83-15.54c-4.12-2.24-8.77-3.5-13.17-5.23c-0.51-0.2-7.63-8.36-8.09-8.67c4.92-0.32,20.09,0.02,25.02-0.18
		"/>
	<path class="st21" d="M266.63,142.22c-8.36,0.27-16.72,0.6-25.08,0.91c0.84-0.82,1.56-1.89,2.55-2.4c1.7-0.87,2.75-1.8,1.77-3.8
		c3.65-0.16,7.3-0.32,10.95-0.48c3.73-0.16,7.46-0.24,11.18-0.54"/>
	<path class="st22" d="M201.71,151.28c-1.79,1.79-3.47,3.72-5.4,5.34c-2.52,2.11-5.41,3.79-7.83,6c-1.97,1.81-3.45,4.14-5.22,6.19
		c-0.38,0.44-1.02,0.7-1.58,0.93c-3.98,1.61-7.11,4.27-9.82,7.55c-0.82,0.99-2.24,1.44-3.2,2.34c-2.63,2.48-5.13,5.08-7.74,7.58
		c-0.37,0.35-1.02,0.4-1.51,0.65c-0.48,0.25-0.92,0.58-1.38,0.88c-13.92,0.82-27.84,1.64-41.76,2.47c0.28-0.61,0.4-1.56,0.86-1.76
		c1.54-0.69,3.26-1,4.79-1.7c0.89-0.41,1.79-1.17,2.25-2.01c0.71-1.31,4.33-3.91,5.73-3.51c2.24,0.63,2.29-0.59,2.11-2.16
		c-0.06-0.52-0.17-1.03-0.29-1.74c1.98-0.18,3.78-0.34,5.7-0.51c-2.16-2.62-2.12-2.82,0.93-3.99c1.17-0.45,2.47-0.59,3.59-1.13
		c0.68-0.33,1.27-1.08,1.62-1.78c0.29-0.58,0.17-1.37,0.25-2.33c2.97,0.58,3.86-1.04,3.77-3.7c3.02,0.43,3.49-2.12,4.42-4.14
		c0.17,0.13,0.35,0.26,0.52,0.39c-0.12,0.69-0.24,1.38-0.49,2.76c1.36-0.7,2.18-1.13,3-1.56c-0.51-0.72-1.01-1.45-1.78-2.55
		c0.98-0.3,1.88-0.62,2.81-0.85c1.95-0.48,3.07-1.96,2.7-3.76c-0.14-0.67-0.49-1.29-0.75-1.93c2.86-0.16,5.72-0.39,8.58-0.45
		c5.16-0.12,6.38-1.16,7.04-6.27c2.98,0.18,0.81-2.73,2.09-3.58c0.99,1.08,1.88,1.88,2.54-0.26c0.19-0.64,0.68-1.22,1.14-1.74
		c0.77-0.87,1.62-1.66,2.72-2.76c0.19,0.01,1.04,0.08,1.88,0.14c1.73,0.04,3.46,0.08,5.19,0.12c2.25,2.05,4.49,4.1,6.74,6.16
		 M160.31,157.68c0.98-0.59,1.81-1.1,3.16-1.92C160.08,154.89,159.92,155,160.31,157.68z"/>
	<path class="st16" d="M158.03,153.25c0.25,0.64,0.61,1.26,0.75,1.93c0.37,1.8-0.75,3.29-2.7,3.76c-0.93,0.23-1.83,0.55-2.81,0.85
		c0.77,1.1,1.27,1.82,1.78,2.55c-0.82,0.43-1.64,0.85-3,1.56c0.25-1.38,0.37-2.07,0.49-2.76c-0.17-0.13-0.35-0.26-0.52-0.39
		c-0.93,2.03-1.41,4.57-4.42,4.14c0.09,2.66-0.81,4.28-3.77,3.7c-0.08,0.96,0.04,1.75-0.25,2.33c-0.35,0.7-0.94,1.45-1.62,1.78
		c-1.12,0.54-2.42,0.68-3.59,1.13c-3.05,1.17-3.09,1.37-0.93,3.99c-1.92,0.17-3.72,0.33-5.7,0.51c0.12,0.71,0.23,1.22,0.29,1.74
		c0.18,1.57,0.13,2.8-2.11,2.16c-1.4-0.4-5.01,2.2-5.73,3.51c-0.46,0.84-1.37,1.61-2.25,2.01c-1.53,0.71-3.25,1.01-4.79,1.7
		c-0.46,0.21-0.58,1.15-0.86,1.76c-0.3,0.01-0.61,0.03-0.91,0.04c-1.05-0.72-2.07-1.16-2.92,0.26c-3.74,0.22-7.47,0.43-11.21,0.68
		c-0.86,0.06-1.71,0.28-2.56,0.43c-0.54-5.45-1.09-10.9-1.63-16.35c-0.18-0.96-0.36-1.92-0.54-2.88c0.11-0.1,0.17-0.22,0.19-0.36
		c4.01-0.61,6.54-2.91,7.8-6.73c1.34-4.07,0.11-7.62-2.1-11C120.93,154.62,139.48,153.93,158.03,153.25z"/>
	<path class="st10" d="M86.31,217.76c-0.82,1.18-1.64,2.37-2.47,3.55c-0.84-1.26-1.67-2.52-2.51-3.77
		c-1.33-4.35-2.25-8.7-2.17-13.34c0.06-3.53-0.84-7.07-1.32-10.61c-0.59-5.74,0.04-11.37,1.52-16.92c0.84,0.22,1.68,0.44,2.52,0.66
		c4.88,1.27,9.69,1.61,14.31-0.96c0.28-0.03,0.56-0.06,0.84-0.09c0.54,5.45,1.09,10.9,1.63,16.35c1.72,8.92,3.79,17.81,2.44,26.97
		c-6.84-6.77-9.56-15.15-10.74-24.19c-0.09-0.71-0.25-1.41-0.38-2.12l0.07-0.06l-0.1-0.06L89.88,193c-0.15-2.18-0.31-4.35-0.46-6.53
		c-0.2,0-0.41,0.01-0.61,0.01c-0.22,2.19-0.45,4.37-0.67,6.56c-0.39,6.35-0.75,12.69-1.17,19.04
		C86.84,213.98,86.53,215.86,86.31,217.76z"/>
	<path class="st13" d="M196.43,198.36c-2.32-1.54-4.64-3.09-6.95-4.63c2.33-1.59,4.1-0.98,5.89-0.06c1.11,0.57,2.32,0.96,3.5,1.38
		c0.02,0.01,0.28-0.65,0.42-0.99c0.5-0.33,0.99-0.67,1.49-1c0.16,0.16,0.32,0.33,0.48,0.49c1.99,1.11,3.97,2.22,6.64,3.72
		c-0.25-3,0.71-3.71,2.77-2.93c-0.19,2.83,1.43,2.49,3.36,1.98c1.63-0.43,3.34-0.55,5.01-0.8c0.31-0.01,0.62-0.02,0.92-0.03
		l-0.02,0.02c2.22,0,4.44,0,6.65,0c0.1,0.29,0.2,0.59,0.3,0.88c-1.04,0.83-2.07,1.66-3.11,2.49c-3.26,1.56-6.73,1.62-10.23,1.4
		c-2.05-0.13-4.1-0.44-6.15-0.42C203.66,199.87,199.96,199.79,196.43,198.36z"/>
	<path class="st2" d="M219.03,195.5c-1.67,0.26-3.38,0.37-5.01,0.8c-1.94,0.51-3.55,0.85-3.36-1.98c-2.06-0.78-3.02-0.07-2.77,2.93
		c-2.67-1.49-4.66-2.6-6.64-3.72c0.79-0.62,1.57-1.24,2.36-1.86c0.36-0.02,0.73-0.04,1.09-0.05c0.85-0.11,1.69-0.23,2.67-0.36
		c-0.88-1-1.57-1.8-2.27-2.59c0.09-0.22,0.17-0.45,0.26-0.67c1.38,0.24,2.76,0.48,4.14,0.72c0.35,0.56,0.7,1.11,1.22,1.93
		c0.53-1.25,0.77-1.8,1.01-2.36c1.37-0.09,2.58,0.07,1.65,1.87c-1.07,2.07,0.3,2.2,1.71,2.38c0.82-0.47,1.64-0.93,2.46-1.4
		c0.39,1.58,1.13,0.67,1.89,0.31c2.7-1.27,5.43-2.47,8.16-3.69c-0.75,2.87-2.78,4.61-5.26,5.98c-0.86,0.48-1.61,1.13-2.41,1.71
		l0.02-0.02C219.65,195.48,219.34,195.49,219.03,195.5z"/>
	<path class="st14" d="M291.54,169.83c2.35,1.16,4.7,2.33,7.05,3.49c-1.47,4.16-2.02,8.43-1.68,12.83c0.08,1.01-0.11,2.05-0.18,3.07
		c-2.47,0.07-3.34,1.72-3.76,3.81c-0.48-6.56-0.96-13.11-1.44-19.67c-0.06-0.79-0.1-1.58-0.14-2.37
		C291.43,170.61,291.49,170.22,291.54,169.83z"/>
	<path class="st14" d="M299.19,173.44c2.31,0.66,4.63,1.31,6.94,1.97c0.65,4.91,1.3,9.82,1.95,14.73c-1.89-0.54-2.14-2.04-2.24-3.7
		c-0.04-0.64-0.37-1.26-0.57-1.89c-0.6,0.28-1.19,0.55-1.79,0.83C302.06,181.4,300.63,177.42,299.19,173.44z"/>
	<path class="st12" d="M217.56,191.17c-0.82,0.47-1.64,0.93-2.46,1.4c0.65-1.28,1.29-2.56,1.93-3.83c0.63-1.61,1.26-3.21,1.89-4.82
		c0.09,0.59,0.18,1.19,0.27,1.78c0.21,0.13,0.43,0.25,0.64,0.38c1.22-1.43,2.39-2.91,3.67-4.28c0.65-0.69,1.74-1.82,2.23-1.65
		c1.55,0.55,2.32,1.86,1.48,3.61c-0.17,0.36-0.35,0.71-0.52,1.06c-0.15,0.34-0.31,0.68-0.46,1.02c-2.59-0.24-4.85,0.45-6.55,2.5
		C218.92,189.25,218.26,190.23,217.56,191.17z"/>
	<path class="st3" d="M203.61,191.69c-0.79,0.62-1.57,1.24-2.36,1.86c-0.16-0.16-0.32-0.33-0.48-0.49
		c-0.11-0.46-0.06-1.13-0.34-1.33c-1.9-1.37-3.88-2.65-5.85-3.92c-0.05-0.03-0.33,0.3-0.5,0.47c-0.17-0.49-0.33-0.99-0.5-1.48
		c0.56-1.34,1.12-2.68,1.68-4.03c1.05,0.95,2.1,1.89,3.15,2.84c0.29,0.26,0.55,0.56,0.83,0.83
		C200.7,188.18,202.15,189.94,203.61,191.69z"/>
	<path class="st14" d="M303.32,184.9c0.6-0.28,1.36-0.07,1.96-0.35c0.2,0.63,0.65,1.14,0.69,1.78c0.1,1.65,0.19,3.05,2.08,3.6
		c0.2,1.42,0.59,3.04,0.57,4.46c-0.01,0.69-0.72,1.37-1.12,2.05c-0.47-0.46-1.2-0.84-1.36-1.4
		C305.18,191.85,304.19,188.13,303.32,184.9z"/>
	<path class="st3" d="M217.56,191.17c0.7-0.94,1.36-1.92,2.11-2.83c1.7-2.05,3.96-2.74,6.55-2.5c0.46,0.65,0.93,1.3,1.39,1.95
		c-2.72,1.22-5.45,2.42-8.16,3.69C218.68,191.85,217.95,192.75,217.56,191.17z"/>
	<path class="st14" d="M292.87,192.35c0.42-2.09,1.46-3.8,3.93-3.87c-0.34,2.43-0.66,5.63-1.15,8.03c-0.13,0.63-1.01,1.1-1.54,1.65
		c-0.22-0.09-0.44-0.18-0.66-0.26C293.28,196.27,293.03,193.96,292.87,192.35z"/>
	<path class="st2" d="M194.08,188.26c0.17-0.16,0.45-0.5,0.5-0.47c1.97,1.28,3.94,2.55,5.85,3.92c0.29,0.21,0.24,0.88,0.34,1.33
		c-0.5,0.33-0.99,0.67-1.49,1C196.79,192.81,194.73,191.17,194.08,188.26z"/>
	<path class="st16" d="M88.14,193.04c0.22-2.19,0.45-4.37,0.67-6.56c0.2,0,0.41-0.01,0.61-0.01c0.15,2.18,0.31,4.35,0.46,6.53
		C89.31,193.02,88.73,193.03,88.14,193.04z"/>
	<path class="st22" d="M112.44,191.51c0.85-1.42,1.87-0.98,2.92-0.26C114.38,191.34,113.41,191.42,112.44,191.51z"/>
	<polygon class="st16" points="89.96,193.17 90.06,193.23 89.99,193.29 	"/>
	<path class="st23" d="M158.03,153.25c-18.55,0.68-37.1,1.37-55.64,2.05c-0.97-0.69-1.95-1.38-2.92-2.07
		c-1.51-0.64-3.03-1.28-4.54-1.92h-0.19c-0.04-16.96-0.09-33.91-0.13-50.87c-0.01-10.07-0.02-20.15-0.03-30.22
		c0.02-0.16,0.07-0.32,0.06-0.47c-0.41-6.37,3.52-7.51,8.14-7.16c2.07,0.16,4.13,0.31,6.2,0.37c6.23,0.19,12.45,0.33,18.68,0.51
		c5.25,0.15,10.51,0.33,15.76,0.46c8.7,0.21,17.41,0.39,26.11,0.58c3.98,1.4,4.28,4.77,4.25,8.19c-0.05,8.14-0.24,16.29-0.3,24.43
		c-0.02,2.07,0.23,4.13,0.35,6.2c-0.07,2.09-0.14,4.18-0.21,6.27c-0.05,8.58-0.13,17.16-0.14,25.74c-0.01,3.73,0.11,7.46,0.17,11.19
		c-0.66,5.11-1.88,6.15-7.04,6.27C163.75,152.86,160.89,153.09,158.03,153.25z M144.11,103.8L144.11,103.8
		c2.66-4.06,2.06-8.52,1.53-12.96c3.61-0.86,5.52-2.94,5.99-6.51c0.32-2.44-0.67-3.82-3-4.68c-2.9-1.08-5.72-2.34-8.59-3.48
		c-1.03-0.41-2.09-0.8-3.18-1c-7.04-1.33-12.98,2.02-14.11,8.06c-0.32,1.69-0.08,3.49-0.1,5.23c1.11,2.1,2.22,4.21,3.32,6.31
		c-0.28,2.78,1.86,3.65,3.73,4.74c-0.11,3.15-0.23,6.29-0.34,9.44c-3.01,0.7-6.14,1.07-9,2.15c-6.27,2.36-11.99,5.6-15.22,11.92
		c-3.16,5.15-4.02,10.95-4.71,16.8c-0.16,1.89-0.42,3.78-0.45,5.68c-0.07,3.71,1.58,5.38,5.36,5.33c3.32-0.05,6.65-0.28,9.97-0.44
		c7.69-0.36,15.37-0.73,23.06-1.09c8.61-0.29,17.21-0.6,25.82-0.87c3.64-0.11,5.32-1.58,4.92-5.15c-0.52-4.57-1.19-9.18-2.35-13.62
		c-1.61-6.22-4.42-11.97-10.2-15.38c-4.82-2.84-10.08-4.79-15.78-5.16c-0.07-1.24-1.51-2.65,0.44-3.64
		c0.34-0.23,0.67-0.46,1.01-0.68c0.3-0.11,0.6-0.22,0.9-0.33C143.46,104.23,143.79,104.02,144.11,103.8z"/>
	<path class="st10" d="M152.79,54.15c0.11-0.24,0.22-0.49,0.34-0.73c1.4,0.03,2.8,0.18,4.18,0.06c1.02-0.09,2.01-0.53,3.01-0.82
		c0.13,0.29,0.26,0.58,0.39,0.87c-2.25,1.17-4.48,2.37-6.77,3.45c-0.14,0.06-0.84-0.76-1.06-1.27
		C152.69,55.26,152.81,54.68,152.79,54.15z"/>
	<path class="st24" d="M196.43,84.61c0.85-0.48,1.67-1.31,2.55-1.37c1.47-0.09,1.92-0.66,1.77-1.99l18.18-14.83"/>
	<path class="st24" d="M233.61,91.31c1.01,0,2.23,0.02,2.98-0.5c0.77-0.53,1.49-1.72,1.49-2.62c-0.01-0.9-0.77-2-1.52-2.62
		c-0.58-0.48-1.65-0.46-2.51-0.47"/>
	<path class="st24" d="M233.83,101.87c2.84,0,4.36-1.25,4.37-3.55c0.01-2.27-1.2-3.16-4.33-3.16c-16.16,0-32.31,0-48.47,0
		c0.31-0.64,0.62-1.28,0.94-1.91"/>
	<path class="st24" d="M236.75,46.25c0.48,0.01,0.96,0.02,1.45,0.03c-0.21,0.27-0.42,0.53-0.63,0.8
		C237.29,46.8,237.02,46.53,236.75,46.25z"/>
	<path class="st7" d="M283.31,131.17c-0.06-0.97-0.13-1.93-0.19-2.9c0-1.3,0.01-2.59,0.01-3.89c-0.08-0.79-0.17-1.58-0.25-2.38
		l0.04-0.12c0.02-2.8,0.03-5.6,0.05-8.4c0.03-0.5,0.07-1,0.1-1.5c0.39-0.44,0.28-1.23,0.42-1.73c1.76-6.26,2.93-12.27,0.57-18.67
		c-0.26-0.72,0.81-4.41,1.2-4.52c2.91-0.88,6.18-0.43,9.19-0.76c2.44-0.27,4.61,1.05,7.1,1.2c2.42,3.54,1.83,7.59,1.92,11.51
		c-1.91,9.9-8.05,17.46-13.91,25.18c-1.54,2.03-3.16,4-4.8,5.95C284.4,130.56,283.8,130.82,283.31,131.17z"/>
	<path class="st3" d="M301.55,87.48c-2.49-0.15-5.01-0.62-7.46-0.35c-3.01,0.33-5.98,1.19-8.89,2.07c-0.39,0.12-0.73,1.79-0.47,2.51
		c2.35,6.41,1.25,12.69-0.51,18.95c-0.14,0.51-0.76,0.89-1.15,1.32c-0.04-0.99-0.08-1.98-0.12-2.97c0.01-0.45,0.03-0.91,0.04-1.36
		c0.05-0.49,0.09-0.97,0.14-1.46c0.01-3.69,0.02-7.38,0.03-11.07c0-1.57,0-3.13,0-4.7c-0.01-2.59-0.02-5.18-0.04-7.78
		c0.01-0.3,0.01-0.61,0.02-0.91l0.12-0.13c2.09,1.76,3.02-0.06,3.86-1.41c2.59-4.15,3.07-8.66,1.86-13.37
		c1.18-0.09,2.39-0.07,3.55-0.28c2.38-0.42,4.43,1.05,4.7,3.49C297.9,76.03,299.1,81.91,301.55,87.48z"/>
	<path class="st5" d="M288.99,66.82c1.21,4.71,0.73,9.21-1.86,13.37c-0.84,1.35-1.76,3.17-3.86,1.42c-0.03-0.91-0.05-1.82-0.08-2.73
		c0-0.33,0.01-0.66,0.01-0.99c0.01-7.68,0.02-15.37,0.03-23.05c0.02-0.31,0.04-0.61,0.07-0.92C285.2,58.21,287.1,62.51,288.99,66.82
		z"/>
	<path class="st21" d="M283.3,53.9c-0.02,0.31-0.04,0.61-0.07,0.92c-0.1-0.38-0.2-0.77-0.3-1.15
		C283.07,53.73,283.19,53.81,283.3,53.9z"/>
	<path class="st19" d="M283.33,141.22c-0.01-0.94-0.01-1.88-0.02-2.81c0.53-1.43,1.07-2.87,1.6-4.3c0.2-0.02,0.39-0.04,0.59-0.06
		c0.36,1.65,0.73,3.29,1.09,4.94c1.19,3.32,3.52,5.07,6.99,5.25c0.29,0.01,0.58,0.02,0.88,0.03l0.14,0.11
		c1.68,0.31,3.36,0.62,5.05,0.92c0.56,2.01,1.13,4.02,1.69,6.02c-2.78-1.14-4.93,1.11-7.44,1.4c-1.07-0.33-2.14-0.66-3.21-0.98
		C286.83,149.21,284.43,145.67,283.33,141.22z"/>
	<path class="st2" d="M345.52,82.56c-0.06,0.13-0.09,0.33-0.18,0.37s-0.25-0.09-0.38-0.15c0.06-0.13,0.09-0.33,0.18-0.37
		C345.23,82.37,345.39,82.5,345.52,82.56z"/>
	<path class="st25" d="M308.34,136.39c0.15-0.14,0.29-0.28,0.44-0.42C308.63,136.11,308.48,136.25,308.34,136.39z"/>
	<path class="st2" d="M48.64,113.9c2.26,3.33,2.72,7.13,2.83,11.02c0.16,0.16,0.32,0.32,0.47,0.49c0.32,0.16,0.63,0.32,0.95,0.48
		c0,0.16,0,0.32,0.01,0.47c-0.47,0.32-0.95,0.64-1.42,0.96c1.19,5.64,4.5,9.69,9.04,13.46c2.72,2.25,3.45,5.93,3.49,9.68
		c0.04,3.39,0.55,6.77,0.85,10.16c-1.04-0.57-2.12-1.06-3.1-1.71c-3.02-2.01-6.29-2.46-9.78-1.72c0.45-1.23,0.89-2.46,1.44-3.97
		c-1.81-0.16-3.28-0.3-4.75-0.43c-0.12-1.11,0.04-2.36-0.42-3.3c-0.65-1.32-1.76-2.41-2.67-3.59c2.77-4.2,2.18-6.8-2.31-10.13
		c0.06-0.63,0.02-1.29,0.2-1.88c1.21-4.15,1.24-8.21-0.5-12.27c-0.67-1.57-0.96-3.3-1.42-4.96
		C44.42,117.07,47.25,117.33,48.64,113.9z"/>
	<path class="st13" d="M41.54,116.65c0.46,1.66,0.75,3.39,1.42,4.96c1.74,4.06,1.72,8.12,0.5,12.27c-0.17,0.6-0.14,1.25-0.2,1.88
		c-4.14-0.84-7.44-0.02-9.59,4.09c-1.43,2.75-4.47,2.66-7.09,3.14c-1.3-3.94-2.58-7.89-3.93-11.82c-0.56-1.63-1.28-3.2-1.92-4.8
		c0.95,0.41,1.9,0.82,2.86,1.23c0.87-0.77,1.91-0.94,2.87-1.3c0.72-0.27,1.35-0.78,2.14-1.26c-0.7-0.75-1.12-1.2-1.5-1.61
		c0.81-1.35,1.55-2.58,2.29-3.81c0.64,0.34,1.28,0.67,1.92,1.01c-0.08,0.38-0.17,0.77-0.25,1.15c0.13,0.04,0.27,0.08,0.4,0.11
		c0.11-0.39,0.22-0.79,0.33-1.18c3.91,0.5,5.01-0.23,6.37-3.77C38.96,114.86,40.32,115.87,41.54,116.65z"/>
	<path class="st13" d="M27.43,82.13c2.97-1.88,6.2-2.45,9.65-1.86c0.61,0.19,1.22,0.39,1.84,0.58l-0.01,0.02
		c0.23,0.41,0.46,0.82,0.69,1.23c-0.2,0.73-0.53,1.45-0.58,2.19c-0.21,3.36-0.18,6.74-0.54,10.09c-0.41,3.83-0.12,7.39,2.48,10.45
		c-2.58,1.45-5.16,2.9-7.74,4.35c-0.63-0.02-1.26-0.04-1.89-0.06c-0.2-0.68-0.22-1.49-0.62-2.01c-3.49-4.52-3.51-9.63-3.01-15
		C27.99,88.82,27.54,85.46,27.43,82.13z"/>
	<path class="st9" d="M27.43,82.13c0.11,3.33,0.56,6.69,0.25,9.98c-0.49,5.37-0.48,10.48,3.01,15c0.4,0.52,0.43,1.33,0.62,2.01
		l0.01,0.11c-0.18,0-0.35,0-0.53,0c-8.86-1.46-13.6-11.08-9.78-19.89C22.37,86.24,24.46,83.8,27.43,82.13z"/>
	<path class="st12" d="M29.39,119.63c-0.74,1.23-1.48,2.47-2.29,3.81c0.38,0.41,0.8,0.85,1.5,1.61c-0.79,0.48-1.42,0.99-2.14,1.26
		c-0.96,0.36-1.99,0.52-2.87,1.3c-0.95-0.41-1.9-0.82-2.86-1.23c-1.92-2.88-3.83-5.76-5.75-8.64c-1.52-2.08-3.06-4.15-4.52-6.27
		c-0.24-0.36-0.1-0.98-0.14-1.48c0.77,0.32,1.55,0.63,2.32,0.95c1.58,0.17,3.17,0.34,4.75,0.51c0.15,0.95,0.43,1.89,0.41,2.84
		c-0.03,2.11,0.41,3.77,2.91,3.99c3.13,0.88,3.34,0.83,7.22-1.96C28.43,117.43,28.91,118.53,29.39,119.63z"/>
	<path class="st18" d="M33.22,109.18c2.58-1.45,5.16-2.9,7.74-4.35c4.5-4.12,5.68-9.33,4.38-15.01c-0.74-3.24-2.22-6.36-5.75-7.72
		c-0.23-0.41-0.46-0.82-0.69-1.23c4.86,1.07,7.33,4.53,8.6,8.95c2.6,9.05-4.27,18.85-13.65,19.65
		C33.65,109.5,33.43,109.29,33.22,109.18z"/>
	<path class="st9" d="M7.33,98.99c0.97,0.45,1.95,0.89,2.92,1.34c0.29,0.05,0.58,0.09,0.86,0.14c0.49,1.7,0.48,3.18-0.58,4.86
		c-0.66,1.06-0.25,2.79-0.32,4.22c-0.97-1.91-1.93-3.83-2.9-5.74C7.32,102.2,7.32,100.59,7.33,98.99z"/>
	<path class="st18" d="M10.21,109.55c0.07-1.43-0.34-3.17,0.32-4.22c1.05-1.68,1.07-3.16,0.58-4.86c2.51,0.51,3.29,2.54,1.61,4.42
		c-1.82,2.03-0.54,4.03-0.08,6.05c-0.77-0.32-1.55-0.63-2.32-0.95C10.28,109.84,10.25,109.7,10.21,109.55z"/>
	<path class="st18" d="M20.72,118.26c-2.5-0.22-2.94-1.88-2.91-3.99c0.01-0.94-0.27-1.89-0.41-2.84c1.84-0.83,2.39,0.45,2.66,1.79
		C20.39,114.89,20.51,116.58,20.72,118.26z"/>
	<path class="st12" d="M31.79,120.73c-0.11,0.39-0.22,0.79-0.33,1.18c-0.13-0.04-0.27-0.08-0.4-0.11c0.08-0.38,0.17-0.77,0.25-1.15
		C31.47,120.67,31.63,120.7,31.79,120.73z"/>
	<path class="st18" d="M38.92,80.86c-0.61-0.19-1.22-0.39-1.84-0.58C37.69,80.47,38.3,80.66,38.92,80.86z"/>
	<path class="st18" d="M30.8,109.23c0.18,0,0.35,0,0.53,0C31.16,109.23,30.98,109.23,30.8,109.23z"/>
	<path class="st2" d="M97.04,176.28c-0.28,0.03-0.56,0.06-0.84,0.09c-0.82-0.06-1.67-0.27-2.46-0.15c-3.6,0.55-4.67-0.05-5.92-3.38
		c-0.25-0.65-0.61-1.39-1.14-1.79c-2.01-1.51-2.05-3.16-0.7-5.11c0.21-0.31-0.03-0.93-0.06-1.4c-0.46,0.13-1.02,0.14-1.38,0.42
		c-1.31,1.01-2.54,2.1-3.81,3.17c-1.91-2.39-3.83-4.78-5.74-7.17c1.08-1.47,2.16-2.94,3.24-4.41c0.52,0.29,1.17,0.47,1.53,0.9
		c1.55,1.84,3.02,3.75,4.52,5.64c0.29-0.1,0.58-0.2,0.87-0.29c0.43-1.35,0.85-2.7,1.28-4.05c1.53,1.29,1.76,2.01,1.49,4.37
		c-0.07,0.59-0.28,1.46,0.01,1.75c2.65,2.58,5.4,5.06,8.12,7.57c0.15,0.32,0.3,0.65,0.44,0.97
		C96.68,174.36,96.86,175.32,97.04,176.28z"/>
	<path class="st12" d="M94.93,151.31c1.51,0.64,3.03,1.28,4.54,1.92c-0.16,3.02-0.33,6.05-0.49,9.07c-0.51,1.13-1.01,2.27-1.52,3.4
		c-0.82-0.44-1.75-0.76-2.45-1.35c-4.05-3.46-6.94-8.31-12.31-10.24c-0.48-0.17-0.66-1.17-0.98-1.78c1.05-0.4,2.09-0.8,3.13-1.2
		c0.6,2.05,2.49,1.92,3.93,1.93C90.93,153.08,93.4,153.64,94.93,151.31z M88.04,154.95c-0.13-0.07-0.24-0.16-0.37-0.2
		c-0.06-0.02-0.14,0.05-0.21,0.07c0.05,0.1,0.11,0.27,0.16,0.27C87.76,155.08,87.89,155,88.04,154.95z"/>
	<path class="st26" d="M81.72,152.33c0.32,0.61,0.5,1.61,0.98,1.78c5.37,1.93,8.26,6.77,12.31,10.24c0.69,0.59,1.62,0.91,2.45,1.35
		c-0.47,2.24-0.94,4.48-1.41,6.72c-2.72-2.51-5.47-4.99-8.12-7.57c-0.3-0.29-0.08-1.16-0.01-1.75c0.27-2.36,0.04-3.08-1.49-4.37
		c-0.43,1.36-0.85,2.7-1.28,4.05c-0.29,0.1-0.58,0.2-0.87,0.29c-1.5-1.89-2.97-3.8-4.52-5.64c-0.36-0.43-1.01-0.61-1.53-0.9
		C78.63,154.5,79.56,152.91,81.72,152.33z"/>
	<path class="st3" d="M74.99,160.94c1.91,2.39,3.83,4.78,5.74,7.17c-0.67,0.52-1.34,1.04-2.01,1.56c-5.05,0.45-9.07-0.81-10.55-6.31
		c0.08-2.11,0.16-4.22,0.24-6.33c0.56-0.19,1.13-0.38,1.69-0.57c0.6,0.56,1.2,1.13,1.81,1.69
		C72.93,159.09,73.97,160.02,74.99,160.94z"/>
	<path class="st14" d="M86.52,145.48c-1.06-1.76-1.35-3.46-0.07-4.71c1.64,0.93,3.04,1.69,4.41,2.49c1.53,0.9,1.66,2.18,0.92,3.66
		c-0.38,0.76-0.78,1.51-1.17,2.27c-0.74-0.4-1.59-0.67-2.18-1.23C87.68,147.25,87.15,146.32,86.52,145.48z"/>
	<path class="st11" d="M86.52,145.48c0.62,0.84,1.16,1.78,1.9,2.48c0.59,0.56,1.45,0.83,2.18,1.23c0.56,2.31,2.7,1.52,4.13,2.12
		h0.19c-1.54,2.33-4,1.77-6.14,1.75c-1.44-0.01-3.33,0.12-3.93-1.93c1.13-0.13,2.26-0.26,3.92-0.45
		C86.92,149.05,84.92,147.87,86.52,145.48z"/>
	<path class="st19" d="M70.1,156.48c-0.56,0.19-1.13,0.38-1.69,0.57c-0.06-0.33-0.13-0.66-0.2-0.99c0.04-1.17,0.08-2.34,0.12-3.51
		c0.01-0.21,0.03-0.41,0.04-0.62c1.09,0.26,2.17,0.51,3.4,0.8C71.2,154.02,70.65,155.25,70.1,156.48z"/>
	<path class="st3" d="M294.46,144.25c-0.29-0.01-0.58-0.02-0.88-0.03C293.87,144.24,294.16,144.25,294.46,144.25z"/>
	<path class="st1" d="M245.39,46.7c-1.3,1.5-2.58,1.56-3.84-0.04C242.83,46.67,244.11,46.69,245.39,46.7z"/>
	<path class="st7" d="M283.33,132.59c-0.04-0.15-0.05-0.31-0.01-0.46c0.06,0.11,0.13,0.21,0.17,0.33
		C283.5,132.48,283.39,132.55,283.33,132.59z"/>
	<path class="st19" d="M30.91,163.83c2.77-0.63,5.54-1.25,8.31-1.88c-0.18,0.73-0.36,1.47-0.7,2.82c3.09,0,5.87,0,8.65,0
		c0.24,1.28,0.48,2.56,0.73,3.84c0.31,2.41,0.63,4.83,0.94,7.24c-4.64,0.04-9.27,0.08-13.91,0.12c-2.13-2.55-4.3-5.06-6.35-7.66
		c-0.56-0.71-0.74-1.71-1.1-2.57C29.09,165.94,30.2,165.26,30.91,163.83z"/>
	<path class="st3" d="M48.84,175.85c-0.31-2.41-0.63-4.83-0.94-7.24c1.68,1.04,3.27,2.3,5.06,3.09c4.06,1.81,8.22,3.39,12.34,5.07
		c0,1.27,0,2.54,0,3.81c-5.29-0.16-10.57-0.32-15.86-0.48C49.24,178.68,49.04,177.26,48.84,175.85z"/>
	<path class="st2" d="M49.43,179.72c5.29,0.17,10.57,0.35,15.86,0.52c0.01,1.41,0.01,2.83,0.02,4.24c-5.31,0.1-10.61,0.2-15.92,0.29
		C49.41,183.09,49.42,181.41,49.43,179.72z"/>
	<path class="st2" d="M41.47,211.05c0.38,0.74,0.76,1.49,1.14,2.24c-2.11,0.48-2.79-0.19-2.57-2.51
		C40.52,210.87,40.99,210.96,41.47,211.05z"/>
	<path class="st2" d="M277.52,48.04c-3.17-0.16-6.35-0.33-9.52-0.49c0.99-2.01,1.84-4.11,3.05-5.97c0.32-0.49,2.07-0.7,2.6-0.29
		C275.84,42.94,277.38,45.13,277.52,48.04z"/>
	<path class="st3" d="M290.68,151.73c1.07,0.33,2.14,0.66,3.21,0.98c-0.94,2.18-1.87,4.37-2.81,6.55c-2.58,0.75-5.16,1.5-7.75,2.25
		c0-1.32-0.01-2.64-0.01-3.96c0.54-0.3,1.14-0.52,1.6-0.91C286.86,155.04,288.76,153.38,290.68,151.73z"/>
	<path class="st2" d="M24.59,165.25c-0.04,0.06-0.07,0.13-0.11,0.19C24.52,165.37,24.55,165.31,24.59,165.25
		C24.59,165.24,24.59,165.25,24.59,165.25z"/>
	<path class="st19" d="M45.57,145.89c0.91,1.19,2.02,2.28,2.67,3.59c0.46,0.94,0.3,2.19,0.42,3.3c-0.76,0.12-1.53,0.41-2.28,0.34
		c-3.77-0.31-3.76-0.34-4.8,3.69c0.47,0.17,0.94,0.34,1.53,0.55c-0.96,0.8-1.79,1.48-2.61,2.17c-0.68-0.26-1.36-0.71-2.05-0.73
		c-1.64-0.03-3.28,0.14-5.55,0.27c1.3-2.27,2.31-4.03,3.32-5.8c-0.14-0.17-0.28-0.34-0.42-0.51c-2.8,1-5.6,2.01-8.41,2.96
		c-0.28,0.09-0.69-0.21-1.04-0.32c0.65-1.61,1.23-3.26,1.99-4.81c0.88-1.8,2.08-2.87,4.47-2.68c1.5,0.12,3.1-0.97,4.65-1.51
		c3.22,3.63,5.49,3.49,7.88-0.5C45.41,145.91,45.49,145.9,45.57,145.89z"/>
	<path class="st11" d="M45.33,145.92c-2.39,3.99-4.66,4.13-7.88,0.5c1.13-0.91,1.48-2.86,3.53-2.62c0.17,0.02,0.43-0.75,0.65-1.16
		c0.25,0.2,0.51,0.4,0.76,0.6C43.37,144.13,44.35,145.02,45.33,145.92z"/>
	<path class="st19" d="M42.39,143.24c-0.25-0.2-0.51-0.4-0.76-0.6c-0.56-2.14,0.69-2.45,2.51-2.38
		C44.28,141.74,44.3,143.02,42.39,143.24z"/>
	<path class="st22" d="M115.81,24.6c0.14,0.71,0.29,1.42,0.47,2.35c-2.9-0.32-2.31-2.24-2.41-3.78c0.27-0.54,0.54-1.08,1.09-2.18
		C115.31,22.49,115.56,23.54,115.81,24.6z"/>
	<path class="st11" d="M51.97,157.18c3.49-0.75,6.76-0.3,9.78,1.72c0.98,0.65,2.07,1.14,3.1,1.71c0.16,0.12,0.33,0.23,0.49,0.35
		c0,0.23,0,0.45,0,0.68c-1.61,0.55-3.22,1.09-4.83,1.64c-3.74,1.26-7.12,0.05-10.45-1.54C50.71,160.22,51.34,158.7,51.97,157.18z"/>
	<path class="st12" d="M51.49,127.31c0.47-0.32,0.95-0.64,1.42-0.96C52.43,126.68,51.96,127,51.49,127.31z"/>
	<path class="st2" d="M311.65,49.56c0.15,0.34,0.3,0.68,0.45,1.02C311.95,50.24,311.8,49.9,311.65,49.56z"/>
	<path class="st16" d="M77.85,193.59c-2.07-0.02-4.14-0.04-6.21-0.06c-4.21-3.32-4.03-7.68-3.51-12.48
		c0.44-3.98-0.24-8.08-0.3-12.13c-0.03-1.85,0.22-3.7,0.35-5.55c1.48,5.5,5.51,6.77,10.55,6.31c0.22,2.33,0.43,4.66,0.65,6.98
		C77.89,182.22,77.26,187.85,77.85,193.59z"/>
	<path class="st2" d="M50.08,161.74c3.32,1.59,6.7,2.8,10.45,1.54c0.32,0.44,0.68,0.85,0.94,1.31c1.29,2.27,2.56,4.56,3.84,6.85
		c0,1.78,0,3.55,0,5.33c-4.12-1.67-8.28-3.26-12.34-5.07c-1.79-0.8-3.38-2.05-5.06-3.09c-0.24-1.28-0.49-2.56-0.73-3.84
		C49.32,164.89,49.3,162.93,50.08,161.74z"/>
	<path class="st3" d="M65.3,171.44c-1.28-2.28-2.54-4.57-3.84-6.85c-0.26-0.47-0.62-0.88-0.94-1.31c1.61-0.55,3.22-1.09,4.83-1.64
		C65.33,164.9,65.32,168.17,65.3,171.44z"/>
	<path class="st25" d="M68.33,152.55c-0.04,1.17-0.08,2.34-0.12,3.51c-0.95,0.21-2,0.88-2.26-0.9
		C65.68,153.21,66.71,152.65,68.33,152.55z"/>
	<path class="st19" d="M125.96,29.79c-1.92,0-3.85,0-5.77,0.01c0.33-1.54,1.45-2.48,2.84-2.22c1.12,0.21,2.08,1.27,3.12,1.96
		C126.15,29.68,126.09,29.76,125.96,29.79z"/>
	<path class="st27" d="M50.08,161.74c-0.78,1.19-0.76,3.15-2.91,3.03c-2.78,0-5.56,0-8.65,0c0.33-1.35,0.51-2.08,0.7-2.82
		c0.43-0.8,0.86-1.61,1.29-2.41c0.83-0.69,1.66-1.38,2.61-2.17c-0.59-0.21-1.07-0.38-1.53-0.55c1.03-4.03,1.03-4,4.8-3.69
		c0.74,0.06,1.52-0.22,2.28-0.34c1.47,0.13,2.95,0.27,4.75,0.43c-0.55,1.5-0.99,2.73-1.44,3.97
		C51.34,158.7,50.71,160.22,50.08,161.74z"/>
	<path class="st25" d="M134.18,4.49c1.53-0.27,3.06-0.54,4.58-0.81c3.26,2.97,3.26,4.82-0.01,7.74c-1.41-0.1-2.83-0.21-4.24-0.31
		C132.82,8.98,132.43,6.79,134.18,4.49z"/>
	<path class="st13" d="M51.95,125.41c-0.16-0.16-0.32-0.32-0.47-0.49C51.64,125.08,51.79,125.24,51.95,125.41z"/>
	<path class="st5" d="M211.73,188.31c-0.24,0.56-0.48,1.11-1.01,2.36c-0.52-0.82-0.87-1.38-1.22-1.93
		c-0.36-3.5-0.71-7.01-1.06-10.51c0.82-1.95,1.46-4.02,2.51-5.84c2.42-4.21,5.45-7.92,10.41-9.21c1.25-0.33,3.5-0.32,3.9,0.36
		c0.74,1.26,0.99,3.33,0.47,4.68c-0.6,1.56-2.04,3.11-3.52,3.94c-2.52,1.4-4.68,2.99-6.07,5.53c-1.95,1.47-3.9,2.92-3.98,5.73
		C212.12,185.05,211.88,186.68,211.73,188.31z"/>
	<path class="st3" d="M208.44,178.23c0.35,3.5,0.71,7.01,1.06,10.51c-1.38-0.24-2.76-0.48-4.14-0.72c-0.09,0.22-0.17,0.45-0.26,0.67
		c0.7,0.79,1.39,1.59,2.27,2.59c-0.98,0.13-1.83,0.24-2.67,0.36c-0.5-1.28-1.01-2.56-1.51-3.84c0.47-0.32,1.26-0.57,1.34-0.97
		c0.3-1.53,0.96-3.38,0.41-4.61c-1.18-2.61-0.8-4.77,0.58-7.01C207.99,174.58,208.25,174.85,208.44,178.23z"/>
	<path class="st3" d="M211.73,188.31c0.15-1.63,0.39-3.26,0.43-4.9c0.08-2.81,2.02-4.26,3.98-5.73c0.67,0.14,1.34,0.29,2.01,0.43
		c-2.31,1.71-2.68,4.19-3.07,6.83c-0.29,1.96-0.34,3.36,1.96,3.79c-0.64,1.28-1.29,2.56-1.93,3.83c-1.42-0.18-2.79-0.31-1.72-2.38
		C214.31,188.38,213.1,188.22,211.73,188.31z"/>
	<path class="st7" d="M205.52,175.21c-1.38,2.24-1.76,4.39-0.58,7.01c0.56,1.24-0.1,3.08-0.41,4.61c-0.08,0.4-0.88,0.65-1.34,0.97
		c-0.27-0.51-0.53-1.03-0.8-1.54c-0.2-2.03-0.64-4.08-0.53-6.1C201.98,177.86,202.99,175.89,205.52,175.21z"/>
	<path class="st7" d="M217.03,188.74c-2.3-0.43-2.25-1.83-1.96-3.79c0.39-2.63,0.77-5.12,3.07-6.83c0.26,0.06,0.52,0.11,0.78,0.17
		c0.05,1.75,0.09,3.5,0.14,5.24c-0.05,0.13-0.1,0.26-0.15,0.39C218.29,185.53,217.66,187.13,217.03,188.74z"/>
	<path class="st5" d="M219.07,183.53c-0.05-1.75-0.09-3.5-0.14-5.24c0.12-0.38,0.2-0.77,0.36-1.13c0.62-1.43,1.39-3.16,3.22-2.08
		c1.65,0.97,0.9,2.71,0.05,3.98C221.51,180.63,220.24,182.05,219.07,183.53z"/>
	<path class="st28" d="M258.48,128.91c0.98,2-12.68,10.94-14.38,11.81c-1,0.51-1.71,1.58-2.55,2.4c-7.09,0.18-14.18,0.32-21.27,0.55
		c-8.11,0.26-16.22,0.61-24.33,0.92C193.7,142.55,239.6,129.42,258.48,128.91z"/>
	<path class="st7" d="M290.68,151.73c-1.92,1.64-3.82,3.3-5.76,4.92c-0.46,0.39-1.06,0.61-1.6,0.91c0-5.45,0-10.89,0.01-16.34
		C284.43,145.67,286.83,149.21,290.68,151.73z"/>
	<path class="st28" d="M283.13,124.38c0,1.3,0,2.59-0.01,3.89c-1.38-2.09-0.98-4.23-0.2-6.38l-0.04,0.12
		C282.97,122.8,283.05,123.59,283.13,124.38z"/>
	<path class="st28" d="M282.95,109.01c0.04,0.99,0.08,1.98,0.12,2.97c-0.03,0.5-0.07,1-0.1,1.5
		C282.97,111.99,282.96,110.5,282.95,109.01z"/>
	<path class="st16" d="M184.49,132.18c-1.38,1.95,5.36,5.67,6.97,7.85c-0.84-0.06-8.8-0.8-8.99-0.81c-1.1,1.1-2.29,0.86-3.05,1.72
		c-0.46,0.52-0.94,1.1-1.14,1.74c-0.65,2.15-1.54,1.34-2.54,0.26c-1.29,0.85,0.89,3.75-2.09,3.58c-0.06-3.73-0.17-7.46-0.17-11.19
		c0.01-8.58,0.09-17.16,0.14-25.74c1.01,1.38,2.3,2.64,2.97,4.17c2.21,5.04,4.18,10.18,6.28,15.27
		C183.32,130.12,183.94,131.14,184.49,132.18z"/>
	<path class="st16" d="M160.31,157.68c-0.39-2.68-0.24-2.79,3.16-1.92C162.12,156.58,161.29,157.09,160.31,157.68z"/>
	<path class="st3" d="M98.98,162.31c0.16-3.02,0.33-6.05,0.49-9.07c0.97,0.69,1.95,1.38,2.92,2.07c2.21,3.38,3.44,6.93,2.1,11
		c-1.26,3.82-3.79,6.12-7.8,6.73C97.45,169.46,98.21,165.88,98.98,162.31z"/>
	<path class="st7" d="M98.98,162.31c-0.76,3.58-1.53,7.15-2.29,10.73c-0.02,0.14-0.09,0.26-0.19,0.36
		c-0.15-0.32-0.29-0.65-0.44-0.97c0.47-2.24,0.94-4.48,1.41-6.72C97.97,164.57,98.47,163.44,98.98,162.31z"/>
	<path class="st7" d="M79.37,176.67c-0.22-2.33-0.43-4.66-0.65-6.98c0.67-0.52,1.34-1.04,2.01-1.56c1.26-1.06,2.5-2.16,3.81-3.17
		c0.35-0.27,0.91-0.28,1.38-0.42c0.03,0.48,0.28,1.1,0.06,1.4c-1.36,1.96-1.31,3.6,0.7,5.11c0.53,0.4,0.89,1.13,1.14,1.79
		c1.25,3.33,2.32,3.93,5.92,3.38c0.79-0.12,1.64,0.09,2.46,0.15c-4.62,2.57-9.43,2.23-14.31,0.96
		C81.05,177.11,80.21,176.89,79.37,176.67z"/>
	<path class="st27" d="M219.03,195.5c0.31-0.01,0.62-0.02,0.92-0.03C219.65,195.48,219.34,195.49,219.03,195.5z"/>
	<path class="st26" d="M140.79,109.1c5.7,0.36,10.96,2.32,15.78,5.16c5.78,3.4,8.58,9.16,10.2,15.38c1.16,4.45,1.83,9.05,2.35,13.62
		c0.41,3.57-1.28,5.04-4.92,5.15c-8.61,0.27-17.21,0.57-25.82,0.87c0.42-0.5,0.84-1,1.43-1.71c-5.4-3.88-10.74-7.73-16.09-11.57
		c-0.26-0.19-0.54-0.35-0.79-0.53c-5.4-4.02-10.79-8.05-16.22-12.04c-0.41-0.3-1.04-0.29-1.56-0.43c3.23-6.32,8.95-9.57,15.22-11.92
		c2.87-1.08,5.99-1.46,9-2.15c1.76,1.41,3.33,3.25,5.33,4.16C139.39,115.21,140.7,114.21,140.79,109.1z"/>
	<path class="st12" d="M105.16,123c0.53,0.14,1.15,0.13,1.56,0.43c5.42,3.99,10.81,8.02,16.22,12.04c0.25,0.19,0.53,0.35,0.79,0.53
		c5.35,3.84,10.69,7.69,16.09,11.57c-0.59,0.71-1.01,1.21-1.43,1.71c-7.69,0.36-15.37,0.72-23.06,1.09
		c-0.13-0.44-0.13-1.07-0.42-1.3c-2.83-2.14-5.64-4.32-8.6-6.27c-1.82-1.2-3.89-2.01-5.84-3C101.14,133.95,101.99,128.15,105.16,123
		z"/>
	<path class="st20" d="M122.66,88.44c0.02-1.75-0.22-3.54,0.1-5.23c1.13-6.03,7.07-9.38,14.11-8.06c1.08,0.2,2.15,0.6,3.18,1
		c2.87,1.14,5.7,2.41,8.59,3.48c2.33,0.87,3.32,2.25,3,4.68c-0.46,3.57-2.38,5.66-5.99,6.51c-1.05-4.29-1.22-4.31-5.63-4.27
		c-2.42,0.02-4.92-0.11-7.26-0.68c-2.46-0.6-3.1-0.46-3.46,2.11c-0.09,0.63-0.13,1.26-0.2,1.89c-2.02-0.58-4.03-1.16-6.23-1.79
		C123.05,87.81,122.85,88.12,122.66,88.44z"/>
	<path class="st19" d="M129.1,89.9c0.07-0.63,0.11-1.26,0.2-1.89c0.36-2.57,0.99-2.71,3.46-2.11c2.34,0.57,4.83,0.7,7.26,0.68
		c4.42-0.04,4.58-0.03,5.63,4.27c0.53,4.45,1.13,8.9-1.54,12.97c-0.17-0.4-0.35-0.8-0.54-1.26c-2.6,2.37-3.8,2.67-7.62,1
		c-2.24-0.98-4.16-2.68-6.23-4.06c-1.87-1.09-4.01-1.96-3.74-4.74c0.99-0.45,1.97-0.89,3.12-1.41
		C129.1,92.43,129.1,91.16,129.1,89.9z"/>
	<path class="st11" d="M129.72,99.48c2.07,1.38,3.99,3.07,6.23,4.06c3.81,1.68,5.02,1.38,7.62-1c0.2,0.46,0.37,0.86,0.54,1.26h0.01
		c-0.33,0.22-0.65,0.43-0.98,0.65c-0.3,0.11-0.6,0.22-0.9,0.33c-0.34,0.23-0.67,0.46-1.01,0.68c-1.95,1-0.51,2.4-0.44,3.64
		c-0.09,5.11-1.4,6.1-6.09,3.97c-1.99-0.9-3.56-2.74-5.33-4.16C129.49,105.77,129.6,102.63,129.72,99.48z"/>
	<path class="st5" d="M100.45,139.79c1.96,0.99,4.03,1.8,5.84,3c2.96,1.95,5.77,4.13,8.6,6.27c0.3,0.23,0.29,0.86,0.42,1.3
		c-3.32,0.15-6.64,0.39-9.97,0.44c-3.78,0.05-5.43-1.61-5.36-5.33C100.03,143.58,100.29,141.69,100.45,139.79z"/>
	<path class="st14" d="M129.1,89.9c0,1.27,0,2.54,0,3.45c-1.14,0.52-2.13,0.96-3.12,1.41c-1.11-2.1-2.22-4.21-3.32-6.31
		c0.2-0.32,0.39-0.63,0.21-0.34C125.06,88.73,127.08,89.31,129.1,89.9z"/>
	<path class="st19" d="M141.23,105.46c0.34-0.23,0.67-0.46,1.01-0.68C141.9,105,141.56,105.23,141.23,105.46z"/>
	<path class="st19" d="M143.14,104.45c0.33-0.22,0.65-0.43,0.98-0.65C143.79,104.02,143.46,104.23,143.14,104.45z"/>
	<path class="st19" d="M272.19,79.45c0.01,5.76,0.07,11.51,0.03,17.27c-0.02,3.37-2.2,5.54-5.54,5.57
		c-4.8,0.05-9.61,0.21-14.39-0.05c-1.83-0.1-3.6-1.25-5.4-1.92c-0.33-1.85-0.88-3.7-0.94-5.56c-0.14-4.55-0.07-9.1-0.05-13.65
		c0.02-3.63,2.01-5.59,5.65-5.6c4.55-0.01,9.1,0.12,13.65,0.02C268.38,75.46,270.77,76.51,272.19,79.45z M249.16,99.07
		c0.15,0.17,0.31,0.34,0.46,0.5c0.33,0.15,0.66,0.3,0.99,0.46c0.99,0.26,1.99,0.51,2.98,0.77c3.35,0.03,6.71,0.25,10.04,0.01
		c1.85-0.14,3.63-1.06,5.45-1.63c0.58-1.08,1.61-2.14,1.65-3.24c0.19-4.63,0.16-9.28,0.05-13.91c-0.06-2.62-1.9-4.57-4.27-4.67
		c-3.82-0.17-7.66-0.2-11.48-0.29c-1.47,0.26-2.95,0.51-4.42,0.77c-0.32,0.16-0.64,0.32-0.96,0.49c-0.15,0.16-0.31,0.33-0.46,0.49
		c-0.62,1.34-1.69,2.65-1.77,4.02c-0.24,4.03-0.19,8.09-0.03,12.13c0.05,1.23,0.83,2.44,1.27,3.65
		C248.83,98.76,249,98.92,249.16,99.07z"/>
	<path class="st21" d="M283.13,124.38c-0.08-0.79-0.17-1.58-0.25-2.38C282.97,122.8,283.05,123.59,283.13,124.38z"/>
	<path class="st24" d="M283.36,106.19c-0.53-0.55-1.52-1.1-1.52-1.65c-0.1-8.6-0.11-17.21,0-25.81c0.01-0.7,1.08-1.4,1.65-2.1
		c0.05,0.99,0.11,1.97,0.16,2.96l-0.25,0.14c-0.01,0.33-0.03,0.66-0.04,0.99c0.02,2.8,0.05,5.61,0.08,8.41
		c0,1.7-0.01,3.39-0.01,5.09C283.4,98.2,283.38,102.19,283.36,106.19z"/>
	<path class="st21" d="M283.16,95.12c0-1.57,0-3.13,0-4.7C283.17,91.98,283.16,93.55,283.16,95.12z"/>
	<path class="st21" d="M283.13,82.64c0.01-0.3,0.02-0.61,0.02-0.91C283.14,82.03,283.14,82.33,283.13,82.64z"/>
	<path class="st12" d="M39.24,82.11c4.07,1.36,5.77,4.48,6.62,7.72c1.49,5.68,0.13,10.9-5.04,15.01c-2.99-3.07-3.33-6.62-2.85-10.45
		c0.41-3.34,0.38-6.73,0.62-10.09C38.63,83.56,39.01,82.83,39.24,82.11z"/>
	<path class="st26" d="M88.04,154.95c-0.14,0.05-0.28,0.14-0.42,0.14c-0.05,0-0.11-0.18-0.16-0.27c0.07-0.03,0.15-0.09,0.21-0.07
		C87.8,154.79,87.91,154.87,88.04,154.95z"/>
	<path class="st28" d="M255.04,77.05c3.83,0.09,7.66,0.12,11.48,0.29c2.37,0.1,4.21,2.05,4.27,4.67c0.11,4.64,0.13,9.28-0.05,13.91
		c-0.04,1.1-1.07,2.16-1.65,3.24c-0.1-0.09-0.21-0.19-0.31-0.29c0.44-1.26,0.87-2.53,1.39-4.04c-2.54-0.29-4.37-0.8-5.32,1.93
		c-0.28,0.81-2.05,1.45-3.19,1.53c-2.21,0.14-4.44-0.17-6.67-0.29c0-0.16-0.01-0.32-0.01-0.49c0.96,0.01,1.92,0.04,2.88,0.03
		c5.62-0.07,7.29,1.21,6.79-6.81c-0.21-3.33-0.38-6.66-0.56-9.98c0.33,0.17,0.89,0.27,0.96,0.51c0.82,2.88,2.81,1.99,4.68,1.71
		c0.1-3.39-1.31-4.98-4.42-5.05c-3.43-0.07-6.86-0.08-10.3-0.12C255.03,77.56,255.04,77.31,255.04,77.05z M269.7,88.31
		c0-1.49,0-2.71,0-3.98c-1.42,0-2.64,0-3.96,0c0,1.38,0,2.6,0,3.98C267.11,88.31,268.33,88.31,269.7,88.31z M269.77,89.62
		c-1.36,0-2.69,0-3.98,0c0,1.44,0,2.66,0,3.9c1.42,0,2.65,0,3.98,0C269.77,92.18,269.77,91.01,269.77,89.62z"/>
	<path class="st0" d="M255,97.52c0,0.16,0.01,0.32,0.01,0.49c-1.04-1.12-2.08-2.24-3.3-3.54c-0.81,0.1-2.04,0.25-3.52,0.43
		c0.23,1.3,0.43,2.43,0.64,3.56l-0.17,0.15c-0.44-1.22-1.22-2.42-1.27-3.66c-0.16-4.04-0.21-8.1,0.03-12.13
		c0.08-1.37,1.15-2.68,1.77-4.02l0.06,0.06c-0.38,1.3-0.76,2.59-1.24,4.24c2.42-0.04,4.52,0.94,5.36-2.1
		c0.19-0.68,1.73-0.99,2.64-1.48c-0.01,0.23-0.02,0.46-0.04,0.7c-1.81,0.48-2.5,1.68-2.46,3.52c0.07,3.24-0.12,6.5,0.09,9.73
		C253.7,94.85,254.51,96.18,255,97.52z M248.45,84.29c0,1.48,0,2.71,0,3.99c1.42,0,2.65,0,4,0c0-1.39,0-2.62,0-3.99
		C251.07,84.29,249.84,84.29,248.45,84.29z M248.44,89.21c0,1.81,0,3.03,0,4.67c1.48-0.24,2.99-0.11,3.91-0.78
		c0.53-0.38,0.54-2.65,0.02-3.05C251.46,89.36,249.96,89.48,248.44,89.21z"/>
	<path class="st28" d="M269.09,99.17c-1.81,0.57-3.6,1.5-5.45,1.63c-3.33,0.25-6.69,0.02-10.04-0.01c-0.01-0.25-0.01-0.5-0.02-0.75
		c3.4-0.03,6.81,0.04,10.2-0.14c1.68-0.09,3.34-0.67,5-1.02C268.89,98.98,268.99,99.07,269.09,99.17z"/>
	<path class="st0" d="M255.04,77.05c-0.01,0.25-0.01,0.5-0.02,0.76c-1.44,0.04-2.88,0.07-4.33,0.11l-0.08-0.09
		C252.09,77.57,253.57,77.31,255.04,77.05z"/>
	<path class="st0" d="M253.58,100.04c0.01,0.25,0.01,0.5,0.02,0.75c-0.99-0.26-1.99-0.51-2.98-0.77l0.08-0.1
		C251.66,99.97,252.62,100.01,253.58,100.04z"/>
	<path class="st0" d="M249.66,78.31c0.32-0.16,0.64-0.32,0.96-0.49l0.07,0.09c-0.32,0.16-0.64,0.32-0.96,0.48
		C249.74,78.4,249.66,78.31,249.66,78.31z"/>
	<path class="st0" d="M250.62,100.02c-0.33-0.15-0.66-0.3-0.99-0.46l0.14-0.15c0.31,0.17,0.62,0.34,0.93,0.51
		C250.7,99.93,250.62,100.02,250.62,100.02z"/>
	<path class="st0" d="M249.63,99.57c-0.15-0.17-0.31-0.34-0.46-0.5l0.11-0.1c0.16,0.15,0.33,0.3,0.49,0.46L249.63,99.57z"/>
	<path class="st0" d="M249.16,99.07c-0.17-0.15-0.33-0.3-0.5-0.45c0,0,0.17-0.15,0.16-0.15c0.15,0.17,0.3,0.33,0.44,0.5
		L249.16,99.07z"/>
	<path class="st0" d="M249.19,78.8c0.15-0.16,0.31-0.33,0.46-0.49l0.08,0.09c-0.16,0.15-0.32,0.31-0.48,0.47L249.19,78.8z"/>
	<path class="st19" d="M255,97.52c-0.48-1.35-1.3-2.67-1.38-4.04c-0.21-3.23-0.02-6.49-0.09-9.73c-0.04-1.84,0.65-3.04,2.46-3.52
		c2.71,0.18,5.43,0.36,8.14,0.54l-0.02-0.02c0.19,3.33,0.36,6.66,0.56,9.98c0.5,8.02-1.18,6.74-6.79,6.81
		C256.91,97.56,255.95,97.53,255,97.52z"/>
	<path class="st19" d="M249.27,98.97c-0.15-0.17-0.3-0.33-0.44-0.5c-0.2-1.13-0.4-2.26-0.63-3.56c1.48-0.18,2.71-0.33,3.52-0.43
		c1.21,1.3,2.25,2.42,3.3,3.54c2.22,0.12,4.46,0.43,6.67,0.29c1.13-0.07,2.91-0.72,3.19-1.53c0.95-2.73,2.78-2.22,5.32-1.93
		c-0.52,1.51-0.96,2.77-1.39,4.04c-1.67,0.36-3.32,0.93-5,1.02c-3.39,0.19-6.8,0.11-10.2,0.14c-0.96-0.04-1.93-0.08-2.89-0.11
		c-0.31-0.17-0.62-0.34-0.93-0.51C249.6,99.27,249.43,99.12,249.27,98.97z"/>
	<path class="st19" d="M249.25,78.86c0.16-0.16,0.32-0.31,0.48-0.46c0.32-0.16,0.64-0.32,0.96-0.48c1.44-0.04,2.88-0.07,4.33-0.11
		c3.43,0.04,6.87,0.04,10.3,0.12c3.11,0.07,4.52,1.66,4.42,5.05c-1.87,0.28-3.86,1.17-4.68-1.71c-0.07-0.24-0.63-0.35-0.96-0.51
		l0.02,0.02c-0.77-0.35-1.55-0.7-2.32-1.05c-0.21,0-0.42,0.01-0.64,0.01c-1.24,0.01-2.47,0.01-3.71,0.02
		c-0.18-0.09-0.37-0.18-0.55-0.27c-0.3,0.01-0.59,0.03-0.89,0.04c-0.92,0.48-2.45,0.79-2.64,1.47c-0.84,3.04-2.95,2.06-5.36,2.1
		C248.49,81.46,248.87,80.16,249.25,78.86z"/>
	<path class="st19" d="M269.7,88.31c-1.37,0-2.59,0-3.96,0c0-1.37,0-2.6,0-3.98c1.32,0,2.54,0,3.96,0
		C269.7,85.6,269.7,86.82,269.7,88.31z"/>
	<path class="st19" d="M269.77,89.62c0,1.39,0,2.56,0,3.9c-1.34,0-2.56,0-3.98,0c0-1.23,0-2.46,0-3.9
		C267.08,89.62,268.42,89.62,269.77,89.62z"/>
	<path class="st19" d="M248.45,84.29c1.39,0,2.62,0,4,0c0,1.38,0,2.6,0,3.99c-1.35,0-2.57,0-4,0
		C248.45,87,248.45,85.77,248.45,84.29z"/>
	<path class="st19" d="M248.44,89.21c1.52,0.27,3.02,0.16,3.93,0.84c0.52,0.4,0.51,2.66-0.02,3.05c-0.92,0.67-2.43,0.54-3.91,0.78
		C248.44,92.24,248.44,91.02,248.44,89.21z"/>
	<path class="st28" d="M261.79,79.73c0.77,0.35,1.55,0.7,2.32,1.05c-2.71-0.18-5.43-0.36-8.14-0.54c0.01-0.23,0.02-0.47,0.04-0.7
		c0.3-0.01,0.59-0.03,0.89-0.04c0.18,0.09,0.37,0.18,0.55,0.27c1.24-0.01,2.47-0.01,3.71-0.02
		C261.37,79.74,261.58,79.73,261.79,79.73z"/>
	<path class="st0" d="M257.45,79.76c-0.18-0.09-0.37-0.18-0.55-0.27C257.09,79.58,257.27,79.67,257.45,79.76z"/>
	<path class="st0" d="M261.79,79.73c-0.21,0-0.42,0.01-0.64,0.01C261.37,79.74,261.58,79.73,261.79,79.73z"/>
	<polyline class="st28" points="189.21,138.44 211.31,131.16 245.16,130.43 195.95,144.6 	"/>
	<path class="st4" d="M56.94,108.51"/>
	<path class="st17" d="M77.86,40.03c1.56,4.31,2.7,8.85,4.78,12.89c2.83,5.49,6.36,10.63,9.69,15.85c0.44,0.68,1.48,0.98,2.25,1.45
		c0.01,10.07,0.02,20.15,0.03,30.22c-0.46-0.56-1.14-1.06-1.33-1.7c-0.26-0.92-0.15-1.94-0.21-3.23c-1.62,0.99-2.95,1.6-4.02,2.5
		c-2,1.7-3.83,3.61-5.79,5.36c-1.16,1.04-2.44,1.94-3.67,2.9c-0.93,0.04-1.86,0.09-2.78,0.13c-1.45-4.89-3.03-5.66-5.95-3.43
		c-0.9-0.71-1.76-1.38-2.61-2.05c0-17.24,0.07-34.49-0.04-51.73c-0.02-3.37,0.17-6.46,2.91-8.82l-0.01,0.03
		c0.33-0.14,0.66-0.28,0.99-0.42C74.02,40,75.94,40.02,77.86,40.03z"/>
	<path class="st4" d="M63.4,104.1"/>
	<path class="st28" d="M272.1,78.15c0.17-0.19,0.3-0.42,0.5-0.55c2.88-1.91,5.77-3.81,8.81-5.81c1.33,1.09-1.04,4.39,2.24,4.7
		c0,0.35-0.01,0.7-0.01,1.05c-0.29,0.68-0.84,1.36-0.85,2.04c-0.06,8.39-0.05,16.78,0,25.17c0,0.54,0.51,1.07,0.78,1.61
		c-0.05,0.51-0.1,1.03-0.15,1.54c-0.47,0.11-1.34,0.2-1.35,0.35c-0.23,3.5-4.32,3.75-5.49,6.73c-0.57,1.45-3.34,1.99-5.07,3.01
		c-0.88,0.52-1.71,1.15-2.48,1.82c-1,0.87-1.91,1.86-2.89,2.77c-2.81,2.59-5.64,5.15-8.43,7.76c-0.33,0.31-0.52,1.93-0.73,2.37
		c-16.28,0.35-34.37,0.84-50.65,1.19c0,0.91,2.41-2.5,2.78-2.57c4-0.75,5.54-4.53,8.32-6.76c1.08-0.86,1.85-2.12,2.75-3.2
		c0.16-0.19,0.28-0.5,0.47-0.56c5.81-1.8,9.32-6.6,13.61-10.43c3.06-2.73,6.41-5.15,9.55-7.8c0.73-0.62,1.16-1.6,1.73-2.42
		c1.89,0.71,3.92-6.27,5.84-6.17c5.02,0.28,8.91-10.23,13.95-10.28"/>
	<path class="st24" d="M183.94,96.12c-8.44-0.19,32.37-27.69,34.24-29.15c0.98-0.77,2.08-1.38,3.13-2.04
		c0.26-0.16,0.75-0.18,0.82-0.37c1.1-3.1,3.55-4.74,6.35-6.04c0.27-0.13,0.59-0.4,0.67-0.66c1.16-4.01,5.08-4.65,7.84-6.77
		c1.34-1.03,4.13-1.62,3.61-4.43c0.32,0,0.63,0,0.95,0c1.27,1.6,2.55,1.54,3.84,0.04c3.2,0.01,6.4,0.03,9.61,0.04
		c1.56,0.14,3.12,0.32,4.69,0.42c2.44,0.16,4.88,0.28,7.32,0.42c0.33-0.01,0.67-0.03,1-0.04c3.17,0.16,6.35,0.33,9.52,0.49
		c1.27,0.36,2.55,0.73,3.82,1.09c0.53,1.51,1.06,3.03,1.59,4.54c0.1,0.39,0.2,0.77,0.3,1.15c-0.01,7.68-0.02,15.37-0.03,23.05
		c-3.13-0.29-0.87-3.43-2.14-4.46c-2.89,1.9-5.65,3.7-8.4,5.51c-0.19,0.13-0.32,0.35-0.48,0.52c-1.42-2.94,9.76-0.66,6.57-0.58
		c-4.55,0.1,0.5,2.75-4.05,2.76c-3.64,0-6.12,1.01-9.96,3.47c-0.03,4.55-9.89,7.37-9.75,11.92c0.06,1.86-6.05,1.16-5.73,3.01
		c-0.54,0.77-3.34,2-4.03,2.59c-3,2.51-6.18,4.8-9.11,7.39c-4.08,3.62-7.43,8.18-12.97,9.88c-0.19,0.06-0.3,0.35-0.45,0.54
		c-0.87,1.02-1.6,2.21-2.63,3.03c-2.65,2.11-4.12,5.7-7.93,6.4c-0.35,0.06,0.65,1.63,0.37,2.08c-8.94,0.34-17.15,7.31-26.09,7.65
		c-0.54-1.05-3.1-9.46-3.55-10.55c-2.1-5.09-4.07-10.23-6.28-15.27c-0.67-1.53-1.96-2.79-2.97-4.17c0.07-2.09,0.14-4.18,0.21-6.27
		c1.64-1.39,3.21-2.89,4.95-4.14c1.62-1.16,4.88-3.01,6.6-4.02"/>
</g>
<path class="st2" d="M35.92,210.81c0.38,0.74,0.76,1.49,1.14,2.24c-2.11,0.48-2.79-0.19-2.57-2.51
	C34.96,210.62,35.44,210.72,35.92,210.81z"/>
<path class="st2" d="M84.28,222.17c-2.7-0.26-1.6-0.15-4.3-0.41c0.19-1.72,1.6-2.33,4.53-2.19c0.1,0,0.18,0.09,0.16,0.19
	C84.54,220.56,84.41,221.37,84.28,222.17z"/>
<path class="st2" d="M101.4,220.47c-2.7,0.26-1.6,0.15-4.3,0.41c-0.13-1.73,1.13-2.59,4.04-3c0.1-0.01,0.19,0.06,0.19,0.15
	C101.36,218.85,101.38,219.66,101.4,220.47z"/>
<path class="st2" d="M295.43,199.64c-2.7-0.26-1.6-0.15-4.3-0.41c0.19-1.72,1.6-2.33,4.53-2.19c0.1,0,0.18,0.09,0.16,0.19
	C295.7,198.03,295.56,198.84,295.43,199.64z"/>
<path class="st2" d="M308,197.86c-2.7-0.26-1.6-0.15-4.3-0.41c0.19-1.72,1.6-2.33,4.53-2.19c0.1,0,0.18,0.09,0.16,0.19
	C308.27,196.25,308.14,197.06,308,197.86z"/>
</svg>
